<svg xmlns="http://www.w3.org/2000/svg" width="77" height="77" viewBox="0 0 77 77">
    <g fill="none" fill-rule="evenodd">
        <g>
            <g>
                <g>
                    <g transform="translate(-315.000000, -119.000000) translate(353.500000, 187.500000) rotate(-90.000000) translate(-353.500000, -187.500000) translate(166.000000, -126.000000) translate(180.000000, 276.000000) translate(0.000000, 0.000000)">
                        <path fill="#000" fill-opacity=".32" stroke="#FFF" stroke-width="2" d="M7.692 0h26.616c2.675 0 3.645.278 4.623.801.977.523 1.745 1.29 2.268 2.268.523.978.801 1.948.801 4.623v59.616c0 2.675-.278 3.645-.801 4.623-.523.977-1.29 1.745-2.268 2.268-.978.523-1.948.801-4.623.801H7.692c-2.675 0-3.645-.278-4.623-.801-.977-.523-1.745-1.29-2.268-2.268C.278 70.953 0 69.983 0 67.308V7.692c0-2.675.278-3.645.801-4.623.523-.977 1.29-1.745 2.268-2.268C4.047.278 5.017 0 7.692 0z"/>
                        <rect width="9" height="2" x="16.5" y="4" fill="#FFF" rx="1"/>
                        <rect width="6" height="6" x="18" y="66" fill="#FFF" rx="3"/>
                    </g>
                    <g opacity=".5" transform="translate(-315.000000, -119.000000) translate(353.500000, 187.500000) rotate(-90.000000) translate(-353.500000, -187.500000) translate(166.000000, -126.000000) translate(180.000000, 276.000000) translate(54.666949, 54.000000) rotate(90.000000) translate(-54.666949, -54.000000) translate(33.666949, 33.666949)">
                        <path fill="#000" fill-opacity=".32" stroke="#FFF" d="M42 40.692c0-2.675-.278-3.645-.801-4.623-.523-.977-1.29-1.745-2.268-2.268-.978-.523-1.948-.801-4.623-.801h0H0V7.692c0-2.675.278-3.645.801-4.623.523-.977 1.29-1.745 2.268-2.268C4.047.278 5.017 0 7.692 0h26.616c2.675 0 3.645.278 4.623.801.977.523 1.745 1.29 2.268 2.268.523.978.801 1.948.801 4.623z"/>
                        <rect width="9" height="2" x="16.5" y="4" fill="#FFF" rx="1"/>
                    </g>
                    <g>
                        <path stroke="#FFF" stroke-linecap="round" stroke-width="2" d="M16 16C16 7.163 8.837 0 0 0" transform="translate(-315.000000, -119.000000) translate(353.500000, 187.500000) rotate(-90.000000) translate(-353.500000, -187.500000) translate(166.000000, -126.000000) translate(180.000000, 276.000000) translate(52.500000, 5.000000)"/>
                        <path fill="#FFF" d="M20.673 15.884l-4.139 4.139c-.293.293-.769.293-1.062 0l-4.139-4.14c-.147-.146-.147-.384 0-.53.07-.07.166-.11.266-.11h8.808c.208 0 .376.168.376.375 0 .1-.04.195-.11.266z" transform="translate(-315.000000, -119.000000) translate(353.500000, 187.500000) rotate(-90.000000) translate(-353.500000, -187.500000) translate(166.000000, -126.000000) translate(180.000000, 276.000000) translate(52.500000, 5.000000)"/>
                    </g>
                </g>
            </g>
        </g>
    </g>
</svg>
