<?xml version="1.0" encoding="UTF-8"?>
<svg width="59px" height="59px" viewBox="0 0 59 59" version="1.1" xmlns="http://www.w3.org/2000/svg" xmlns:xlink="http://www.w3.org/1999/xlink">
    <title>regular-chip-6</title>
    <defs>
        <linearGradient x1="1.36803774%" y1="1.78760377%" x2="1.36803774%" y2="99.0515094%" id="linearGradient-1">
            <stop stop-color="#B229BD" offset="0%"></stop>
            <stop stop-color="#6A2270" offset="100%"></stop>
        </linearGradient>
        <linearGradient x1="96.7448649%" y1="93.4897297%" x2="96.7448649%" y2="0%" id="linearGradient-2">
            <stop stop-color="#FFFFFF" offset="0%"></stop>
            <stop stop-color="#000000" offset="100%"></stop>
        </linearGradient>
    </defs>
    <g id="regular-chip-6" stroke="none" stroke-width="1" fill="none" fill-rule="evenodd">
        <g id="Group" transform="translate(3.000000, 3.000000)">
            <circle id="Oval" fill="url(#linearGradient-1)" fill-rule="nonzero" cx="26.5" cy="26.5" r="26.5"></circle>
            <circle id="Oval" fill-opacity="0.2" fill="url(#linearGradient-2)" fill-rule="nonzero" style="mix-blend-mode: multiply;" cx="26.5" cy="26.5" r="18.5"></circle>
            <circle id="Oval" stroke="#FFFFFF" stroke-width="1.47222" cx="26.5" cy="26.5" r="17.7639"></circle>
            <path d="M21.12,50.5938 C21.12,49.3751 21.8625,48.2728 23.0447,47.977 C23.9973,47.7387 25.1987,47.52 26.4,47.52 C27.6014,47.52 28.8028,47.7387 29.7554,47.977 C30.9376,48.2728 31.68,49.3751 31.68,50.5938 L31.68,50.5938 C31.68,50.8254 31.521,51.0255 31.2938,51.0707 C30.4667,51.2352 28.4333,51.5932 26.4,51.5932 C24.3667,51.5932 22.3334,51.2352 21.5062,51.0707 C21.279,51.0255 21.12,50.8254 21.12,50.5938 L21.12,50.5938 Z" id="Path" fill="#FFFFFF"></path>
            <path d="M21.12,2.2063 C21.12,3.42494 21.8625,4.52723 23.0447,4.82301 C23.9973,5.06135 25.1987,5.28003 26.4,5.28003 C27.6014,5.28003 28.8028,5.06135 29.7554,4.82301 C30.9376,4.52723 31.68,3.42494 31.68,2.2063 L31.68,2.2063 C31.68,1.97462 31.5211,1.77456 31.2938,1.72936 C30.4667,1.56484 28.4333,1.20689 26.4,1.20689 C24.3667,1.20689 22.3334,1.56484 21.5062,1.72936 C21.279,1.77456 21.12,1.97462 21.12,2.2063 L21.12,2.2063 Z" id="Path" fill="#FFFFFF"></path>
            <path d="M3.19955,34.1506 C4.25493,33.5413 5.58078,33.6331 6.42803,34.509 C7.11073,35.2148 7.9008,36.1459 8.5015,37.1863 C9.1022,38.2267 9.5135,39.3765 9.7834,40.3206 C10.1183,41.4923 9.5349,42.6865 8.4796,43.2958 L8.4796,43.2958 C8.2789,43.4116 8.0262,43.374 7.8734,43.1998 C7.31736,42.5657 5.9907,40.9838 4.97404,39.2229 C3.95738,37.462 3.25071,35.5221 2.97962,34.7235 C2.90514,34.5041 2.99891,34.2664 3.19955,34.1506 L3.19955,34.1506 Z" id="Path" fill="#FFFFFF"></path>
            <path d="M45.1043,9.9568 C44.049,10.5662 43.4656,11.7603 43.8005,12.932 C44.0704,13.8762 44.4817,15.0259 45.0824,16.0663 C45.6831,17.1067 46.4732,18.0378 47.1559,18.7436 C48.0031,19.6195 49.329,19.7114 50.3843,19.1021 L50.3843,19.1021 C50.585,18.9862 50.6788,18.7485 50.6043,18.5291 C50.3332,17.7305 49.6265,15.7907 48.6099,14.0298 C47.5932,12.2688 46.2665,10.6869 45.7105,10.0528 C45.5577,9.8787 45.305,9.841 45.1043,9.9568 L45.1043,9.9568 Z" id="Path" fill="#FFFFFF"></path>
            <path d="M49.6005,34.1506 C48.5451,33.5413 47.2192,33.6331 46.372,34.509 C45.6893,35.2148 44.8992,36.1459 44.2985,37.1863 C43.6979,38.2267 43.2865,39.3765 43.0167,40.3206 C42.6817,41.4923 43.2651,42.6865 44.3205,43.2958 L44.3205,43.2958 C44.5211,43.4116 44.7739,43.374 44.9266,43.1998 C45.4827,42.5657 46.8093,40.9838 47.826,39.2229 C48.8426,37.462 49.5493,35.5221 49.8204,34.7235 C49.8949,34.5041 49.8011,34.2664 49.6005,34.1506 L49.6005,34.1506 Z" id="Path" fill="#FFFFFF"></path>
            <path d="M7.6957,9.9568 C8.7511,10.5662 9.3345,11.7603 8.9995,12.932 C8.7296,13.8762 8.3183,15.0259 7.7176,16.0663 C7.11695,17.1067 6.32688,18.0378 5.64419,18.7436 C4.79693,19.6195 3.47108,19.7114 2.41571,19.1021 L2.41571,19.1021 C2.21507,18.9862 2.1213,18.7485 2.19577,18.5291 C2.46687,17.7305 3.17353,15.7907 4.19019,14.0298 C5.20685,12.2688 6.53351,10.6869 7.08956,10.0528 C7.24232,9.8787 7.49506,9.841 7.6957,9.9568 L7.6957,9.9568 Z" id="Path" fill="#FFFFFF"></path>
        </g>
    </g>
</svg>