<?xml version="1.0" encoding="UTF-8"?>
<svg width="59px" height="59px" viewBox="0 0 59 59" version="1.1" xmlns="http://www.w3.org/2000/svg" xmlns:xlink="http://www.w3.org/1999/xlink">
    <title>vip-chip-5</title>
    <defs>
        <linearGradient x1="50%" y1="0%" x2="50%" y2="98.4669811%" id="linearGradient-1">
            <stop stop-color="#419827" offset="0%"></stop>
            <stop stop-color="#1F4713" offset="100%"></stop>
        </linearGradient>
        <linearGradient x1="49.9999807%" y1="0%" x2="49.9999807%" y2="100%" id="linearGradient-2">
            <stop stop-color="#F7DDA1" offset="0%"></stop>
            <stop stop-color="#CBAD71" offset="24.5038%"></stop>
            <stop stop-color="#DBBB7A" offset="46.8041%"></stop>
            <stop stop-color="#968152" offset="79.6073%"></stop>
            <stop stop-color="#987F56" offset="100%"></stop>
        </linearGradient>
        <linearGradient x1="0%" y1="0%" x2="50%" y2="50%" id="linearGradient-3">
            <stop stop-color="#FFFFFF" offset="0%"></stop>
            <stop stop-color="#D8D8D8" stop-opacity="0" offset="100%"></stop>
        </linearGradient>
        <linearGradient x1="27.2232838%" y1="91.2199623%" x2="95.8351708%" y2="32.234609%" id="linearGradient-4">
            <stop stop-color="#000000" offset="0%"></stop>
            <stop stop-color="#0B0606" offset="9%"></stop>
            <stop stop-color="#291919" offset="24%"></stop>
            <stop stop-color="#5A3636" offset="44%"></stop>
            <stop stop-color="#9F5F5F" offset="69%"></stop>
            <stop stop-color="#F59393" offset="97%"></stop>
            <stop stop-color="#FF9999" offset="100%"></stop>
        </linearGradient>
        <linearGradient x1="80.1166152%" y1="33.0090524%" x2="47.439855%" y2="92.0582334%" id="linearGradient-5">
            <stop stop-color="#FFFFFF" offset="21%"></stop>
            <stop stop-color="#E2E2E2" offset="31%"></stop>
            <stop stop-color="#979797" offset="53%"></stop>
            <stop stop-color="#222222" offset="84%"></stop>
            <stop stop-color="#000000" offset="93%"></stop>
        </linearGradient>
        <linearGradient x1="47.0096337%" y1="4.98791614%" x2="62.0519341%" y2="42.9940543%" id="linearGradient-6">
            <stop stop-color="#FFFFFF" offset="21%"></stop>
            <stop stop-color="#E2E2E2" offset="31%"></stop>
            <stop stop-color="#979797" offset="53%"></stop>
            <stop stop-color="#222222" offset="84%"></stop>
            <stop stop-color="#000000" offset="93%"></stop>
        </linearGradient>
        <linearGradient x1="11.9970559%" y1="51.7000401%" x2="83.8027478%" y2="42.1269158%" id="linearGradient-7">
            <stop stop-color="#FFFFFF" offset="0%"></stop>
            <stop stop-color="#D2D2D2" offset="19%"></stop>
            <stop stop-color="#636363" offset="62%"></stop>
            <stop stop-color="#000000" offset="99%"></stop>
        </linearGradient>
        <linearGradient x1="13.3380812%" y1="36.2791438%" x2="90.7137136%" y2="65.248621%" id="linearGradient-8">
            <stop stop-color="#FFFFFF" offset="0%"></stop>
            <stop stop-color="#FFF6D2" offset="19%"></stop>
            <stop stop-color="#FFDF63" offset="63%"></stop>
            <stop stop-color="#FFCC00" offset="100%"></stop>
        </linearGradient>
        <radialGradient cx="-5.27666857%" cy="112.74%" fx="-5.27666857%" fy="112.74%" r="125.163%" gradientTransform="translate(-0.052767,1.127400),scale(0.950751,1.000000),rotate(-26.640000),translate(0.052767,-1.127400)" id="radialGradient-9">
            <stop stop-color="#FFFFFF" offset="0%"></stop>
            <stop stop-color="#D2D2D2" offset="19%"></stop>
            <stop stop-color="#636363" offset="63%"></stop>
            <stop stop-color="#000000" offset="100%"></stop>
        </radialGradient>
        <linearGradient x1="0%" y1="49.7618335%" x2="100%" y2="50.23604%" id="linearGradient-10">
            <stop stop-color="#FFFFFF" offset="0%"></stop>
            <stop stop-color="#19D9E5" offset="86%"></stop>
        </linearGradient>
        <linearGradient x1="19.9200168%" y1="23.5959406%" x2="83.1572301%" y2="79.0879785%" id="linearGradient-11">
            <stop stop-color="#FFFFFF" offset="0%"></stop>
            <stop stop-color="#19D9E5" offset="86%"></stop>
        </linearGradient>
        <linearGradient x1="80.2483205%" y1="9.56159816%" x2="-2.11732246%" y2="69.6924585%" id="linearGradient-12">
            <stop stop-color="#000000" offset="0%"></stop>
            <stop stop-color="#636363" offset="19%"></stop>
            <stop stop-color="#D2D2D2" offset="42%"></stop>
            <stop stop-color="#FFFFFF" offset="52%"></stop>
            <stop stop-color="#E2E2E2" offset="58%"></stop>
            <stop stop-color="#979797" offset="70%"></stop>
            <stop stop-color="#222222" offset="88%"></stop>
            <stop stop-color="#000000" offset="93%"></stop>
        </linearGradient>
        <linearGradient x1="102.444009%" y1="26.2444415%" x2="-9.79238189%" y2="115.852369%" id="linearGradient-13">
            <stop stop-color="#000000" offset="0%"></stop>
            <stop stop-color="#636363" offset="19%"></stop>
            <stop stop-color="#D2D2D2" offset="42%"></stop>
            <stop stop-color="#FFFFFF" offset="52%"></stop>
            <stop stop-color="#E2E2E2" offset="58%"></stop>
            <stop stop-color="#979797" offset="70%"></stop>
            <stop stop-color="#222222" offset="88%"></stop>
            <stop stop-color="#000000" offset="93%"></stop>
        </linearGradient>
        <linearGradient x1="81.8887723%" y1="30.3472016%" x2="9.84260231%" y2="87.7146443%" id="linearGradient-14">
            <stop stop-color="#000000" offset="0%"></stop>
            <stop stop-color="#636363" offset="19%"></stop>
            <stop stop-color="#D2D2D2" offset="42%"></stop>
            <stop stop-color="#FFFFFF" offset="52%"></stop>
            <stop stop-color="#E2E2E2" offset="58%"></stop>
            <stop stop-color="#979797" offset="70%"></stop>
            <stop stop-color="#222222" offset="88%"></stop>
            <stop stop-color="#000000" offset="93%"></stop>
        </linearGradient>
        <radialGradient cx="49.9950495%" cy="49.9949506%" fx="49.9950495%" fy="49.9949506%" r="25.2636%" id="radialGradient-15">
            <stop stop-color="#FFFFFF" offset="0%"></stop>
            <stop stop-color="#D2D2D2" offset="19%"></stop>
            <stop stop-color="#636363" offset="63%"></stop>
            <stop stop-color="#000000" offset="100%"></stop>
        </radialGradient>
        <linearGradient x1="27.2232838%" y1="91.2186461%" x2="95.8351708%" y2="32.2322564%" id="linearGradient-16">
            <stop stop-color="#000000" offset="0%"></stop>
            <stop stop-color="#0B0606" offset="9%"></stop>
            <stop stop-color="#291919" offset="24%"></stop>
            <stop stop-color="#5A3636" offset="44%"></stop>
            <stop stop-color="#9F5F5F" offset="69%"></stop>
            <stop stop-color="#F59393" offset="97%"></stop>
            <stop stop-color="#FF9999" offset="100%"></stop>
        </linearGradient>
        <linearGradient x1="80.1166152%" y1="33.0079676%" x2="47.439855%" y2="92.0552057%" id="linearGradient-17">
            <stop stop-color="#FFFFFF" offset="21%"></stop>
            <stop stop-color="#E2E2E2" offset="31%"></stop>
            <stop stop-color="#979797" offset="53%"></stop>
            <stop stop-color="#222222" offset="84%"></stop>
            <stop stop-color="#000000" offset="93%"></stop>
        </linearGradient>
        <linearGradient x1="47.0096337%" y1="4.98753086%" x2="62.0519341%" y2="42.993881%" id="linearGradient-18">
            <stop stop-color="#FFFFFF" offset="21%"></stop>
            <stop stop-color="#E2E2E2" offset="31%"></stop>
            <stop stop-color="#979797" offset="53%"></stop>
            <stop stop-color="#222222" offset="84%"></stop>
            <stop stop-color="#000000" offset="93%"></stop>
        </linearGradient>
        <linearGradient x1="11.9970559%" y1="51.6982762%" x2="83.8027478%" y2="42.1259026%" id="linearGradient-19">
            <stop stop-color="#FFFFFF" offset="0%"></stop>
            <stop stop-color="#D2D2D2" offset="19%"></stop>
            <stop stop-color="#636363" offset="62%"></stop>
            <stop stop-color="#000000" offset="99%"></stop>
        </linearGradient>
        <linearGradient x1="13.3379935%" y1="36.2802865%" x2="90.7138109%" y2="65.2489553%" id="linearGradient-20">
            <stop stop-color="#FFFFFF" offset="0%"></stop>
            <stop stop-color="#FFF6D2" offset="19%"></stop>
            <stop stop-color="#FFDF63" offset="63%"></stop>
            <stop stop-color="#FFCC00" offset="100%"></stop>
        </linearGradient>
        <linearGradient x1="0%" y1="49.7620485%" x2="100%" y2="50.2375262%" id="linearGradient-21">
            <stop stop-color="#FFFFFF" offset="0%"></stop>
            <stop stop-color="#19D9E5" offset="86%"></stop>
        </linearGradient>
        <linearGradient x1="19.9200168%" y1="23.5979515%" x2="83.1572301%" y2="79.0854719%" id="linearGradient-22">
            <stop stop-color="#FFFFFF" offset="0%"></stop>
            <stop stop-color="#19D9E5" offset="86%"></stop>
        </linearGradient>
        <linearGradient x1="80.2483205%" y1="9.5622952%" x2="-2.11732246%" y2="69.6886672%" id="linearGradient-23">
            <stop stop-color="#000000" offset="0%"></stop>
            <stop stop-color="#636363" offset="19%"></stop>
            <stop stop-color="#D2D2D2" offset="42%"></stop>
            <stop stop-color="#FFFFFF" offset="52%"></stop>
            <stop stop-color="#E2E2E2" offset="58%"></stop>
            <stop stop-color="#979797" offset="70%"></stop>
            <stop stop-color="#222222" offset="88%"></stop>
            <stop stop-color="#000000" offset="93%"></stop>
        </linearGradient>
        <linearGradient x1="102.444009%" y1="26.2449193%" x2="-9.79238189%" y2="115.843561%" id="linearGradient-24">
            <stop stop-color="#000000" offset="0%"></stop>
            <stop stop-color="#636363" offset="19%"></stop>
            <stop stop-color="#D2D2D2" offset="42%"></stop>
            <stop stop-color="#FFFFFF" offset="52%"></stop>
            <stop stop-color="#E2E2E2" offset="58%"></stop>
            <stop stop-color="#979797" offset="70%"></stop>
            <stop stop-color="#222222" offset="88%"></stop>
            <stop stop-color="#000000" offset="93%"></stop>
        </linearGradient>
        <linearGradient x1="81.8887723%" y1="30.3468461%" x2="9.84260231%" y2="87.7131401%" id="linearGradient-25">
            <stop stop-color="#000000" offset="0%"></stop>
            <stop stop-color="#636363" offset="19%"></stop>
            <stop stop-color="#D2D2D2" offset="42%"></stop>
            <stop stop-color="#FFFFFF" offset="52%"></stop>
            <stop stop-color="#E2E2E2" offset="58%"></stop>
            <stop stop-color="#979797" offset="70%"></stop>
            <stop stop-color="#222222" offset="88%"></stop>
            <stop stop-color="#000000" offset="93%"></stop>
        </linearGradient>
        <radialGradient cx="49.9950495%" cy="49.9875339%" fx="49.9950495%" fy="49.9875339%" r="25.2636%" id="radialGradient-26">
            <stop stop-color="#FFFFFF" offset="0%"></stop>
            <stop stop-color="#D2D2D2" offset="19%"></stop>
            <stop stop-color="#636363" offset="63%"></stop>
            <stop stop-color="#000000" offset="100%"></stop>
        </radialGradient>
        <linearGradient x1="27.2250668%" y1="91.2179426%" x2="95.832333%" y2="32.2354795%" id="linearGradient-27">
            <stop stop-color="#000000" offset="0%"></stop>
            <stop stop-color="#0B0606" offset="9%"></stop>
            <stop stop-color="#291919" offset="24%"></stop>
            <stop stop-color="#5A3636" offset="44%"></stop>
            <stop stop-color="#9F5F5F" offset="69%"></stop>
            <stop stop-color="#F59393" offset="97%"></stop>
            <stop stop-color="#FF9999" offset="100%"></stop>
        </linearGradient>
        <linearGradient x1="80.1141625%" y1="33.0098849%" x2="47.4396727%" y2="92.0561727%" id="linearGradient-28">
            <stop stop-color="#FFFFFF" offset="21%"></stop>
            <stop stop-color="#E2E2E2" offset="31%"></stop>
            <stop stop-color="#979797" offset="53%"></stop>
            <stop stop-color="#222222" offset="84%"></stop>
            <stop stop-color="#000000" offset="93%"></stop>
        </linearGradient>
        <linearGradient x1="47.0102397%" y1="4.99143784%" x2="62.0504846%" y2="42.9946025%" id="linearGradient-29">
            <stop stop-color="#FFFFFF" offset="21%"></stop>
            <stop stop-color="#E2E2E2" offset="31%"></stop>
            <stop stop-color="#979797" offset="53%"></stop>
            <stop stop-color="#222222" offset="84%"></stop>
            <stop stop-color="#000000" offset="93%"></stop>
        </linearGradient>
        <linearGradient x1="11.9946026%" y1="51.7000401%" x2="83.8012758%" y2="42.1269158%" id="linearGradient-30">
            <stop stop-color="#FFFFFF" offset="0%"></stop>
            <stop stop-color="#D2D2D2" offset="19%"></stop>
            <stop stop-color="#636363" offset="62%"></stop>
            <stop stop-color="#000000" offset="99%"></stop>
        </linearGradient>
        <linearGradient x1="13.3386184%" y1="36.2800816%" x2="90.7147237%" y2="65.2495589%" id="linearGradient-31">
            <stop stop-color="#FFFFFF" offset="0%"></stop>
            <stop stop-color="#FFF6D2" offset="19%"></stop>
            <stop stop-color="#FFDF63" offset="63%"></stop>
            <stop stop-color="#FFCC00" offset="100%"></stop>
        </linearGradient>
        <radialGradient cx="-5.27867044%" cy="112.74%" fx="-5.27867044%" fy="112.74%" r="125.163%" gradientTransform="translate(-0.052787,1.127400),scale(0.950769,1.000000),rotate(-26.640000),translate(0.052787,-1.127400)" id="radialGradient-32">
            <stop stop-color="#FFFFFF" offset="0%"></stop>
            <stop stop-color="#D2D2D2" offset="19%"></stop>
            <stop stop-color="#636363" offset="63%"></stop>
            <stop stop-color="#000000" offset="100%"></stop>
        </radialGradient>
        <linearGradient x1="0.000905661744%" y1="49.7597136%" x2="99.9997736%" y2="50.2360336%" id="linearGradient-33">
            <stop stop-color="#FFFFFF" offset="0%"></stop>
            <stop stop-color="#19D9E5" offset="86%"></stop>
        </linearGradient>
        <linearGradient x1="19.9216168%" y1="23.5992707%" x2="83.15688%" y2="79.0881521%" id="linearGradient-34">
            <stop stop-color="#FFFFFF" offset="0%"></stop>
            <stop stop-color="#19D9E5" offset="86%"></stop>
        </linearGradient>
        <linearGradient x1="80.2480762%" y1="9.56305344%" x2="-2.11548497%" y2="69.686611%" id="linearGradient-35">
            <stop stop-color="#000000" offset="0%"></stop>
            <stop stop-color="#636363" offset="19%"></stop>
            <stop stop-color="#D2D2D2" offset="42%"></stop>
            <stop stop-color="#FFFFFF" offset="52%"></stop>
            <stop stop-color="#E2E2E2" offset="58%"></stop>
            <stop stop-color="#979797" offset="70%"></stop>
            <stop stop-color="#222222" offset="88%"></stop>
            <stop stop-color="#000000" offset="93%"></stop>
        </linearGradient>
        <linearGradient x1="102.444068%" y1="26.249178%" x2="-9.79343943%" y2="115.846024%" id="linearGradient-36">
            <stop stop-color="#000000" offset="0%"></stop>
            <stop stop-color="#636363" offset="19%"></stop>
            <stop stop-color="#D2D2D2" offset="42%"></stop>
            <stop stop-color="#FFFFFF" offset="52%"></stop>
            <stop stop-color="#E2E2E2" offset="58%"></stop>
            <stop stop-color="#979797" offset="70%"></stop>
            <stop stop-color="#222222" offset="88%"></stop>
            <stop stop-color="#000000" offset="93%"></stop>
        </linearGradient>
        <linearGradient x1="81.8914906%" y1="30.3474078%" x2="9.84622326%" y2="87.7142485%" id="linearGradient-37">
            <stop stop-color="#000000" offset="0%"></stop>
            <stop stop-color="#636363" offset="19%"></stop>
            <stop stop-color="#D2D2D2" offset="42%"></stop>
            <stop stop-color="#FFFFFF" offset="52%"></stop>
            <stop stop-color="#E2E2E2" offset="58%"></stop>
            <stop stop-color="#979797" offset="70%"></stop>
            <stop stop-color="#222222" offset="88%"></stop>
            <stop stop-color="#000000" offset="93%"></stop>
        </linearGradient>
        <radialGradient cx="50.001505%" cy="49.9849506%" fx="50.001505%" fy="49.9849506%" r="25.2636%" id="radialGradient-38">
            <stop stop-color="#FFFFFF" offset="0%"></stop>
            <stop stop-color="#D2D2D2" offset="19%"></stop>
            <stop stop-color="#636363" offset="63%"></stop>
            <stop stop-color="#000000" offset="100%"></stop>
        </radialGradient>
        <linearGradient x1="27.2268496%" y1="91.2159232%" x2="95.8304753%" y2="32.2363498%" id="linearGradient-39">
            <stop stop-color="#000000" offset="0%"></stop>
            <stop stop-color="#0B0606" offset="9%"></stop>
            <stop stop-color="#291919" offset="24%"></stop>
            <stop stop-color="#5A3636" offset="44%"></stop>
            <stop stop-color="#9F5F5F" offset="69%"></stop>
            <stop stop-color="#F59393" offset="97%"></stop>
            <stop stop-color="#FF9999" offset="100%"></stop>
        </linearGradient>
        <linearGradient x1="80.1126899%" y1="33.0107173%" x2="47.4424302%" y2="92.0541122%" id="linearGradient-40">
            <stop stop-color="#FFFFFF" offset="21%"></stop>
            <stop stop-color="#E2E2E2" offset="31%"></stop>
            <stop stop-color="#979797" offset="53%"></stop>
            <stop stop-color="#222222" offset="84%"></stop>
            <stop stop-color="#000000" offset="93%"></stop>
        </linearGradient>
        <linearGradient x1="47.0122249%" y1="4.9923182%" x2="62.0488998%" y2="42.9947395%" id="linearGradient-41">
            <stop stop-color="#FFFFFF" offset="21%"></stop>
            <stop stop-color="#E2E2E2" offset="31%"></stop>
            <stop stop-color="#979797" offset="53%"></stop>
            <stop stop-color="#222222" offset="84%"></stop>
            <stop stop-color="#000000" offset="93%"></stop>
        </linearGradient>
        <linearGradient x1="11.9921492%" y1="51.7000401%" x2="83.797841%" y2="42.1269158%" id="linearGradient-42">
            <stop stop-color="#FFFFFF" offset="0%"></stop>
            <stop stop-color="#D2D2D2" offset="19%"></stop>
            <stop stop-color="#636363" offset="62%"></stop>
            <stop stop-color="#000000" offset="99%"></stop>
        </linearGradient>
        <linearGradient x1="13.3382272%" y1="36.2800816%" x2="90.7162324%" y2="65.2495589%" id="linearGradient-43">
            <stop stop-color="#FFFFFF" offset="0%"></stop>
            <stop stop-color="#FFF6D2" offset="19%"></stop>
            <stop stop-color="#FFDF63" offset="63%"></stop>
            <stop stop-color="#FFCC00" offset="100%"></stop>
        </linearGradient>
        <linearGradient x1="0.00226413386%" y1="49.7597179%" x2="100%" y2="50.2360293%" id="linearGradient-44">
            <stop stop-color="#FFFFFF" offset="0%"></stop>
            <stop stop-color="#19D9E5" offset="86%"></stop>
        </linearGradient>
        <linearGradient x1="19.9200168%" y1="23.5990484%" x2="83.1572301%" y2="79.088397%" id="linearGradient-45">
            <stop stop-color="#FFFFFF" offset="0%"></stop>
            <stop stop-color="#19D9E5" offset="86%"></stop>
        </linearGradient>
        <linearGradient x1="80.2483205%" y1="9.56159816%" x2="-2.11732246%" y2="69.6873195%" id="linearGradient-46">
            <stop stop-color="#000000" offset="0%"></stop>
            <stop stop-color="#636363" offset="19%"></stop>
            <stop stop-color="#D2D2D2" offset="42%"></stop>
            <stop stop-color="#FFFFFF" offset="52%"></stop>
            <stop stop-color="#E2E2E2" offset="58%"></stop>
            <stop stop-color="#979797" offset="70%"></stop>
            <stop stop-color="#222222" offset="88%"></stop>
            <stop stop-color="#000000" offset="93%"></stop>
        </linearGradient>
        <linearGradient x1="102.444208%" y1="26.2464597%" x2="-9.80135699%" y2="115.85356%" id="linearGradient-47">
            <stop stop-color="#000000" offset="0%"></stop>
            <stop stop-color="#636363" offset="19%"></stop>
            <stop stop-color="#D2D2D2" offset="42%"></stop>
            <stop stop-color="#FFFFFF" offset="52%"></stop>
            <stop stop-color="#E2E2E2" offset="58%"></stop>
            <stop stop-color="#979797" offset="70%"></stop>
            <stop stop-color="#222222" offset="88%"></stop>
            <stop stop-color="#000000" offset="93%"></stop>
        </linearGradient>
        <linearGradient x1="81.8940189%" y1="30.3472016%" x2="9.8478489%" y2="87.7146443%" id="linearGradient-48">
            <stop stop-color="#000000" offset="0%"></stop>
            <stop stop-color="#636363" offset="19%"></stop>
            <stop stop-color="#D2D2D2" offset="42%"></stop>
            <stop stop-color="#FFFFFF" offset="52%"></stop>
            <stop stop-color="#E2E2E2" offset="58%"></stop>
            <stop stop-color="#979797" offset="70%"></stop>
            <stop stop-color="#222222" offset="88%"></stop>
            <stop stop-color="#000000" offset="93%"></stop>
        </linearGradient>
        <radialGradient cx="50%" cy="49.9849506%" fx="50%" fy="49.9849506%" r="25.2636%" id="radialGradient-49">
            <stop stop-color="#FFFFFF" offset="0%"></stop>
            <stop stop-color="#D2D2D2" offset="19%"></stop>
            <stop stop-color="#636363" offset="63%"></stop>
            <stop stop-color="#000000" offset="100%"></stop>
        </radialGradient>
        <linearGradient x1="80.1126899%" y1="33.0107173%" x2="47.4375306%" y2="92.0541122%" id="linearGradient-50">
            <stop stop-color="#FFFFFF" offset="21%"></stop>
            <stop stop-color="#E2E2E2" offset="31%"></stop>
            <stop stop-color="#979797" offset="53%"></stop>
            <stop stop-color="#222222" offset="84%"></stop>
            <stop stop-color="#000000" offset="93%"></stop>
        </linearGradient>
        <linearGradient x1="47.007335%" y1="4.9923182%" x2="62.0488998%" y2="42.9947395%" id="linearGradient-51">
            <stop stop-color="#FFFFFF" offset="21%"></stop>
            <stop stop-color="#E2E2E2" offset="31%"></stop>
            <stop stop-color="#979797" offset="53%"></stop>
            <stop stop-color="#222222" offset="84%"></stop>
            <stop stop-color="#000000" offset="93%"></stop>
        </linearGradient>
        <linearGradient x1="13.3406206%" y1="36.2791438%" x2="90.7162368%" y2="65.248621%" id="linearGradient-52">
            <stop stop-color="#FFFFFF" offset="0%"></stop>
            <stop stop-color="#FFF6D2" offset="19%"></stop>
            <stop stop-color="#FFDF63" offset="63%"></stop>
            <stop stop-color="#FFCC00" offset="100%"></stop>
        </linearGradient>
        <linearGradient x1="0.00226413386%" y1="49.7618443%" x2="100%" y2="50.2360293%" id="linearGradient-53">
            <stop stop-color="#FFFFFF" offset="0%"></stop>
            <stop stop-color="#19D9E5" offset="86%"></stop>
        </linearGradient>
        <linearGradient x1="81.8887723%" y1="30.3472016%" x2="9.8478489%" y2="87.7146443%" id="linearGradient-54">
            <stop stop-color="#000000" offset="0%"></stop>
            <stop stop-color="#636363" offset="19%"></stop>
            <stop stop-color="#D2D2D2" offset="42%"></stop>
            <stop stop-color="#FFFFFF" offset="52%"></stop>
            <stop stop-color="#E2E2E2" offset="58%"></stop>
            <stop stop-color="#979797" offset="70%"></stop>
            <stop stop-color="#222222" offset="88%"></stop>
            <stop stop-color="#000000" offset="93%"></stop>
        </linearGradient>
        <radialGradient cx="50.0049505%" cy="49.9949506%" fx="50.0049505%" fy="49.9949506%" r="25.2636%" id="radialGradient-55">
            <stop stop-color="#FFFFFF" offset="0%"></stop>
            <stop stop-color="#D2D2D2" offset="19%"></stop>
            <stop stop-color="#636363" offset="63%"></stop>
            <stop stop-color="#000000" offset="100%"></stop>
        </radialGradient>
        <linearGradient x1="27.2268496%" y1="91.2146071%" x2="95.8304753%" y2="32.2339974%" id="linearGradient-56">
            <stop stop-color="#000000" offset="0%"></stop>
            <stop stop-color="#0B0606" offset="9%"></stop>
            <stop stop-color="#291919" offset="24%"></stop>
            <stop stop-color="#5A3636" offset="44%"></stop>
            <stop stop-color="#9F5F5F" offset="69%"></stop>
            <stop stop-color="#F59393" offset="97%"></stop>
            <stop stop-color="#FF9999" offset="100%"></stop>
        </linearGradient>
        <linearGradient x1="80.1126899%" y1="33.0096326%" x2="47.4375306%" y2="92.0510848%" id="linearGradient-57">
            <stop stop-color="#FFFFFF" offset="21%"></stop>
            <stop stop-color="#E2E2E2" offset="31%"></stop>
            <stop stop-color="#979797" offset="53%"></stop>
            <stop stop-color="#222222" offset="84%"></stop>
            <stop stop-color="#000000" offset="93%"></stop>
        </linearGradient>
        <linearGradient x1="47.007335%" y1="4.99193295%" x2="62.0488998%" y2="42.9945662%" id="linearGradient-58">
            <stop stop-color="#FFFFFF" offset="21%"></stop>
            <stop stop-color="#E2E2E2" offset="31%"></stop>
            <stop stop-color="#979797" offset="53%"></stop>
            <stop stop-color="#222222" offset="84%"></stop>
            <stop stop-color="#000000" offset="93%"></stop>
        </linearGradient>
        <linearGradient x1="11.9921492%" y1="51.6982762%" x2="83.797841%" y2="42.1259026%" id="linearGradient-59">
            <stop stop-color="#FFFFFF" offset="0%"></stop>
            <stop stop-color="#D2D2D2" offset="19%"></stop>
            <stop stop-color="#636363" offset="62%"></stop>
            <stop stop-color="#000000" offset="99%"></stop>
        </linearGradient>
        <linearGradient x1="13.340533%" y1="36.2802865%" x2="90.7163342%" y2="65.2489553%" id="linearGradient-60">
            <stop stop-color="#FFFFFF" offset="0%"></stop>
            <stop stop-color="#FFF6D2" offset="19%"></stop>
            <stop stop-color="#FFDF63" offset="63%"></stop>
            <stop stop-color="#FFCC00" offset="100%"></stop>
        </linearGradient>
        <linearGradient x1="0.00226413386%" y1="49.7620592%" x2="100%" y2="50.2375155%" id="linearGradient-61">
            <stop stop-color="#FFFFFF" offset="0%"></stop>
            <stop stop-color="#19D9E5" offset="86%"></stop>
        </linearGradient>
        <linearGradient x1="81.8887723%" y1="30.3468461%" x2="9.8478489%" y2="87.7131401%" id="linearGradient-62">
            <stop stop-color="#000000" offset="0%"></stop>
            <stop stop-color="#636363" offset="19%"></stop>
            <stop stop-color="#D2D2D2" offset="42%"></stop>
            <stop stop-color="#FFFFFF" offset="52%"></stop>
            <stop stop-color="#E2E2E2" offset="58%"></stop>
            <stop stop-color="#979797" offset="70%"></stop>
            <stop stop-color="#222222" offset="88%"></stop>
            <stop stop-color="#000000" offset="93%"></stop>
        </linearGradient>
        <radialGradient cx="50.0049505%" cy="49.9875339%" fx="50.0049505%" fy="49.9875339%" r="25.2636%" id="radialGradient-63">
            <stop stop-color="#FFFFFF" offset="0%"></stop>
            <stop stop-color="#D2D2D2" offset="19%"></stop>
            <stop stop-color="#636363" offset="63%"></stop>
            <stop stop-color="#000000" offset="100%"></stop>
        </radialGradient>
    </defs>
    <g id="vip-chip-5" stroke="none" stroke-width="1" fill="none" fill-rule="evenodd">
        <g id="Group-2" transform="translate(3.000000, 3.000000)">
            <g id="Group" fill-rule="nonzero">
                <circle id="Oval" fill="url(#linearGradient-1)" cx="26.5" cy="26.5" r="26.5"></circle>
                <circle id="Oval" fill="#D8D8D8" style="mix-blend-mode: darken;" cx="26.5" cy="26.5" r="26.5"></circle>
            </g>
            <g id="Group" transform="translate(0.618620, 0.000000)">
                <path d="M43.31718,45.6123 C42.25228,44.6036 42.01838,42.996 42.75188,41.7257 L47.47818,33.5393 C48.21158,32.269 49.72078,31.6677 51.12688,32.0856 L51.75118,32.2712 C50.55288,37.6664 47.70988,42.4425 43.77548,46.0464 L43.31718,45.6123 Z M33.83798,51.7847 L33.69108,51.1701 C33.34998,49.7435 32.07468,48.7371 30.60778,48.7371 L21.15498,48.7372 C19.68818,48.7372 18.41288,49.7435 18.07178,51.1701 L17.92478,51.7848 C20.43638,52.5743 23.10918,53 25.88138,53 C28.65358,53 31.32638,52.5743 33.83798,51.7847 Z M7.98728,46.0464 C4.05286,42.4426 1.20989,37.6665 0.0116,32.2712 L0.63587,32.0857 C2.04193,31.6678 3.55107,32.269 4.2845,33.5394 L9.01088,41.7257 C9.74438,42.9961 9.51048,44.6036 8.44558,45.6124 L7.98728,46.0464 Z M0,20.7813 L0.63591,20.9703 C2.04197,21.3882 3.55111,20.7869 4.28454,19.5166 L9.01088,11.3302 C9.74438,10.0599 9.51048,8.4523 8.44558,7.4435 L7.95728,6.98111 C4.02567,10.5934 1.18845,15.3783 0,20.7813 Z M17.91228,1.21917 L18.07178,1.886 C18.41288,3.31264 19.68818,4.31895 21.15498,4.31895 L30.60778,4.31895 C32.07468,4.31895 33.34998,3.31261 33.69108,1.88597 L33.85048,1.21919 C31.33528,0.4271 28.65818,0 25.88138,0 C23.10458,0 20.42748,0.42709 17.91228,1.21917 Z M43.80538,6.98114 L43.31718,7.4436 C42.25218,8.4523 42.01838,10.0599 42.75178,11.3303 L47.47818,19.5166 C48.21168,20.7869 49.72078,21.3882 51.12688,20.9703 L51.76278,20.7813 C50.57428,15.3783 47.73708,10.5935 43.80538,6.98114 Z M35.71028,43.4306 C37.14378,42.5988 38.48118,41.5788 39.68158,40.3815 C40.90948,39.16 41.95268,37.7949 42.79968,36.3299 C43.66158,34.8454 44.33368,33.2371 44.78288,31.5381 C45.22228,29.8843 45.43558,28.2 45.4339889,26.5271 C45.43548,24.847 45.22018,23.1553 44.77658,21.4945 C44.33098,19.8171 43.66778,18.2283 42.81928,16.7601 C41.96808,15.2808 40.91698,13.9029 39.67818,12.671 C38.46148,11.4581 37.10428,10.4273 35.64878,9.5898 C34.21338,8.7603 32.66268,8.108 31.02658,7.6628 C29.31788,7.1956 27.57528,6.97056 25.84528,6.97530421 C24.14968,6.97692 22.44268,7.1993 20.76788,7.6542 C19.14008,8.0942 17.59648,8.7391 16.16648,9.5596 C14.67028,10.4143 13.27698,11.4729 12.03248,12.7231 C10.80968,13.9483 9.77158,15.3163 8.92988,16.7837 C8.10058,18.2232 7.44948,19.7782 7.00648,21.4186 C6.54988,23.101 6.32793,24.8159 6.3287207,26.5189 C6.32635,28.2188 6.54588,29.9307 6.99918,31.6105 C7.44758,33.2805 8.11158,34.8621 8.95958,36.3238 C9.79448,37.7692 10.82038,39.1173 12.02608,40.3265 C13.25078,41.5578 14.61978,42.6036 16.08928,43.452 C17.57848,44.3155 19.19218,44.9881 20.89688,45.4363 C22.53348,45.8687 24.19968,46.0799 25.85488,46.08065 C27.53518,46.0844 29.22728,45.8715 30.88868,45.4303 C32.59898,44.9784 34.21748,44.3006 35.71028,43.4306 Z M12.66058,6.70731 C13.08968,7.4506 14.04008,7.7052 14.78338,7.2761 C15.52658,6.84699 15.78128,5.89657 15.35218,5.1533 C14.92308,4.41002 13.97258,4.15536 13.22938,4.58449 C12.48608,5.01362 12.23138,5.96404 12.66058,6.70731 Z M36.41058,47.8436 C36.83968,48.5869 37.79008,48.8415 38.53338,48.4124 C39.27668,47.9833 39.53128,47.0328 39.10218,46.2896 C38.67308,45.5463 37.72268,45.2916 36.97938,45.7208 C36.23608,46.1499 35.98148,47.1003 36.41058,47.8436 Z M2.13133,28.0525 C2.98959,28.0525 3.68534,27.3567 3.68534,26.4984 C3.68534,25.6402 2.98959,24.9444 2.13133,24.9444 C1.27307,24.9444 0.57732,25.6402 0.57732,26.4984 C0.57732,27.3567 1.27307,28.0525 2.13133,28.0525 Z M49.63138,28.0525 C50.48968,28.0525 51.18538,27.3567 51.18538,26.4984 C51.18538,25.6402 50.48968,24.9444 49.63138,24.9444 C48.77318,24.9444 48.07738,25.6402 48.07738,26.4984 C48.07738,27.3567 48.77318,28.0525 49.63138,28.0525 Z M36.97938,7.2761 C36.23608,6.84699 35.98148,5.89657 36.41058,5.1533 C36.83968,4.41002 37.79008,4.15536 38.53338,4.58449 C39.27668,5.01362 39.53138,5.96404 39.10218,6.70731 C38.67308,7.4506 37.72268,7.7052 36.97938,7.2761 Z M13.22938,48.4124 C12.48608,47.9833 12.23138,47.0328 12.66058,46.2896 C13.08968,45.5463 14.04008,45.2916 14.78338,45.7208 C15.52658,46.1499 15.78128,47.1003 15.35218,47.8436 C14.92308,48.5869 13.97258,48.8415 13.22938,48.4124 Z" id="Shape" fill="url(#linearGradient-2)"></path>
                <path d="M43.31718,45.6123 C42.25228,44.6036 42.01838,42.996 42.75188,41.7257 L47.47818,33.5393 C48.21158,32.269 49.72078,31.6677 51.12688,32.0856 L51.75118,32.2712 C50.55288,37.6664 47.70988,42.4425 43.77548,46.0464 L43.31718,45.6123 Z M33.83798,51.7847 L33.69108,51.1701 C33.34998,49.7435 32.07468,48.7371 30.60778,48.7371 L21.15498,48.7372 C19.68818,48.7372 18.41288,49.7435 18.07178,51.1701 L17.92478,51.7848 C20.43638,52.5743 23.10918,53 25.88138,53 C28.65358,53 31.32638,52.5743 33.83798,51.7847 Z M7.98728,46.0464 C4.05286,42.4426 1.20989,37.6665 0.0116,32.2712 L0.63587,32.0857 C2.04193,31.6678 3.55107,32.269 4.2845,33.5394 L9.01088,41.7257 C9.74438,42.9961 9.51048,44.6036 8.44558,45.6124 L7.98728,46.0464 Z M0,20.7813 L0.63591,20.9703 C2.04197,21.3882 3.55111,20.7869 4.28454,19.5166 L9.01088,11.3302 C9.74438,10.0599 9.51048,8.4523 8.44558,7.4435 L7.95728,6.98111 C4.02567,10.5934 1.18845,15.3783 0,20.7813 Z M17.91228,1.21917 L18.07178,1.886 C18.41288,3.31264 19.68818,4.31895 21.15498,4.31895 L30.60778,4.31895 C32.07468,4.31895 33.34998,3.31261 33.69108,1.88597 L33.85048,1.21919 C31.33528,0.4271 28.65818,0 25.88138,0 C23.10458,0 20.42748,0.42709 17.91228,1.21917 Z M43.80538,6.98114 L43.31718,7.4436 C42.25218,8.4523 42.01838,10.0599 42.75178,11.3303 L47.47818,19.5166 C48.21168,20.7869 49.72078,21.3882 51.12688,20.9703 L51.76278,20.7813 C50.57428,15.3783 47.73708,10.5935 43.80538,6.98114 Z M35.71028,43.4306 C37.14378,42.5988 38.48118,41.5788 39.68158,40.3815 C40.90948,39.16 41.95268,37.7949 42.79968,36.3299 C43.66158,34.8454 44.33368,33.2371 44.78288,31.5381 C45.22228,29.8843 45.43558,28.2 45.4339889,26.5271 C45.43548,24.847 45.22018,23.1553 44.77658,21.4945 C44.33098,19.8171 43.66778,18.2283 42.81928,16.7601 C41.96808,15.2808 40.91698,13.9029 39.67818,12.671 C38.46148,11.4581 37.10428,10.4273 35.64878,9.5898 C34.21338,8.7603 32.66268,8.108 31.02658,7.6628 C29.31788,7.1956 27.57528,6.97056 25.84528,6.97530421 C24.14968,6.97692 22.44268,7.1993 20.76788,7.6542 C19.14008,8.0942 17.59648,8.7391 16.16648,9.5596 C14.67028,10.4143 13.27698,11.4729 12.03248,12.7231 C10.80968,13.9483 9.77158,15.3163 8.92988,16.7837 C8.10058,18.2232 7.44948,19.7782 7.00648,21.4186 C6.54988,23.101 6.32793,24.8159 6.3287207,26.5189 C6.32635,28.2188 6.54588,29.9307 6.99918,31.6105 C7.44758,33.2805 8.11158,34.8621 8.95958,36.3238 C9.79448,37.7692 10.82038,39.1173 12.02608,40.3265 C13.25078,41.5578 14.61978,42.6036 16.08928,43.452 C17.57848,44.3155 19.19218,44.9881 20.89688,45.4363 C22.53348,45.8687 24.19968,46.0799 25.85488,46.08065 C27.53518,46.0844 29.22728,45.8715 30.88868,45.4303 C32.59898,44.9784 34.21748,44.3006 35.71028,43.4306 Z M12.66058,6.70731 C13.08968,7.4506 14.04008,7.7052 14.78338,7.2761 C15.52658,6.84699 15.78128,5.89657 15.35218,5.1533 C14.92308,4.41002 13.97258,4.15536 13.22938,4.58449 C12.48608,5.01362 12.23138,5.96404 12.66058,6.70731 Z M36.41058,47.8436 C36.83968,48.5869 37.79008,48.8415 38.53338,48.4124 C39.27668,47.9833 39.53128,47.0328 39.10218,46.2896 C38.67308,45.5463 37.72268,45.2916 36.97938,45.7208 C36.23608,46.1499 35.98148,47.1003 36.41058,47.8436 Z M2.13133,28.0525 C2.98959,28.0525 3.68534,27.3567 3.68534,26.4984 C3.68534,25.6402 2.98959,24.9444 2.13133,24.9444 C1.27307,24.9444 0.57732,25.6402 0.57732,26.4984 C0.57732,27.3567 1.27307,28.0525 2.13133,28.0525 Z M49.63138,28.0525 C50.48968,28.0525 51.18538,27.3567 51.18538,26.4984 C51.18538,25.6402 50.48968,24.9444 49.63138,24.9444 C48.77318,24.9444 48.07738,25.6402 48.07738,26.4984 C48.07738,27.3567 48.77318,28.0525 49.63138,28.0525 Z M36.97938,7.2761 C36.23608,6.84699 35.98148,5.89657 36.41058,5.1533 C36.83968,4.41002 37.79008,4.15536 38.53338,4.58449 C39.27668,5.01362 39.53138,5.96404 39.10218,6.70731 C38.67308,7.4506 37.72268,7.7052 36.97938,7.2761 Z M13.22938,48.4124 C12.48608,47.9833 12.23138,47.0328 12.66058,46.2896 C13.08968,45.5463 14.04008,45.2916 14.78338,45.7208 C15.52658,46.1499 15.78128,47.1003 15.35218,47.8436 C14.92308,48.5869 13.97258,48.8415 13.22938,48.4124 Z" id="Shape" fill="#F6D892" style="mix-blend-mode: soft-light;"></path>
            </g>
            <path d="M26.5,53 C41.1355,53 53,41.1355 53,26.5 C53,11.8645 41.1355,0 26.5,0 C11.8645,0 0,11.8645 0,26.5 C0,41.1355 11.8645,53 26.5,53 Z" id="Path" fill="url(#linearGradient-3)" fill-rule="nonzero" style="mix-blend-mode: soft-light;"></path>
            <g id="Group" transform="translate(8.000000, 8.000000)" fill-rule="nonzero">
                <path d="M18.5,37 C28.7173,37 37,28.7173 37,18.5 C37,8.2827 28.7173,0 18.5,0 C8.2827,0 0,8.2827 0,18.5 C0,28.7173 8.2827,37 18.5,37 Z" id="Path" fill="url(#linearGradient-1)"></path>
                <path d="M18.5,37 C28.7173,37 37,28.7173 37,18.5 C37,8.2827 28.7173,0 18.5,0 C8.2827,0 0,8.2827 0,18.5 C0,28.7173 8.2827,37 18.5,37 Z" id="Path" fill="#D8D8D8" style="mix-blend-mode: darken;"></path>
            </g>
            <g id="Group" transform="translate(12.440300, 45.037200)" fill-rule="nonzero">
                <path d="M4.2174,2.0695 L3.2048,0.2948 L3.2017,0.2948 L1.1637,0.2845 L1.1611,0.2845 L0.1331,2.0443 L0.1303,2.0492 L1.1427,3.8235 C1.1431,3.8243 3.1868,3.8347 3.1868,3.8347 L3.1874,3.8336 L4.2176,2.0699 L4.2173,2.0694 L4.2174,2.0695 Z" id="Path" fill="#19D9E6"></path>
                <polygon id="Path" fill="url(#linearGradient-4)" style="mix-blend-mode: screen;" points="2.174 2.0589 1.1637 0.287 1.1611 0.287 0.1331 2.0468 2.1737 2.0594"></polygon>
                <polygon id="Path" fill="url(#linearGradient-5)" opacity="0.7" style="mix-blend-mode: screen;" points="2.174 2.0589 1.1637 0.287 1.1611 0.287 0.1331 2.0468 2.1737 2.0594"></polygon>
                <path d="M2.1743,2.0595 C2.1737,2.0595 0.1331,2.0469 0.1331,2.0469 L0.1303,2.0518 L1.1427,3.8262 L2.1752,2.0611 L2.1744,2.0596 L2.1743,2.0595 Z" id="Path" fill="url(#linearGradient-6)" opacity="0.3" style="mix-blend-mode: screen;"></path>
                <g opacity="0.5" style="mix-blend-mode: multiply;" transform="translate(1.142600, 2.060900)" fill="#330066" id="Path">
                    <path d="M1.0326,0 L-3.55271368e-15,1.7651 C0.0005,1.7659 2.0731,1.7952 2.0731,1.7952 L1.0326,0 Z"></path>
                </g>
                <polygon id="Path" fill="url(#linearGradient-7)" opacity="0.4" style="mix-blend-mode: screen;" points="3.2017 0.2974 1.1637 0.287 2.174 2.0589"></polygon>
                <g opacity="0.6" style="mix-blend-mode: multiply;" transform="translate(2.174000, 0.297400)" fill="#330066" id="Path">
                    <path d="M1.0307,-7.10542736e-15 L1.0277,-7.10542736e-15 L0,1.7615 C0.0003,1.762 2.0434,1.7746 2.0434,1.7746 L1.0307,-7.10542736e-15 Z"></path>
                </g>
                <g opacity="0.3" style="mix-blend-mode: multiply;" transform="translate(2.174200, 2.059500)" fill="#330066" id="Path">
                    <polygon points="0 0 1.0132 1.7766 2.0433 0.0131"></polygon>
                </g>
                <path d="M1.9828,3.7905 L0.6532,2.9276 C0.5944,2.8895 0.5604,2.8228 0.564,2.7527 L0.6465,1.1698 C0.6501,1.0997 0.6909,1.0369 0.7534,1.005 L2.1654,0.285 C2.2279,0.2531 2.3027,0.2571 2.3616,0.2952 L3.6912,1.1581 C3.7501,1.1963 3.784,1.2629 3.7804,1.3331 L3.6979,2.916 C3.6943,2.986 3.6535,3.0488 3.591,3.0807 L2.179,3.8007 C2.1165,3.8326 2.0417,3.8287 1.9828,3.7905 Z" id="Path" fill="url(#linearGradient-8)" opacity="0.3" style="mix-blend-mode: overlay;"></path>
                <path d="M2.1865,3.8242 C2.1665,3.7228 2.1329,3.6225 2.0844,3.526 C1.9768,3.3113 1.8112,3.1441 1.6146,3.0318 C1.5278,3.1742 1.4259,3.3078 1.3291,3.4443 C1.2676,3.5708 1.2082,3.699 1.1347,3.8189 L2.1864,3.8242 L2.1865,3.8242 Z" id="Path" fill="url(#radialGradient-9)" opacity="0.8" style="mix-blend-mode: color-dodge;"></path>
                <polygon id="Path" fill="url(#linearGradient-10)" opacity="0.5" points="1.1329 0.2254 2.1318 1.8953 3.4078 0 2.2811 1.9783 4.4166 2.0695 2.284 2.1491 3.3778 4.1335 2.1374 2.237 0.9703 4.148 1.988 2.154 0 2.0547 1.9852 1.9832"></polygon>
                <polygon id="Path" fill="url(#linearGradient-11)" points="1.5761 3.0827 0.9874 2.0511 1.5866 1.0255 2.7743 1.0315 3.3629 2.0633 2.7638 3.0889"></polygon>
                <polygon id="Path" fill="url(#linearGradient-12)" style="mix-blend-mode: screen;" points="2.6546 1.031 1.5866 1.0255 0.9874 2.0511 1.2172 2.4539"></polygon>
                <polygon id="Path" fill="url(#linearGradient-13)" opacity="0.7" style="mix-blend-mode: screen;" points="2.1395 3.0855 2.7638 3.0888 3.3629 2.0632 3.2941 1.9426"></polygon>
                <polygon id="Path" fill="url(#linearGradient-14)" style="mix-blend-mode: screen;" points="3.1906 1.7992 2.7982 1.0734 1.2846 2.5718 1.4459 2.8545"></polygon>
                <path d="M1.6446,0.8443 L1.8006,0.7895 L1.6897,0.9011 C1.6518,0.9544 1.6379,1.0212 1.6516,1.0852 L1.7089,1.2317 L1.5875,1.1195 C1.5388,1.088 1.48,1.0758 1.4228,1.0853 L1.2668,1.1401 L1.3777,1.0285 C1.4156,0.9752 1.4295,0.9084 1.4158,0.8444 L1.3585,0.6979 L1.4799,0.8101 C1.5286,0.8416 1.5874,0.8538 1.6446,0.8443 Z" id="Path" fill="#FFFFFF"></path>
                <path d="M2.9815,2.9375 C2.9808,3.077 2.867,3.1896 2.7275,3.1888 C2.588,3.1882 2.4754,3.0744 2.4762,2.9349 C2.4768,2.7953 2.5906,2.6828 2.7301,2.6835 C2.8696,2.6843 2.9822,2.798 2.9815,2.9375 Z" id="Path" fill="url(#radialGradient-15)" style="mix-blend-mode: screen;"></path>
                <path d="M2.8269,2.7863 L2.9418,2.7791 L2.8465,2.8329 C2.8109,2.8614 2.789,2.9035 2.786,2.949 L2.7967,3.058 L2.7367,2.9598 C2.71,2.9295 2.673,2.9102 2.6329,2.9057 L2.518,2.9129 L2.6134,2.8591 C2.6489,2.8306 2.6708,2.7885 2.6738,2.743 L2.6631,2.6341 L2.7231,2.7322 C2.7498,2.7626 2.7868,2.7819 2.8269,2.7863 Z" id="Path" fill="#FFFFFF" opacity="0.6"></path>
            </g>
            <g id="Group" transform="translate(12.440300, 3.814940)" fill-rule="nonzero">
                <path d="M4.2174,2.06952 L3.2048,0.29485 L3.2017,0.29485 L1.1637,0.28449 L1.1611,0.28449 L0.1331,2.04432 L0.1303,2.04923 L1.1427,3.82356 C1.1431,3.82436 3.1868,3.83466 3.1868,3.83466 L3.1874,3.83366 L4.2176,2.06996 L4.2173,2.06941 L4.2174,2.06952 Z" id="Path" fill="#19D9E6"></path>
                <polygon id="Path" fill="url(#linearGradient-16)" style="mix-blend-mode: screen;" points="2.174 2.05892 1.1637 0.28708 1.1611 0.28708 0.1331 2.04681 2.1737 2.05946"></polygon>
                <polygon id="Path" fill="url(#linearGradient-17)" opacity="0.7" style="mix-blend-mode: screen;" points="2.174 2.05892 1.1637 0.28708 1.1611 0.28708 0.1331 2.04681 2.1737 2.05946"></polygon>
                <path d="M2.1743,2.05951 C2.1737,2.05951 0.1331,2.04697 0.1331,2.04697 L0.1303,2.05188 L1.1427,3.82626 L2.1752,2.06115 L2.1744,2.05962 L2.1743,2.05951 Z" id="Path" fill="url(#linearGradient-18)" opacity="0.3" style="mix-blend-mode: screen;"></path>
                <g opacity="0.5" style="mix-blend-mode: multiply;" transform="translate(1.142600, 2.060980)" fill="#330066" id="Path">
                    <path d="M1.0326,0 L-3.55271368e-15,1.76508 C0.0005,1.76588 2.0731,1.79518 2.0731,1.79518 L1.0326,0 Z"></path>
                </g>
                <polygon id="Path" fill="url(#linearGradient-19)" opacity="0.4" style="mix-blend-mode: screen;" points="3.2017 0.29744 1.1637 0.28708 2.174 2.05892"></polygon>
                <g opacity="0.6" style="mix-blend-mode: multiply;" transform="translate(2.174000, 0.297430)" fill="#330066" id="Path">
                    <path d="M1.0307,0 L1.0277,0 L0,1.76147 C0.0003,1.76202 2.0434,1.77456 2.0434,1.77456 L1.0307,0 Z"></path>
                </g>
                <g opacity="0.3" style="mix-blend-mode: multiply;" transform="translate(2.174200, 2.059510)" fill="#330066" id="Path">
                    <polygon points="0 0 1.0132 1.77665 2.0433 0.01309"></polygon>
                </g>
                <path d="M1.9828,3.79056 L0.6532,2.92766 C0.5944,2.88948 0.5604,2.82283 0.564,2.75269 L0.6465,1.16979 C0.6501,1.09976 0.6909,1.03693 0.7534,1.00507 L2.1654,0.28502 C2.2279,0.25316 2.3027,0.25709 2.3616,0.29527 L3.6912,1.15812 C3.7501,1.1963 3.784,1.26295 3.7804,1.33309 L3.6979,2.91599 C3.6943,2.98602 3.6535,3.04886 3.591,3.08071 L2.179,3.80076 C2.1165,3.83266 2.0417,3.82866 1.9828,3.79056 Z" id="Path" fill="url(#linearGradient-20)" opacity="0.3" style="mix-blend-mode: overlay;"></path>
                <path d="M2.1865,3.82426 C2.1665,3.72276 2.1329,3.62256 2.0844,3.52596 C1.9768,3.31136 1.8112,3.14411 1.6146,3.03186 C1.5278,3.17422 1.4259,3.30786 1.3291,3.44426 C1.2676,3.57086 1.2082,3.69906 1.1347,3.81886 L2.1864,3.82426 L2.1865,3.82426 Z" id="Path" fill="url(#radialGradient-9)" opacity="0.8" style="mix-blend-mode: color-dodge;"></path>
                <polygon id="Path" fill="url(#linearGradient-21)" opacity="0.5" points="1.1329 0.22548 2.1318 1.89532 3.4078 0 2.2811 1.97833 4.4166 2.06953 2.284 2.14916 3.3778 4.13346 2.1374 2.23708 0.9703 4.14796 1.988 2.15407 0 2.05469 1.9852 1.98324"></polygon>
                <polygon id="Path" fill="url(#linearGradient-22)" points="1.5761 3.08277 0.9874 2.05117 1.5866 1.02558 2.7743 1.03157 3.3629 2.06328 2.7638 3.08888"></polygon>
                <polygon id="Path" fill="url(#linearGradient-23)" style="mix-blend-mode: screen;" points="2.6546 1.03103 1.5866 1.02558 0.9874 2.05117 1.2172 2.45391"></polygon>
                <polygon id="Path" fill="url(#linearGradient-24)" opacity="0.7" style="mix-blend-mode: screen;" points="2.1395 3.08552 2.7638 3.0888 3.3629 2.0632 3.2941 1.94266"></polygon>
                <polygon id="Path" fill="url(#linearGradient-25)" style="mix-blend-mode: screen;" points="3.1906 1.79927 2.7982 1.07343 1.2846 2.57179 1.4459 2.85454"></polygon>
                <path d="M1.6446,0.8443 L1.8006,0.78954 L1.6897,0.90113 C1.6518,0.95447 1.6379,1.02123 1.6516,1.08526 L1.7089,1.23176 L1.5875,1.11951 C1.5388,1.08799 1.48,1.07588 1.4228,1.08537 L1.2668,1.14013 L1.3777,1.02854 C1.4156,0.9752 1.4295,0.90844 1.4158,0.84441 L1.3585,0.69791 L1.4799,0.81015 C1.5286,0.84168 1.5874,0.85379 1.6446,0.8443 Z" id="Path" fill="#FFFFFF"></path>
                <path d="M2.9815,2.93751 C2.9808,3.07703 2.867,3.18956 2.7275,3.18886 C2.588,3.18816 2.4754,3.07441 2.4762,2.9349 C2.4768,2.79538 2.5906,2.6828 2.7301,2.68357 C2.8696,2.68433 2.9822,2.798 2.9815,2.93751 Z" id="Path" fill="url(#radialGradient-26)" style="mix-blend-mode: screen;"></path>
                <path d="M2.8269,2.78638 L2.9418,2.77918 L2.8465,2.83295 C2.8109,2.86143 2.789,2.90353 2.786,2.94902 L2.7967,3.05799 L2.7367,2.95982 C2.71,2.92949 2.673,2.91018 2.6329,2.90571 L2.518,2.91291 L2.6134,2.85913 C2.6489,2.83066 2.6708,2.78856 2.6738,2.74307 L2.6631,2.6341 L2.7231,2.73227 C2.7498,2.7626 2.7868,2.7819 2.8269,2.78638 Z" id="Path" fill="#FFFFFF" opacity="0.6"></path>
            </g>
            <g id="Group" transform="translate(0.588870, 24.426100)" fill-rule="nonzero">
                <path d="M4.21737,2.0695 L3.20475,0.2948 L3.2017,0.2948 L1.1637,0.2844 L1.16108,0.2844 L0.13308,2.0443 L0.13025,2.0492 L1.14265,3.8235 C1.14308,3.8243 3.18675,3.8347 3.18675,3.8347 L3.18741,3.8336 L4.21759,2.0699 L4.21726,2.0694 L4.21737,2.0695 Z" id="Path" fill="#19D9E6"></path>
                <polygon id="Path" fill="url(#linearGradient-27)" style="mix-blend-mode: screen;" points="2.17406 2.0589 1.16373 0.287 1.16111 0.287 0.13311 2.0468 2.17373 2.0594"></polygon>
                <polygon id="Path" fill="url(#linearGradient-28)" opacity="0.7" style="mix-blend-mode: screen;" points="2.17406 2.0589 1.16373 0.287 1.16111 0.287 0.13311 2.0468 2.17373 2.0594"></polygon>
                <path d="M2.17425,2.0595 C2.1737,2.0595 0.13308,2.0469 0.13308,2.0469 L0.13025,2.0518 L1.14265,3.8262 L2.17523,2.0611 L2.17436,2.0596 L2.17425,2.0595 Z" id="Path" fill="url(#linearGradient-29)" opacity="0.3" style="mix-blend-mode: screen;"></path>
                <g opacity="0.5" style="mix-blend-mode: multiply;" transform="translate(1.142640, 2.060900)" fill="#330066" id="Path">
                    <path d="M1.03258,0 L0,1.7651 C0.00043,1.7659 2.07312,1.7952 2.07312,1.7952 L1.03258,0 Z"></path>
                </g>
                <polygon id="Path" fill="url(#linearGradient-30)" opacity="0.4" style="mix-blend-mode: screen;" points="3.20172 0.2974 1.16372 0.287 2.17405 2.0589"></polygon>
                <g opacity="0.6" style="mix-blend-mode: multiply;" transform="translate(2.174040, 0.297400)" fill="#330066" id="Path">
                    <path d="M1.03073,0 L1.02767,0 L0,1.7615 C0.00033,1.762 2.04334,1.7745 2.04334,1.7745 L1.03073,0 Z"></path>
                </g>
                <g opacity="0.3" style="mix-blend-mode: multiply;" transform="translate(2.174250, 2.059500)" fill="#330066" id="Path">
                    <polygon points="0 3.55271368e-15 1.01317 1.7766 2.04335 0.0131"></polygon>
                </g>
                <path d="M1.98282,3.7905 L0.65321,2.9276 C0.59441,2.8894 0.56038,2.8228 0.56398,2.7526 L0.64644,1.1697 C0.65004,1.0997 0.69084,1.0369 0.75335,1.005 L2.16543,0.285 C2.22793,0.2531 2.30265,0.257 2.36156,0.2952 L3.69117,1.1581 C3.75008,1.1963 3.784,1.2629 3.7804,1.333 L3.69794,2.9159 C3.69434,2.986 3.65354,3.0488 3.59103,3.0807 L2.17895,3.8007 C2.11645,3.8326 2.04173,3.8286 1.98282,3.7905 Z" id="Path" fill="url(#linearGradient-31)" opacity="0.3" style="mix-blend-mode: overlay;"></path>
                <path d="M2.18654,3.8242 C2.16647,3.7227 2.13287,3.6225 2.08444,3.526 C1.97678,3.3113 1.81119,3.1441 1.61462,3.0318 C1.52779,3.1742 1.42591,3.3078 1.32915,3.4443 C1.26763,3.5708 1.20818,3.699 1.13476,3.8189 L2.18643,3.8242 L2.18654,3.8242 Z" id="Path" fill="url(#radialGradient-32)" opacity="0.8" style="mix-blend-mode: color-dodge;"></path>
                <polygon id="Path" fill="url(#linearGradient-33)" opacity="0.5" points="1.13293 0.2254 2.13181 1.8953 3.40786 -3.55271368e-15 2.28114 1.9783 4.41666 2.0695 2.28398 2.1491 3.37787 4.1334 2.13737 2.237 0.97029 4.148 1.98804 2.154 0 2.0546 1.9852 1.9832"></polygon>
                <polygon id="Path" fill="url(#linearGradient-34)" points="1.57615 3.0827 0.98742 2.0511 1.58662 1.0255 2.77431 1.0315 3.36293 2.0632 2.76384 3.0888"></polygon>
                <polygon id="Path" fill="url(#linearGradient-35)" style="mix-blend-mode: screen;" points="2.65465 1.031 1.58662 1.0255 0.98742 2.0511 1.21726 2.4539"></polygon>
                <polygon id="Path" fill="url(#linearGradient-36)" opacity="0.7" style="mix-blend-mode: screen;" points="2.13952 3.0855 2.76381 3.0887 3.36289 2.0632 3.29417 1.9426"></polygon>
                <polygon id="Path" fill="url(#linearGradient-37)" style="mix-blend-mode: screen;" points="3.19058 1.7992 2.79821 1.0734 1.28457 2.5717 1.44591 2.8545"></polygon>
                <path d="M1.64463,0.8443 L1.80062,0.7895 L1.68979,0.9011 C1.65183,0.9544 1.63797,1.0212 1.65161,1.0852 L1.70899,1.2317 L1.58758,1.1195 C1.53882,1.0879 1.48002,1.0758 1.42286,1.0853 L1.26687,1.1401 L1.3777,1.0285 C1.41566,0.9752 1.42952,0.9084 1.41588,0.8444 L1.3585,0.6979 L1.47991,0.8101 C1.52867,0.8416 1.58747,0.8537 1.64463,0.8443 Z" id="Path" fill="#FFFFFF"></path>
                <path d="M2.9815,2.9375 C2.98085,3.077 2.86707,3.1896 2.72756,3.1888 C2.58804,3.1881 2.47546,3.0744 2.47623,2.9349 C2.47688,2.7953 2.59066,2.6828 2.73017,2.6835 C2.86969,2.6843 2.98226,2.798 2.9815,2.9375 Z" id="Path" fill="url(#radialGradient-38)" style="mix-blend-mode: screen;"></path>
                <path d="M2.82699,2.7863 L2.94185,2.7791 L2.84651,2.8329 C2.81095,2.8614 2.78903,2.9035 2.78608,2.949 L2.79677,3.0579 L2.73678,2.9598 C2.71005,2.9294 2.67307,2.9101 2.63293,2.9057 L2.51806,2.9129 L2.6134,2.8591 C2.64896,2.8306 2.67089,2.7885 2.67383,2.743 L2.66314,2.6341 L2.72314,2.7322 C2.74987,2.7626 2.78684,2.7819 2.82699,2.7863 Z" id="Path" fill="#FFFFFF" opacity="0.6"></path>
            </g>
            <g id="Group" transform="translate(48.068000, 24.426100)" fill-rule="nonzero">
                <path d="M4.2174,2.0695 L3.2048,0.2948 L3.2018,0.2948 L1.1638,0.2844 L1.1611,0.2844 L0.1331,2.0443 L0.1303,2.0492 L1.1427,3.8235 C1.1431,3.8243 3.1868,3.8347 3.1868,3.8347 L3.1875,3.8336 L4.2176,2.0699 L4.2173,2.0694 L4.2174,2.0695 Z" id="Path" fill="#19D9E6"></path>
                <polygon id="Path" fill="url(#linearGradient-39)" style="mix-blend-mode: screen;" points="2.1741 2.0589 1.1638 0.287 1.1611 0.287 0.1331 2.0468 2.1738 2.0594"></polygon>
                <polygon id="Path" fill="url(#linearGradient-40)" opacity="0.7" style="mix-blend-mode: screen;" points="2.1741 2.0589 1.1638 0.287 1.1611 0.287 0.1331 2.0468 2.1738 2.0594"></polygon>
                <path d="M2.1743,2.0595 C2.1738,2.0595 0.1331,2.0469 0.1331,2.0469 L0.1303,2.0518 L1.1427,3.8262 L2.1753,2.0611 L2.1744,2.0596 L2.1743,2.0595 Z" id="Path" fill="url(#linearGradient-41)" opacity="0.3" style="mix-blend-mode: screen;"></path>
                <g opacity="0.5" style="mix-blend-mode: multiply;" transform="translate(1.142700, 2.060900)" fill="#330066" id="Path">
                    <path d="M1.0326,0 L0,1.7651 C0.0004,1.7659 2.0731,1.7952 2.0731,1.7952 L1.0326,0 Z"></path>
                </g>
                <polygon id="Path" fill="url(#linearGradient-42)" opacity="0.4" style="mix-blend-mode: screen;" points="3.2018 0.2974 1.1638 0.287 2.1741 2.0589"></polygon>
                <g opacity="0.6" style="mix-blend-mode: multiply;" transform="translate(2.174100, 0.297400)" fill="#330066" id="Path">
                    <path d="M1.0307,0 L1.0276,0 L0,1.7615 C0.0003,1.762 2.0433,1.7745 2.0433,1.7745 L1.0307,0 Z"></path>
                </g>
                <g opacity="0.3" style="mix-blend-mode: multiply;" transform="translate(2.174300, 2.059500)" fill="#330066" id="Path">
                    <polygon points="0 3.55271368e-15 1.0131 1.7766 2.0433 0.0131"></polygon>
                </g>
                <path d="M1.9829,3.7905 L0.6533,2.9276 C0.5945,2.8894 0.5604,2.8228 0.564,2.7526 L0.6465,1.1697 C0.6501,1.0997 0.6909,1.0369 0.7534,1.005 L2.1655,0.285 C2.228,0.2531 2.3027,0.257 2.3616,0.2952 L3.6912,1.1581 C3.7501,1.1963 3.7841,1.2629 3.7805,1.333 L3.698,2.9159 C3.6944,2.986 3.6536,3.0488 3.5911,3.0807 L2.179,3.8007 C2.1165,3.8326 2.0418,3.8286 1.9829,3.7905 Z" id="Path" fill="url(#linearGradient-43)" opacity="0.3" style="mix-blend-mode: overlay;"></path>
                <path d="M2.1866,3.8242 C2.1665,3.7227 2.1329,3.6225 2.0845,3.526 C1.9768,3.3113 1.8112,3.1441 1.6147,3.0318 C1.5278,3.1742 1.426,3.3078 1.3292,3.4443 C1.2677,3.5708 1.2082,3.699 1.1348,3.8189 L2.1865,3.8242 L2.1866,3.8242 Z" id="Path" fill="url(#radialGradient-9)" opacity="0.8" style="mix-blend-mode: color-dodge;"></path>
                <polygon id="Path" fill="url(#linearGradient-44)" opacity="0.5" points="1.133 0.2254 2.1318 1.8953 3.4079 -3.55271368e-15 2.2812 1.9783 4.4167 2.0695 2.284 2.1491 3.3779 4.1334 2.1374 2.237 0.9703 4.148 1.9881 2.154 0 2.0546 1.9852 1.9832"></polygon>
                <polygon id="Path" fill="url(#linearGradient-45)" points="1.5762 3.0827 0.9875 2.0511 1.5867 1.0255 2.7744 1.0315 3.363 2.0632 2.7639 3.0888"></polygon>
                <polygon id="Path" fill="url(#linearGradient-46)" style="mix-blend-mode: screen;" points="2.6547 1.031 1.5867 1.0255 0.9875 2.0511 1.2173 2.4539"></polygon>
                <polygon id="Path" fill="url(#linearGradient-47)" opacity="0.7" style="mix-blend-mode: screen;" points="2.1396 3.0855 2.7638 3.0887 3.3629 2.0632 3.2942 1.9426"></polygon>
                <polygon id="Path" fill="url(#linearGradient-48)" style="mix-blend-mode: screen;" points="3.1906 1.7992 2.7982 1.0734 1.2846 2.5717 1.4459 2.8545"></polygon>
                <path d="M1.6447,0.8443 L1.8006,0.7895 L1.6898,0.9011 C1.6519,0.9544 1.638,1.0212 1.6516,1.0852 L1.709,1.2317 L1.5876,1.1195 C1.5388,1.0879 1.48,1.0758 1.4229,1.0853 L1.2669,1.1401 L1.3777,1.0285 C1.4157,0.9752 1.4295,0.9084 1.4159,0.8444 L1.3585,0.6979 L1.4799,0.8101 C1.5287,0.8416 1.5875,0.8537 1.6447,0.8443 Z" id="Path" fill="#FFFFFF"></path>
                <path d="M2.9815,2.9375 C2.9809,3.077 2.8671,3.1896 2.7276,3.1888 C2.5881,3.1881 2.4755,3.0744 2.4763,2.9349 C2.4769,2.7953 2.5907,2.6828 2.7302,2.6835 C2.8697,2.6843 2.9823,2.798 2.9815,2.9375 Z" id="Path" fill="url(#radialGradient-49)" style="mix-blend-mode: screen;"></path>
                <path d="M2.827,2.7863 L2.9419,2.7791 L2.8465,2.8329 C2.811,2.8614 2.7891,2.9035 2.7861,2.949 L2.7968,3.0579 L2.7368,2.9598 C2.7101,2.9294 2.6731,2.9101 2.633,2.9057 L2.5181,2.9129 L2.6134,2.8591 C2.649,2.8306 2.6709,2.7885 2.6739,2.743 L2.6632,2.6341 L2.7232,2.7322 C2.7499,2.7626 2.7869,2.7819 2.827,2.7863 Z" id="Path" fill="#FFFFFF" opacity="0.6"></path>
            </g>
            <g id="Group" transform="translate(36.216600, 45.037200)" fill-rule="nonzero">
                <path d="M4.2174,2.0695 L3.2048,0.2948 L3.2017,0.2948 L1.1637,0.2845 L1.1611,0.2845 L0.1331,2.0443 L0.1303,2.0492 L1.1427,3.8235 C1.1431,3.8243 3.1868,3.8347 3.1868,3.8347 L3.1875,3.8336 L4.2176,2.0699 L4.2173,2.0694 L4.2174,2.0695 Z" id="Path" fill="#19D9E6"></path>
                <polygon id="Path" fill="url(#linearGradient-39)" style="mix-blend-mode: screen;" points="2.1741 2.0589 1.1637 0.287 1.1611 0.287 0.1331 2.0468 2.1737 2.0594"></polygon>
                <polygon id="Path" fill="url(#linearGradient-50)" opacity="0.7" style="mix-blend-mode: screen;" points="2.1741 2.0589 1.1637 0.287 1.1611 0.287 0.1331 2.0468 2.1737 2.0594"></polygon>
                <path d="M2.1743,2.0595 C2.1737,2.0595 0.1331,2.0469 0.1331,2.0469 L0.1303,2.0518 L1.1427,3.8262 L2.1753,2.0611 L2.1744,2.0596 L2.1743,2.0595 Z" id="Path" fill="url(#linearGradient-51)" opacity="0.3" style="mix-blend-mode: screen;"></path>
                <g opacity="0.5" style="mix-blend-mode: multiply;" transform="translate(1.142700, 2.060900)" fill="#330066" id="Path">
                    <path d="M1.0325,0 L7.10542736e-15,1.7651 C0.0004,1.7659 2.0731,1.7952 2.0731,1.7952 L1.0325,0 Z"></path>
                </g>
                <polygon id="Path" fill="url(#linearGradient-42)" opacity="0.4" style="mix-blend-mode: screen;" points="3.2018 0.2974 1.1638 0.287 2.1741 2.0589"></polygon>
                <g opacity="0.6" style="mix-blend-mode: multiply;" transform="translate(2.174000, 0.297400)" fill="#330066" id="Path">
                    <path d="M1.0308,-7.10542736e-15 L1.0277,-7.10542736e-15 L-7.10542736e-15,1.7615 C0.0004,1.762 2.0434,1.7746 2.0434,1.7746 L1.0308,-7.10542736e-15 Z"></path>
                </g>
                <g opacity="0.3" style="mix-blend-mode: multiply;" transform="translate(2.174200, 2.059500)" fill="#330066" id="Path">
                    <polygon points="0 0 1.0132 1.7766 2.0434 0.0131"></polygon>
                </g>
                <path d="M1.9829,3.7905 L0.6533,2.9276 C0.5945,2.8895 0.5604,2.8228 0.564,2.7527 L0.6465,1.1698 C0.6501,1.0997 0.6909,1.0369 0.7534,1.005 L2.1655,0.285 C2.228,0.2531 2.3027,0.2571 2.3616,0.2952 L3.6912,1.1581 C3.7501,1.1963 3.784,1.2629 3.7804,1.3331 L3.698,2.916 C3.6944,2.986 3.6536,3.0488 3.5911,3.0807 L2.179,3.8007 C2.1165,3.8326 2.0418,3.8287 1.9829,3.7905 Z" id="Path" fill="url(#linearGradient-52)" opacity="0.3" style="mix-blend-mode: overlay;"></path>
                <path d="M2.1866,3.8242 C2.1665,3.7228 2.1329,3.6225 2.0845,3.526 C1.9768,3.3113 1.8112,3.1441 1.6146,3.0318 C1.5278,3.1742 1.4259,3.3078 1.3292,3.4443 C1.2676,3.5708 1.2082,3.699 1.1348,3.8189 L2.1864,3.8242 L2.1866,3.8242 Z" id="Path" fill="url(#radialGradient-9)" opacity="0.8" style="mix-blend-mode: color-dodge;"></path>
                <polygon id="Path" fill="url(#linearGradient-53)" opacity="0.5" points="1.133 0.2254 2.1319 1.8953 3.4079 0 2.2812 1.9783 4.4167 2.0695 2.284 2.1491 3.3779 4.1335 2.1374 2.237 0.9703 4.148 1.9881 2.154 0 2.0547 1.9852 1.9832"></polygon>
                <polygon id="Path" fill="url(#linearGradient-11)" points="1.5762 3.0827 0.9875 2.0511 1.5867 1.0255 2.7744 1.0315 3.363 2.0633 2.7639 3.0889"></polygon>
                <polygon id="Path" fill="url(#linearGradient-12)" style="mix-blend-mode: screen;" points="2.6547 1.031 1.5867 1.0255 0.9875 2.0511 1.2173 2.4539"></polygon>
                <polygon id="Path" fill="url(#linearGradient-13)" opacity="0.7" style="mix-blend-mode: screen;" points="2.1395 3.0855 2.7638 3.0888 3.3629 2.0632 3.2942 1.9426"></polygon>
                <polygon id="Path" fill="url(#linearGradient-54)" style="mix-blend-mode: screen;" points="3.1906 1.7992 2.7982 1.0734 1.2846 2.5718 1.4459 2.8545"></polygon>
                <path d="M1.6446,0.8443 L1.8006,0.7895 L1.6898,0.9011 C1.6518,0.9544 1.638,1.0212 1.6516,1.0852 L1.709,1.2317 L1.5876,1.1195 C1.5388,1.088 1.48,1.0758 1.4228,1.0853 L1.2669,1.1401 L1.3777,1.0285 C1.4156,0.9752 1.4295,0.9084 1.4159,0.8444 L1.3585,0.6979 L1.4799,0.8101 C1.5287,0.8416 1.5875,0.8538 1.6446,0.8443 Z" id="Path" fill="#FFFFFF"></path>
                <path d="M2.9815,2.9375 C2.9809,3.077 2.8671,3.1896 2.7276,3.1888 C2.5881,3.1882 2.4755,3.0744 2.4762,2.9349 C2.4769,2.7953 2.5907,2.6828 2.7302,2.6835 C2.8697,2.6843 2.9823,2.798 2.9815,2.9375 Z" id="Path" fill="url(#radialGradient-55)" style="mix-blend-mode: screen;"></path>
                <path d="M2.827,2.7863 L2.9419,2.7791 L2.8465,2.8329 C2.811,2.8614 2.789,2.9035 2.7861,2.949 L2.7968,3.058 L2.7368,2.9598 C2.7101,2.9295 2.6731,2.9102 2.6329,2.9057 L2.5181,2.9129 L2.6134,2.8591 C2.649,2.8306 2.6709,2.7885 2.6739,2.743 L2.6632,2.6341 L2.7232,2.7322 C2.7499,2.7626 2.7869,2.7819 2.827,2.7863 Z" id="Path" fill="#FFFFFF" opacity="0.6"></path>
            </g>
            <g id="Group" transform="translate(36.216600, 3.814940)" fill-rule="nonzero">
                <path d="M4.2174,2.06952 L3.2048,0.29485 L3.2017,0.29485 L1.1637,0.28449 L1.1611,0.28449 L0.1331,2.04432 L0.1303,2.04923 L1.1427,3.82356 C1.1431,3.82436 3.1868,3.83466 3.1868,3.83466 L3.1875,3.83366 L4.2176,2.06996 L4.2173,2.06941 L4.2174,2.06952 Z" id="Path" fill="#19D9E6"></path>
                <polygon id="Path" fill="url(#linearGradient-56)" style="mix-blend-mode: screen;" points="2.1741 2.05892 1.1637 0.28708 1.1611 0.28708 0.1331 2.04681 2.1737 2.05946"></polygon>
                <polygon id="Path" fill="url(#linearGradient-57)" opacity="0.7" style="mix-blend-mode: screen;" points="2.1741 2.05892 1.1637 0.28708 1.1611 0.28708 0.1331 2.04681 2.1737 2.05946"></polygon>
                <path d="M2.1743,2.05951 C2.1737,2.05951 0.1331,2.04697 0.1331,2.04697 L0.1303,2.05188 L1.1427,3.82626 L2.1753,2.06115 L2.1744,2.05962 L2.1743,2.05951 Z" id="Path" fill="url(#linearGradient-58)" opacity="0.3" style="mix-blend-mode: screen;"></path>
                <g opacity="0.5" style="mix-blend-mode: multiply;" transform="translate(1.142700, 2.060980)" fill="#330066" id="Path">
                    <path d="M1.0325,0 L7.10542736e-15,1.76508 C0.0004,1.76588 2.0731,1.79518 2.0731,1.79518 L1.0325,0 Z"></path>
                </g>
                <polygon id="Path" fill="url(#linearGradient-59)" opacity="0.4" style="mix-blend-mode: screen;" points="3.2018 0.29744 1.1638 0.28708 2.1741 2.05892"></polygon>
                <g opacity="0.6" style="mix-blend-mode: multiply;" transform="translate(2.174000, 0.297430)" fill="#330066" id="Path">
                    <path d="M1.0308,0 L1.0277,0 L-7.10542736e-15,1.76147 C0.0004,1.76202 2.0434,1.77456 2.0434,1.77456 L1.0308,0 Z"></path>
                </g>
                <g opacity="0.3" style="mix-blend-mode: multiply;" transform="translate(2.174200, 2.059510)" fill="#330066" id="Path">
                    <polygon points="0 0 1.0132 1.77665 2.0434 0.01309"></polygon>
                </g>
                <path d="M1.9829,3.79056 L0.6533,2.92766 C0.5945,2.88948 0.5604,2.82283 0.564,2.75269 L0.6465,1.16979 C0.6501,1.09976 0.6909,1.03693 0.7534,1.00507 L2.1655,0.28502 C2.228,0.25316 2.3027,0.25709 2.3616,0.29527 L3.6912,1.15812 C3.7501,1.1963 3.784,1.26295 3.7804,1.33309 L3.698,2.91599 C3.6944,2.98602 3.6536,3.04886 3.5911,3.08071 L2.179,3.80076 C2.1165,3.83266 2.0418,3.82866 1.9829,3.79056 Z" id="Path" fill="url(#linearGradient-60)" opacity="0.3" style="mix-blend-mode: overlay;"></path>
                <path d="M2.1866,3.82426 C2.1665,3.72276 2.1329,3.62256 2.0845,3.52596 C1.9768,3.31136 1.8112,3.14411 1.6146,3.03186 C1.5278,3.17422 1.4259,3.30786 1.3292,3.44426 C1.2676,3.57086 1.2082,3.69906 1.1348,3.81886 L2.1864,3.82426 L2.1866,3.82426 Z" id="Path" fill="url(#radialGradient-9)" opacity="0.8" style="mix-blend-mode: color-dodge;"></path>
                <polygon id="Path" fill="url(#linearGradient-61)" opacity="0.5" points="1.133 0.22548 2.1319 1.89532 3.4079 0 2.2812 1.97833 4.4167 2.06953 2.284 2.14916 3.3779 4.13346 2.1374 2.23708 0.9703 4.14796 1.9881 2.15407 0 2.05469 1.9852 1.98324"></polygon>
                <polygon id="Path" fill="url(#linearGradient-22)" points="1.5762 3.08277 0.9875 2.05117 1.5867 1.02558 2.7744 1.03157 3.363 2.06328 2.7639 3.08888"></polygon>
                <polygon id="Path" fill="url(#linearGradient-23)" style="mix-blend-mode: screen;" points="2.6547 1.03103 1.5867 1.02558 0.9875 2.05117 1.2173 2.45391"></polygon>
                <polygon id="Path" fill="url(#linearGradient-24)" opacity="0.7" style="mix-blend-mode: screen;" points="2.1395 3.08552 2.7638 3.0888 3.3629 2.0632 3.2942 1.94266"></polygon>
                <polygon id="Path" fill="url(#linearGradient-62)" style="mix-blend-mode: screen;" points="3.1906 1.79927 2.7982 1.07343 1.2846 2.57179 1.4459 2.85454"></polygon>
                <path d="M1.6446,0.8443 L1.8006,0.78954 L1.6898,0.90113 C1.6518,0.95447 1.638,1.02123 1.6516,1.08526 L1.709,1.23176 L1.5876,1.11951 C1.5388,1.08799 1.48,1.07588 1.4228,1.08537 L1.2669,1.14013 L1.3777,1.02854 C1.4156,0.9752 1.4295,0.90844 1.4159,0.84441 L1.3585,0.69791 L1.4799,0.81015 C1.5287,0.84168 1.5875,0.85379 1.6446,0.8443 Z" id="Path" fill="#FFFFFF"></path>
                <path d="M2.9815,2.93751 C2.9809,3.07703 2.8671,3.18956 2.7276,3.18886 C2.5881,3.18816 2.4755,3.07441 2.4762,2.9349 C2.4769,2.79538 2.5907,2.6828 2.7302,2.68357 C2.8697,2.68433 2.9823,2.798 2.9815,2.93751 Z" id="Path" fill="url(#radialGradient-63)" style="mix-blend-mode: screen;"></path>
                <path d="M2.827,2.78638 L2.9419,2.77918 L2.8465,2.83295 C2.811,2.86143 2.789,2.90353 2.7861,2.94902 L2.7968,3.05799 L2.7368,2.95982 C2.7101,2.92949 2.6731,2.91018 2.6329,2.90571 L2.5181,2.91291 L2.6134,2.85913 C2.649,2.83066 2.6709,2.78856 2.6739,2.74307 L2.6632,2.6341 L2.7232,2.73227 C2.7499,2.7626 2.7869,2.7819 2.827,2.78638 Z" id="Path" fill="#FFFFFF" opacity="0.6"></path>
            </g>
        </g>
    </g>
</svg>