<svg xmlns="http://www.w3.org/2000/svg" width="175" height="50" viewBox="0 0 175 50">
    <g fill="none" fill-rule="evenodd">
        <g fill="#FFF">
            <g>
                <g>
                    <path fill-rule="nonzero" d="M61.316 29.759h-8.745c-1.459 0-2.187-.734-2.186-2.2V13.251h3.28V26.45h7.651V29.76zm2.186-16.507V29.76h3.28V13.252h-3.28zm8.745 0h-3.279l4.81 16.5h4.582l4.808-16.5h-3.28L76.07 26.36l-3.824-13.108zm18.584 9.905l1.093-3.3h-4.372V16.56h7.656v-3.307h-8.75c-1.46 0-2.188.733-2.186 2.2V27.55c0 1.469.729 2.202 2.186 2.201h8.75v-3.293h-7.656v-3.301h3.279zM110.508 22.06c0-1.464-.733-2.201-2.188-2.201h-4.36l-1.092 3.298h4.36v3.3h-6.558v-9.905h9.844v-3.3H99.576c-1.458 0-2.186.733-2.185 2.2V27.55c0 1.469.728 2.202 2.185 2.201h8.746c1.455 0 2.187-.732 2.187-2.2V22.06h-.001zm2.185 7.699v-14.31c0-1.465.729-2.197 2.186-2.197h8.746c1.455 0 2.185.732 2.185 2.196v14.31h-3.278v-4.41h-6.56v4.41h-3.279zm9.844-13.21h-6.565v5.5h6.56v-5.5h.005zm16.408.01v13.2h-3.285v-13.2h-4.383v13.2h-3.278v-14.3c0-1.464.729-2.197 2.187-2.2h14.21c1.456 0 2.183.734 2.183 2.2v14.3h-3.276l-.01-13.2h-4.348zm16.378 6.598l1.094-3.3h-4.373V16.56h7.652v-3.307h-8.746c-1.459 0-2.187.733-2.185 2.2V27.55c0 1.469.728 2.202 2.185 2.201h8.746v-3.293h-7.652v-3.301h3.28zM175 13.252h-10.931c-1.458 0-2.187.736-2.186 2.207v5.5c0 1.46.729 2.19 2.186 2.189h7.652v3.299l-9.844.01v3.29h10.931c1.455 0 2.187-.733 2.187-2.201v-5.497c0-1.457-.732-2.189-2.187-2.189h-7.652V16.55h8.757L175 13.252zM51.406 32.158h3.812v.823h-2.913v1.405h2.58v.824h-2.58v2.097h-.9v-5.15h.001zm10.152 5.229c-.306.004-.61-.044-.9-.144-.259-.09-.494-.236-.688-.43-.196-.202-.345-.444-.438-.71-.108-.316-.16-.65-.154-.983v-2.962h.9v2.928c0 .48.114.846.343 1.095.248.258.595.394.95.375.351.018.693-.112.943-.36.23-.241.343-.599.343-1.075v-2.963h.899v2.915c.007.343-.045.684-.154 1.008-.094.27-.244.518-.442.724-.194.196-.43.344-.69.433-.293.1-.6.149-.91.144l-.002.005zm7.964-4.39h-1.623v-.84h4.153v.84H70.43v4.31h-.907v-4.31zm8.842 4.398c-.305.004-.61-.045-.9-.144-.258-.09-.493-.237-.687-.43-.196-.202-.346-.444-.438-.71-.108-.317-.16-.65-.154-.983v-2.97h.898v2.928c0 .48.115.846.343 1.095.248.258.595.394.95.375.352.019.694-.112.944-.36.23-.241.344-.599.344-1.075v-2.963h.898v2.915c.008.343-.044.684-.153 1.008-.094.27-.245.518-.443.724-.194.196-.43.344-.691.433-.293.1-.601.149-.91.144v.013zm8.921-2.678c.276.015.548-.067.77-.232.19-.152.296-.386.286-.63v-.02c.015-.245-.089-.482-.279-.636-.229-.158-.504-.234-.781-.216h-1.31v1.728l1.314.006zm-2.214-2.552h2.28c.291-.005.58.041.856.137.23.08.439.21.615.379.134.142.238.31.308.493.075.198.112.408.109.62v.015c.003.194-.028.386-.09.57-.058.163-.144.315-.253.448-.11.131-.24.243-.385.331-.154.093-.32.163-.493.21l1.384 1.948h-1.054l-1.256-1.795h-1.126v1.795h-.9v-5.158l.005.007zm8.55 0h3.794v.81h-2.899V34.3h2.566v.809h-2.566v1.382h2.932v.81h-3.832v-5.143l.005.007zm12.812 4.406c.24.003.479-.046.698-.143.206-.092.392-.225.545-.39.154-.169.274-.364.355-.578.086-.225.13-.464.128-.705v-.016c.001-.242-.042-.482-.128-.709-.08-.215-.202-.413-.358-.582-.157-.166-.344-.3-.552-.393-.447-.194-.953-.194-1.4 0-.206.092-.391.224-.544.39-.154.168-.275.364-.356.578-.086.225-.129.464-.127.705v.016c-.002.242.042.483.127.71.081.215.203.412.359.58.156.167.344.301.552.395.22.1.46.15.701.147v-.005zm-.014.832c-.369.004-.735-.067-1.076-.21-.631-.265-1.13-.774-1.385-1.412-.132-.326-.2-.675-.198-1.026v-.016c-.002-.352.066-.7.198-1.026.129-.316.317-.603.556-.845.51-.516 1.207-.801 1.93-.79.37-.004.736.067 1.077.21.314.132.6.325.84.57.234.242.42.527.547.841.133.326.2.674.198 1.026v.016c.002.351-.065.7-.198 1.026-.128.316-.317.604-.555.846-.514.515-1.215.797-1.94.782l.006.008zm5.499-5.238h3.808v.824h-2.914v1.405h2.58v.823h-2.58v2.097h-.9v-5.156l.006.007zm10.305 0h.9v5.15h-.906v-5.157l.006.007zm7.952 5.23c-.372.005-.742-.064-1.089-.203-.63-.252-1.128-.757-1.373-1.393-.13-.334-.194-.69-.191-1.048v-.015c-.001-.35.064-.698.194-1.023.253-.643.751-1.157 1.384-1.427.336-.144.698-.217 1.063-.213.206-.002.412.014.615.048.173.029.343.075.508.136.154.058.302.13.443.216.138.088.27.186.393.294l-.569.684c-.095-.082-.195-.158-.3-.229-.1-.067-.209-.125-.321-.171-.12-.05-.243-.086-.37-.11-.144-.026-.292-.037-.439-.034-.227 0-.451.053-.655.154-.2.096-.378.23-.526.394-.151.169-.27.364-.351.577-.086.222-.129.46-.128.698v.015c-.002.25.04.5.125.735.077.216.198.414.355.58.155.164.342.294.548.383.225.096.468.143.712.14.234-.001.467-.04.689-.117.198-.064.385-.16.552-.283v-.964h-1.309v-.788h2.18v2.167c-.134.112-.274.216-.422.31-.329.21-.694.355-1.076.43-.212.042-.427.064-.643.063l.001-.006zm9.669-2.134l-.885-2.06-.876 2.06h1.76zm-1.288-3.14h.834l2.252 5.186h-.95l-.52-1.239h-2.419l-.526 1.239h-.922l2.251-5.186zm7.23.037h.958l1.556 2.434 1.557-2.434h.958v5.149h-.9v-3.693l-1.615 2.427h-.028l-1.6-2.413v3.677h-.884v-5.147h-.003zm9.66 0h.9v5.149h-.9v-5.15zm5.537 0h.825l2.74 3.56v-3.56h.885v5.149h-.754l-2.822-3.664v3.664h-.884v-5.15h.01zm11.462 5.237c-.372.005-.742-.064-1.089-.203-.63-.252-1.128-.756-1.373-1.393-.13-.334-.195-.69-.191-1.048v-.015c-.002-.35.064-.698.194-1.023.252-.643.75-1.158 1.384-1.427.336-.144.698-.217 1.063-.213.206-.002.412.014.615.048.173.029.343.075.508.136.154.058.302.13.443.216.143.09.278.189.406.3l-.57.683c-.097-.082-.2-.159-.307-.229-.101-.068-.209-.125-.321-.172-.12-.048-.243-.085-.37-.11-.145-.028-.293-.041-.441-.04-.227 0-.451.054-.655.155-.2.095-.378.229-.526.393-.152.169-.27.365-.35.577-.086.223-.13.46-.129.698v.016c-.002.25.04.5.125.735.077.216.198.414.355.58.155.163.342.293.548.382.225.096.468.144.712.14.232.002.464-.035.684-.107.198-.064.385-.16.553-.283v-.964h-1.31v-.788h2.17v2.166c-.132.113-.273.217-.42.31-.33.21-.695.356-1.077.43-.208.038-.42.054-.63.05z" transform="translate(-633 -63) translate(132 60) translate(501 3)"/>
                    <path d="M0 22.087L0 24.613 0 31.042 0 37.316 2.587 38.819 10.934 43.667 16.468 46.883 19.546 48.671 19.546 42.397 13.388 38.819 7.987 35.683 6.126 34.601 6.126 26.87 6.126 25.645 6.126 23.12 6.126 16.846 0 13.288 0 19.562zM28.027 31.11L28.027 28.724 43.736 19.599 43.736 13.326 28.027 22.451 21.899 26.011 21.899 32.283 21.899 34.668 21.899 40.943 21.899 43.726 21.899 50 27.267 46.883 28.027 46.441 32.8 43.667 32.818 43.658 35.781 41.937 41.179 38.8 43.736 37.316 43.736 31.042 43.736 28.259 43.736 24.613 43.736 21.985 37.608 25.543 32.818 28.327 32.818 34.6 37.608 31.817 37.608 34.601 35.781 35.663 32.818 37.384 30.38 38.8 28.027 40.168 28.027 37.384zM15.96 10.199c-1.064-.62-1.064-1.62 0-2.238 1.065-.618 2.79-.62 3.855 0 1.065.619 1.063 1.619 0 2.24-1.063.62-2.79.618-3.853 0l-.001-.002zm6.725 12.862L40.49 12.717l1.635-.95-9.69-5.63L21.87 0 11.303 6.133l-9.69 5.63 1.637.95 17.803 10.345.819.473.818-.473-.005.003zM25.93 6.645c-1.063.62-2.79.62-3.845 0-1.055-.619-1.064-1.62 0-2.237 1.064-.618 2.792-.62 3.854 0 1.063.619 1.065 1.618 0 2.237h-.009zm4.76 5.004c-1.064-.62-1.065-1.619 0-2.238 1.063-.62 2.79-.62 3.854 0 1.062.619 1.064 1.62 0 2.24-1.065.618-2.79.618-3.846 0l-.009-.002zm-20.845-.136c1.064-.62 2.791-.62 3.854 0 1.063.619 1.065 1.622 0 2.239-1.064.618-2.788.62-3.845 0-1.057-.619-1.064-1.62 0-2.238l-.01-.001zm8.613 5.001c1.065-.619 2.792-.619 3.855 0 1.062.62 1.062 1.62 0 2.24-1.063.62-2.79.619-3.853 0-1.063-.62-1.065-1.62 0-2.24h-.002zm6.116-3.559c1.064-.619 2.791-.619 3.856 0 1.064.619 1.062 1.622 0 2.24-1.063.617-2.79.618-3.855 0-1.064-.62-1.067-1.615-.003-2.232l.002-.008z" transform="translate(-633 -63) translate(132 60) translate(501 3)"/>
                </g>
            </g>
        </g>
    </g>
</svg>
