<?xml version="1.0" encoding="UTF-8"?>
<svg xmlns="http://www.w3.org/2000/svg" xmlns:xlink="http://www.w3.org/1999/xlink" width="30px" height="15px" viewBox="0 0 30 15" version="1.1">
<g id="surface1">
<rect x="0" y="0" width="30" height="15" style="fill:rgb(11.764706%,70.980392%,22.745098%);fill-opacity:1;stroke:none;"/>
<path style=" stroke:none;fill-rule:nonzero;fill:rgb(0%,60%,70.980392%);fill-opacity:1;" d="M 0 0 L 30 0 L 30 7.5 L 0 7.5 Z M 0 0 "/>
<path style=" stroke:none;fill-rule:nonzero;fill:rgb(80.784314%,6.666667%,14.901961%);fill-opacity:1;" d="M 0 4.800781 L 30 4.800781 L 30 10.199219 L 0 10.199219 Z M 0 4.800781 "/>
<path style=" stroke:none;fill-rule:nonzero;fill:rgb(100%,100%,100%);fill-opacity:1;" d="M 0 5.101562 L 30 5.101562 L 30 9.898438 L 0 9.898438 Z M 0 5.101562 "/>
<path style=" stroke:none;fill-rule:nonzero;fill:rgb(100%,100%,100%);fill-opacity:1;" d="M 6 2.398438 C 6 3.394531 5.195312 4.199219 4.199219 4.199219 C 3.207031 4.199219 2.398438 3.394531 2.398438 2.398438 C 2.398438 1.40625 3.207031 0.601562 4.199219 0.601562 C 5.195312 0.601562 6 1.40625 6 2.398438 Z M 6 2.398438 "/>
<path style=" stroke:none;fill-rule:nonzero;fill:rgb(0%,60%,70.980392%);fill-opacity:1;" d="M 6.601562 2.398438 C 6.601562 3.394531 5.792969 4.199219 4.800781 4.199219 C 3.804688 4.199219 3 3.394531 3 2.398438 C 3 1.40625 3.804688 0.601562 4.800781 0.601562 C 5.792969 0.601562 6.601562 1.40625 6.601562 2.398438 Z M 6.601562 2.398438 "/>
<path style=" stroke:none;fill-rule:nonzero;fill:rgb(100%,100%,100%);fill-opacity:1;" d="M 8.160156 3.480469 L 8.046875 3.824219 L 8.21875 3.878906 "/>
<path style=" stroke:none;fill-rule:nonzero;fill:rgb(100%,100%,100%);fill-opacity:1;" d="M 8.160156 3.480469 L 8.269531 3.824219 L 8.101562 3.878906 "/>
<path style=" stroke:none;fill-rule:nonzero;fill:rgb(100%,100%,100%);fill-opacity:1;" d="M 8.503906 3.730469 L 8.140625 3.730469 L 8.140625 3.910156 "/>
<path style=" stroke:none;fill-rule:nonzero;fill:rgb(100%,100%,100%);fill-opacity:1;" d="M 8.503906 3.730469 L 8.210938 3.941406 L 8.105469 3.792969 "/>
<path style=" stroke:none;fill-rule:nonzero;fill:rgb(100%,100%,100%);fill-opacity:1;" d="M 7.816406 3.730469 L 8.109375 3.941406 L 8.214844 3.792969 "/>
<path style=" stroke:none;fill-rule:nonzero;fill:rgb(100%,100%,100%);fill-opacity:1;" d="M 7.816406 3.730469 L 8.175781 3.730469 L 8.175781 3.910156 "/>
<path style=" stroke:none;fill-rule:nonzero;fill:rgb(100%,100%,100%);fill-opacity:1;" d="M 8.371094 4.132812 L 8.261719 3.789062 L 8.089844 3.84375 "/>
<path style=" stroke:none;fill-rule:nonzero;fill:rgb(100%,100%,100%);fill-opacity:1;" d="M 8.371094 4.132812 L 8.082031 3.917969 L 8.1875 3.773438 "/>
<path style=" stroke:none;fill-rule:nonzero;fill:rgb(100%,100%,100%);fill-opacity:1;" d="M 7.949219 4.132812 L 8.238281 3.917969 L 8.132812 3.773438 "/>
<path style=" stroke:none;fill-rule:nonzero;fill:rgb(100%,100%,100%);fill-opacity:1;" d="M 7.949219 4.132812 L 8.058594 3.789062 L 8.230469 3.84375 "/>
<path style=" stroke:none;fill-rule:nonzero;fill:rgb(100%,100%,100%);fill-opacity:1;" d="M 8.160156 2.039062 L 8.046875 2.382812 L 8.21875 2.4375 "/>
<path style=" stroke:none;fill-rule:nonzero;fill:rgb(100%,100%,100%);fill-opacity:1;" d="M 8.160156 2.039062 L 8.269531 2.382812 L 8.101562 2.4375 "/>
<path style=" stroke:none;fill-rule:nonzero;fill:rgb(100%,100%,100%);fill-opacity:1;" d="M 8.503906 2.289062 L 8.140625 2.289062 L 8.140625 2.46875 "/>
<path style=" stroke:none;fill-rule:nonzero;fill:rgb(100%,100%,100%);fill-opacity:1;" d="M 8.503906 2.289062 L 8.210938 2.5 L 8.105469 2.355469 "/>
<path style=" stroke:none;fill-rule:nonzero;fill:rgb(100%,100%,100%);fill-opacity:1;" d="M 7.816406 2.289062 L 8.109375 2.5 L 8.214844 2.355469 "/>
<path style=" stroke:none;fill-rule:nonzero;fill:rgb(100%,100%,100%);fill-opacity:1;" d="M 7.816406 2.289062 L 8.175781 2.289062 L 8.175781 2.46875 "/>
<path style=" stroke:none;fill-rule:nonzero;fill:rgb(100%,100%,100%);fill-opacity:1;" d="M 8.371094 2.691406 L 8.261719 2.347656 L 8.089844 2.40625 "/>
<path style=" stroke:none;fill-rule:nonzero;fill:rgb(100%,100%,100%);fill-opacity:1;" d="M 8.371094 2.691406 L 8.082031 2.480469 L 8.1875 2.335938 "/>
<path style=" stroke:none;fill-rule:nonzero;fill:rgb(100%,100%,100%);fill-opacity:1;" d="M 7.949219 2.691406 L 8.238281 2.480469 L 8.132812 2.335938 "/>
<path style=" stroke:none;fill-rule:nonzero;fill:rgb(100%,100%,100%);fill-opacity:1;" d="M 7.949219 2.691406 L 8.058594 2.347656 L 8.230469 2.40625 "/>
<path style=" stroke:none;fill-rule:nonzero;fill:rgb(100%,100%,100%);fill-opacity:1;" d="M 8.160156 0.601562 L 8.046875 0.941406 L 8.21875 0.996094 "/>
<path style=" stroke:none;fill-rule:nonzero;fill:rgb(100%,100%,100%);fill-opacity:1;" d="M 8.160156 0.601562 L 8.269531 0.941406 L 8.101562 0.996094 "/>
<path style=" stroke:none;fill-rule:nonzero;fill:rgb(100%,100%,100%);fill-opacity:1;" d="M 8.503906 0.847656 L 8.140625 0.847656 L 8.140625 1.027344 "/>
<path style=" stroke:none;fill-rule:nonzero;fill:rgb(100%,100%,100%);fill-opacity:1;" d="M 8.503906 0.847656 L 8.210938 1.058594 L 8.105469 0.914062 "/>
<path style=" stroke:none;fill-rule:nonzero;fill:rgb(100%,100%,100%);fill-opacity:1;" d="M 7.816406 0.847656 L 8.109375 1.058594 L 8.214844 0.914062 "/>
<path style=" stroke:none;fill-rule:nonzero;fill:rgb(100%,100%,100%);fill-opacity:1;" d="M 7.816406 0.847656 L 8.175781 0.847656 L 8.175781 1.027344 "/>
<path style=" stroke:none;fill-rule:nonzero;fill:rgb(100%,100%,100%);fill-opacity:1;" d="M 8.371094 1.25 L 8.261719 0.910156 L 8.089844 0.964844 "/>
<path style=" stroke:none;fill-rule:nonzero;fill:rgb(100%,100%,100%);fill-opacity:1;" d="M 8.371094 1.25 L 8.082031 1.039062 L 8.1875 0.894531 "/>
<path style=" stroke:none;fill-rule:nonzero;fill:rgb(100%,100%,100%);fill-opacity:1;" d="M 7.949219 1.25 L 8.238281 1.039062 L 8.132812 0.894531 "/>
<path style=" stroke:none;fill-rule:nonzero;fill:rgb(100%,100%,100%);fill-opacity:1;" d="M 7.949219 1.25 L 8.058594 0.910156 L 8.230469 0.964844 "/>
<path style=" stroke:none;fill-rule:nonzero;fill:rgb(100%,100%,100%);fill-opacity:1;" d="M 9.601562 3.480469 L 9.488281 3.824219 L 9.660156 3.878906 "/>
<path style=" stroke:none;fill-rule:nonzero;fill:rgb(100%,100%,100%);fill-opacity:1;" d="M 9.601562 3.480469 L 9.710938 3.824219 L 9.539062 3.878906 "/>
<path style=" stroke:none;fill-rule:nonzero;fill:rgb(100%,100%,100%);fill-opacity:1;" d="M 9.941406 3.730469 L 9.582031 3.730469 L 9.582031 3.910156 "/>
<path style=" stroke:none;fill-rule:nonzero;fill:rgb(100%,100%,100%);fill-opacity:1;" d="M 9.941406 3.730469 L 9.652344 3.941406 L 9.546875 3.792969 "/>
<path style=" stroke:none;fill-rule:nonzero;fill:rgb(100%,100%,100%);fill-opacity:1;" d="M 9.257812 3.730469 L 9.550781 3.941406 L 9.65625 3.792969 "/>
<path style=" stroke:none;fill-rule:nonzero;fill:rgb(100%,100%,100%);fill-opacity:1;" d="M 9.257812 3.730469 L 9.617188 3.730469 L 9.617188 3.910156 "/>
<path style=" stroke:none;fill-rule:nonzero;fill:rgb(100%,100%,100%);fill-opacity:1;" d="M 9.8125 4.132812 L 9.699219 3.789062 L 9.527344 3.84375 "/>
<path style=" stroke:none;fill-rule:nonzero;fill:rgb(100%,100%,100%);fill-opacity:1;" d="M 9.8125 4.132812 L 9.519531 3.917969 L 9.625 3.773438 "/>
<path style=" stroke:none;fill-rule:nonzero;fill:rgb(100%,100%,100%);fill-opacity:1;" d="M 9.386719 4.132812 L 9.679688 3.917969 L 9.574219 3.773438 "/>
<path style=" stroke:none;fill-rule:nonzero;fill:rgb(100%,100%,100%);fill-opacity:1;" d="M 9.386719 4.132812 L 9.5 3.789062 L 9.671875 3.84375 "/>
<path style=" stroke:none;fill-rule:nonzero;fill:rgb(100%,100%,100%);fill-opacity:1;" d="M 9.601562 2.039062 L 9.488281 2.382812 L 9.660156 2.4375 "/>
<path style=" stroke:none;fill-rule:nonzero;fill:rgb(100%,100%,100%);fill-opacity:1;" d="M 9.601562 2.039062 L 9.710938 2.382812 L 9.539062 2.4375 "/>
<path style=" stroke:none;fill-rule:nonzero;fill:rgb(100%,100%,100%);fill-opacity:1;" d="M 9.941406 2.289062 L 9.582031 2.289062 L 9.582031 2.46875 "/>
<path style=" stroke:none;fill-rule:nonzero;fill:rgb(100%,100%,100%);fill-opacity:1;" d="M 9.941406 2.289062 L 9.652344 2.5 L 9.546875 2.355469 "/>
<path style=" stroke:none;fill-rule:nonzero;fill:rgb(100%,100%,100%);fill-opacity:1;" d="M 9.257812 2.289062 L 9.550781 2.5 L 9.65625 2.355469 "/>
<path style=" stroke:none;fill-rule:nonzero;fill:rgb(100%,100%,100%);fill-opacity:1;" d="M 9.257812 2.289062 L 9.617188 2.289062 L 9.617188 2.46875 "/>
<path style=" stroke:none;fill-rule:nonzero;fill:rgb(100%,100%,100%);fill-opacity:1;" d="M 9.8125 2.691406 L 9.699219 2.347656 L 9.527344 2.40625 "/>
<path style=" stroke:none;fill-rule:nonzero;fill:rgb(100%,100%,100%);fill-opacity:1;" d="M 9.8125 2.691406 L 9.519531 2.480469 L 9.625 2.335938 "/>
<path style=" stroke:none;fill-rule:nonzero;fill:rgb(100%,100%,100%);fill-opacity:1;" d="M 9.386719 2.691406 L 9.679688 2.480469 L 9.574219 2.335938 "/>
<path style=" stroke:none;fill-rule:nonzero;fill:rgb(100%,100%,100%);fill-opacity:1;" d="M 9.386719 2.691406 L 9.5 2.347656 L 9.671875 2.40625 "/>
<path style=" stroke:none;fill-rule:nonzero;fill:rgb(100%,100%,100%);fill-opacity:1;" d="M 9.601562 0.601562 L 9.488281 0.941406 L 9.660156 0.996094 "/>
<path style=" stroke:none;fill-rule:nonzero;fill:rgb(100%,100%,100%);fill-opacity:1;" d="M 9.601562 0.601562 L 9.710938 0.941406 L 9.539062 0.996094 "/>
<path style=" stroke:none;fill-rule:nonzero;fill:rgb(100%,100%,100%);fill-opacity:1;" d="M 9.941406 0.847656 L 9.582031 0.847656 L 9.582031 1.027344 "/>
<path style=" stroke:none;fill-rule:nonzero;fill:rgb(100%,100%,100%);fill-opacity:1;" d="M 9.941406 0.847656 L 9.652344 1.058594 L 9.546875 0.914062 "/>
<path style=" stroke:none;fill-rule:nonzero;fill:rgb(100%,100%,100%);fill-opacity:1;" d="M 9.257812 0.847656 L 9.550781 1.058594 L 9.65625 0.914062 "/>
<path style=" stroke:none;fill-rule:nonzero;fill:rgb(100%,100%,100%);fill-opacity:1;" d="M 9.257812 0.847656 L 9.617188 0.847656 L 9.617188 1.027344 "/>
<path style=" stroke:none;fill-rule:nonzero;fill:rgb(100%,100%,100%);fill-opacity:1;" d="M 9.8125 1.25 L 9.699219 0.910156 L 9.527344 0.964844 "/>
<path style=" stroke:none;fill-rule:nonzero;fill:rgb(100%,100%,100%);fill-opacity:1;" d="M 9.8125 1.25 L 9.519531 1.039062 L 9.625 0.894531 "/>
<path style=" stroke:none;fill-rule:nonzero;fill:rgb(100%,100%,100%);fill-opacity:1;" d="M 9.386719 1.25 L 9.679688 1.039062 L 9.574219 0.894531 "/>
<path style=" stroke:none;fill-rule:nonzero;fill:rgb(100%,100%,100%);fill-opacity:1;" d="M 9.386719 1.25 L 9.5 0.910156 L 9.671875 0.964844 "/>
<path style=" stroke:none;fill-rule:nonzero;fill:rgb(100%,100%,100%);fill-opacity:1;" d="M 11.039062 3.480469 L 10.929688 3.824219 L 11.101562 3.878906 "/>
<path style=" stroke:none;fill-rule:nonzero;fill:rgb(100%,100%,100%);fill-opacity:1;" d="M 11.039062 3.480469 L 11.152344 3.824219 L 10.980469 3.878906 "/>
<path style=" stroke:none;fill-rule:nonzero;fill:rgb(100%,100%,100%);fill-opacity:1;" d="M 11.382812 3.730469 L 11.023438 3.730469 L 11.023438 3.910156 "/>
<path style=" stroke:none;fill-rule:nonzero;fill:rgb(100%,100%,100%);fill-opacity:1;" d="M 11.382812 3.730469 L 11.089844 3.941406 L 10.984375 3.792969 "/>
<path style=" stroke:none;fill-rule:nonzero;fill:rgb(100%,100%,100%);fill-opacity:1;" d="M 10.699219 3.730469 L 10.988281 3.941406 L 11.09375 3.792969 "/>
<path style=" stroke:none;fill-rule:nonzero;fill:rgb(100%,100%,100%);fill-opacity:1;" d="M 10.699219 3.730469 L 11.058594 3.730469 L 11.058594 3.910156 "/>
<path style=" stroke:none;fill-rule:nonzero;fill:rgb(100%,100%,100%);fill-opacity:1;" d="M 11.25 4.132812 L 11.140625 3.789062 L 10.96875 3.84375 "/>
<path style=" stroke:none;fill-rule:nonzero;fill:rgb(100%,100%,100%);fill-opacity:1;" d="M 11.25 4.132812 L 10.960938 3.917969 L 11.066406 3.773438 "/>
<path style=" stroke:none;fill-rule:nonzero;fill:rgb(100%,100%,100%);fill-opacity:1;" d="M 10.828125 4.132812 L 11.121094 3.917969 L 11.015625 3.773438 "/>
<path style=" stroke:none;fill-rule:nonzero;fill:rgb(100%,100%,100%);fill-opacity:1;" d="M 10.828125 4.132812 L 10.941406 3.789062 L 11.109375 3.84375 "/>
<path style=" stroke:none;fill-rule:nonzero;fill:rgb(100%,100%,100%);fill-opacity:1;" d="M 11.039062 2.039062 L 10.929688 2.382812 L 11.101562 2.4375 "/>
<path style=" stroke:none;fill-rule:nonzero;fill:rgb(100%,100%,100%);fill-opacity:1;" d="M 11.039062 2.039062 L 11.152344 2.382812 L 10.980469 2.4375 "/>
<path style=" stroke:none;fill-rule:nonzero;fill:rgb(100%,100%,100%);fill-opacity:1;" d="M 11.382812 2.289062 L 11.023438 2.289062 L 11.023438 2.46875 "/>
<path style=" stroke:none;fill-rule:nonzero;fill:rgb(100%,100%,100%);fill-opacity:1;" d="M 11.382812 2.289062 L 11.089844 2.5 L 10.984375 2.355469 "/>
<path style=" stroke:none;fill-rule:nonzero;fill:rgb(100%,100%,100%);fill-opacity:1;" d="M 10.699219 2.289062 L 10.988281 2.5 L 11.09375 2.355469 "/>
<path style=" stroke:none;fill-rule:nonzero;fill:rgb(100%,100%,100%);fill-opacity:1;" d="M 10.699219 2.289062 L 11.058594 2.289062 L 11.058594 2.46875 "/>
<path style=" stroke:none;fill-rule:nonzero;fill:rgb(100%,100%,100%);fill-opacity:1;" d="M 11.25 2.691406 L 11.140625 2.347656 L 10.96875 2.40625 "/>
<path style=" stroke:none;fill-rule:nonzero;fill:rgb(100%,100%,100%);fill-opacity:1;" d="M 11.25 2.691406 L 10.960938 2.480469 L 11.066406 2.335938 "/>
<path style=" stroke:none;fill-rule:nonzero;fill:rgb(100%,100%,100%);fill-opacity:1;" d="M 10.828125 2.691406 L 11.121094 2.480469 L 11.015625 2.335938 "/>
<path style=" stroke:none;fill-rule:nonzero;fill:rgb(100%,100%,100%);fill-opacity:1;" d="M 10.828125 2.691406 L 10.941406 2.347656 L 11.109375 2.40625 "/>
<path style=" stroke:none;fill-rule:nonzero;fill:rgb(100%,100%,100%);fill-opacity:1;" d="M 11.039062 0.601562 L 10.929688 0.941406 L 11.101562 0.996094 "/>
<path style=" stroke:none;fill-rule:nonzero;fill:rgb(100%,100%,100%);fill-opacity:1;" d="M 11.039062 0.601562 L 11.152344 0.941406 L 10.980469 0.996094 "/>
<path style=" stroke:none;fill-rule:nonzero;fill:rgb(100%,100%,100%);fill-opacity:1;" d="M 11.382812 0.847656 L 11.023438 0.847656 L 11.023438 1.027344 "/>
<path style=" stroke:none;fill-rule:nonzero;fill:rgb(100%,100%,100%);fill-opacity:1;" d="M 11.382812 0.847656 L 11.089844 1.058594 L 10.984375 0.914062 "/>
<path style=" stroke:none;fill-rule:nonzero;fill:rgb(100%,100%,100%);fill-opacity:1;" d="M 10.699219 0.847656 L 10.988281 1.058594 L 11.09375 0.914062 "/>
<path style=" stroke:none;fill-rule:nonzero;fill:rgb(100%,100%,100%);fill-opacity:1;" d="M 10.699219 0.847656 L 11.058594 0.847656 L 11.058594 1.027344 "/>
<path style=" stroke:none;fill-rule:nonzero;fill:rgb(100%,100%,100%);fill-opacity:1;" d="M 11.25 1.25 L 11.140625 0.910156 L 10.96875 0.964844 "/>
<path style=" stroke:none;fill-rule:nonzero;fill:rgb(100%,100%,100%);fill-opacity:1;" d="M 11.25 1.25 L 10.960938 1.039062 L 11.066406 0.894531 "/>
<path style=" stroke:none;fill-rule:nonzero;fill:rgb(100%,100%,100%);fill-opacity:1;" d="M 10.828125 1.25 L 11.121094 1.039062 L 11.015625 0.894531 "/>
<path style=" stroke:none;fill-rule:nonzero;fill:rgb(100%,100%,100%);fill-opacity:1;" d="M 10.828125 1.25 L 10.941406 0.910156 L 11.109375 0.964844 "/>
<path style=" stroke:none;fill-rule:nonzero;fill:rgb(100%,100%,100%);fill-opacity:1;" d="M 5.28125 3.480469 L 5.167969 3.824219 L 5.339844 3.878906 "/>
<path style=" stroke:none;fill-rule:nonzero;fill:rgb(100%,100%,100%);fill-opacity:1;" d="M 5.28125 3.480469 L 5.390625 3.824219 L 5.21875 3.878906 "/>
<path style=" stroke:none;fill-rule:nonzero;fill:rgb(100%,100%,100%);fill-opacity:1;" d="M 5.621094 3.730469 L 5.261719 3.730469 L 5.261719 3.910156 "/>
<path style=" stroke:none;fill-rule:nonzero;fill:rgb(100%,100%,100%);fill-opacity:1;" d="M 5.621094 3.730469 L 5.332031 3.941406 L 5.226562 3.792969 "/>
<path style=" stroke:none;fill-rule:nonzero;fill:rgb(100%,100%,100%);fill-opacity:1;" d="M 4.9375 3.730469 L 5.230469 3.941406 L 5.335938 3.792969 "/>
<path style=" stroke:none;fill-rule:nonzero;fill:rgb(100%,100%,100%);fill-opacity:1;" d="M 4.9375 3.730469 L 5.296875 3.730469 L 5.296875 3.910156 "/>
<path style=" stroke:none;fill-rule:nonzero;fill:rgb(100%,100%,100%);fill-opacity:1;" d="M 5.492188 4.132812 L 5.378906 3.789062 L 5.210938 3.84375 "/>
<path style=" stroke:none;fill-rule:nonzero;fill:rgb(100%,100%,100%);fill-opacity:1;" d="M 5.492188 4.132812 L 5.199219 3.917969 L 5.304688 3.773438 "/>
<path style=" stroke:none;fill-rule:nonzero;fill:rgb(100%,100%,100%);fill-opacity:1;" d="M 5.070312 4.132812 L 5.359375 3.917969 L 5.253906 3.773438 "/>
<path style=" stroke:none;fill-rule:nonzero;fill:rgb(100%,100%,100%);fill-opacity:1;" d="M 5.070312 4.132812 L 5.179688 3.789062 L 5.351562 3.84375 "/>
<path style=" stroke:none;fill-rule:nonzero;fill:rgb(100%,100%,100%);fill-opacity:1;" d="M 6.71875 3.480469 L 6.609375 3.824219 L 6.78125 3.878906 "/>
<path style=" stroke:none;fill-rule:nonzero;fill:rgb(100%,100%,100%);fill-opacity:1;" d="M 6.71875 3.480469 L 6.832031 3.824219 L 6.660156 3.878906 "/>
<path style=" stroke:none;fill-rule:nonzero;fill:rgb(100%,100%,100%);fill-opacity:1;" d="M 7.0625 3.730469 L 6.703125 3.730469 L 6.703125 3.910156 "/>
<path style=" stroke:none;fill-rule:nonzero;fill:rgb(100%,100%,100%);fill-opacity:1;" d="M 7.0625 3.730469 L 6.769531 3.941406 L 6.664062 3.792969 "/>
<path style=" stroke:none;fill-rule:nonzero;fill:rgb(100%,100%,100%);fill-opacity:1;" d="M 6.378906 3.730469 L 6.667969 3.941406 L 6.773438 3.792969 "/>
<path style=" stroke:none;fill-rule:nonzero;fill:rgb(100%,100%,100%);fill-opacity:1;" d="M 6.378906 3.730469 L 6.738281 3.730469 L 6.738281 3.910156 "/>
<path style=" stroke:none;fill-rule:nonzero;fill:rgb(100%,100%,100%);fill-opacity:1;" d="M 6.929688 4.132812 L 6.820312 3.789062 L 6.648438 3.84375 "/>
<path style=" stroke:none;fill-rule:nonzero;fill:rgb(100%,100%,100%);fill-opacity:1;" d="M 6.929688 4.132812 L 6.640625 3.917969 L 6.746094 3.773438 "/>
<path style=" stroke:none;fill-rule:nonzero;fill:rgb(100%,100%,100%);fill-opacity:1;" d="M 6.507812 4.132812 L 6.800781 3.917969 L 6.695312 3.773438 "/>
<path style=" stroke:none;fill-rule:nonzero;fill:rgb(100%,100%,100%);fill-opacity:1;" d="M 6.507812 4.132812 L 6.621094 3.789062 L 6.789062 3.84375 "/>
<path style=" stroke:none;fill-rule:nonzero;fill:rgb(100%,100%,100%);fill-opacity:1;" d="M 6.71875 2.039062 L 6.609375 2.382812 L 6.78125 2.4375 "/>
<path style=" stroke:none;fill-rule:nonzero;fill:rgb(100%,100%,100%);fill-opacity:1;" d="M 6.71875 2.039062 L 6.832031 2.382812 L 6.660156 2.4375 "/>
<path style=" stroke:none;fill-rule:nonzero;fill:rgb(100%,100%,100%);fill-opacity:1;" d="M 7.0625 2.289062 L 6.703125 2.289062 L 6.703125 2.46875 "/>
<path style=" stroke:none;fill-rule:nonzero;fill:rgb(100%,100%,100%);fill-opacity:1;" d="M 7.0625 2.289062 L 6.769531 2.5 L 6.664062 2.355469 "/>
<path style=" stroke:none;fill-rule:nonzero;fill:rgb(100%,100%,100%);fill-opacity:1;" d="M 6.378906 2.289062 L 6.667969 2.5 L 6.773438 2.355469 "/>
<path style=" stroke:none;fill-rule:nonzero;fill:rgb(100%,100%,100%);fill-opacity:1;" d="M 6.378906 2.289062 L 6.738281 2.289062 L 6.738281 2.46875 "/>
<path style=" stroke:none;fill-rule:nonzero;fill:rgb(100%,100%,100%);fill-opacity:1;" d="M 6.929688 2.691406 L 6.820312 2.347656 L 6.648438 2.40625 "/>
<path style=" stroke:none;fill-rule:nonzero;fill:rgb(100%,100%,100%);fill-opacity:1;" d="M 6.929688 2.691406 L 6.640625 2.480469 L 6.746094 2.335938 "/>
<path style=" stroke:none;fill-rule:nonzero;fill:rgb(100%,100%,100%);fill-opacity:1;" d="M 6.507812 2.691406 L 6.800781 2.480469 L 6.695312 2.335938 "/>
<path style=" stroke:none;fill-rule:nonzero;fill:rgb(100%,100%,100%);fill-opacity:1;" d="M 6.507812 2.691406 L 6.621094 2.347656 L 6.789062 2.40625 "/>
</g>
</svg>
