<svg width="24px" height="24px" viewBox="0 0 24 24" version="1.1" xmlns="http://www.w3.org/2000/svg" xmlns:xlink="http://www.w3.org/1999/xlink">
    <defs>
        <linearGradient x1="50%" y1="132.336301%" x2="50%" y2="3.061617e-15%" id="icon-delete-vip-linearGradient-1">
            <stop stop-color="#635C4D" offset="0%"></stop>
            <stop stop-color="#FFFFFF" offset="100%"></stop>
        </linearGradient>
        <path d="M9.52941176,0 C10.6989559,0 11.6470588,0.948102883 11.6470588,2.11764706 L11.647,3.705 L14.2941176,3.70588235 C14.5865037,3.70588235 14.8235294,3.94290807 14.8235294,4.23529412 C14.8235294,4.49519282 14.6362498,4.71135004 14.3892801,4.75617635 L14.2941176,4.76470588 L13.235,4.764 L13.2352941,16.1575 C13.2352941,17.1750847 12.4103788,18 11.3927941,18 L3.43073529,18 C2.41315064,18 1.58823529,17.1750847 1.58823529,16.1575 L1.588,4.764 L0.529411765,4.76470588 C0.237025721,4.76470588 0,4.52768016 0,4.23529412 C0,3.97539541 0.187279582,3.7592382 0.43424933,3.71441189 L0.529411765,3.70588235 L3.176,3.705 L3.17647059,2.11764706 C3.17647059,0.948102883 4.12457347,0 5.29411765,0 L9.52941176,0 Z M5.39037433,9 C5.0793819,9 4.8213844,9.19199083 4.77289483,9.44353843 L4.76470588,9.52941176 L4.76470588,13.7647059 L4.77478624,13.8598683 C4.82776279,14.1068381 5.08322132,14.2941176 5.39037433,14.2941176 C5.70136676,14.2941176 5.95936426,14.1021268 6.00785384,13.8505792 L6.01604278,13.7647059 L6.01604278,9.52941176 L6.00596242,9.43424933 C5.95298588,9.18727958 5.69752735,9 5.39037433,9 Z M9.62566845,9 C9.31467602,9 9.05667852,9.19199083 9.00818894,9.44353843 L9,9.52941176 L9,13.7647059 L9.01008036,13.8598683 C9.06305691,14.1068381 9.31851543,14.2941176 9.62566845,14.2941176 C9.93666088,14.2941176 10.1946584,14.1021268 10.243148,13.8505792 L10.2513369,13.7647059 L10.2513369,9.52941176 L10.2412565,9.43424933 C10.18828,9.18727958 9.93282147,9 9.62566845,9 Z M9.52941176,1.05882353 L5.29411765,1.05882353 C4.75111499,1.05882353 4.30358065,1.46757197 4.2424176,1.99416587 L4.23529412,2.11764706 L4.234,3.705 L10.587,3.705 L10.5882353,2.11764706 C10.5882353,1.57464441 10.1794869,1.12711007 9.65289296,1.06594701 L9.52941176,1.05882353 Z" id="delete-vip-path-2"></path>
        <filter x="-3.4%" y="-2.8%" width="106.7%" height="105.6%" filterUnits="objectBoundingBox" id="icon-delete-vip-filter-3">
            <feOffset dx="0" dy="1" in="SourceAlpha" result="shadowOffsetInner1"></feOffset>
            <feComposite in="shadowOffsetInner1" in2="SourceAlpha" operator="arithmetic" k2="-1" k3="1" result="shadowInnerInner1"></feComposite>
            <feColorMatrix values="0 0 0 0 0.882352941   0 0 0 0 0.870588235   0 0 0 0 0.82745098  0 0 0 0.08 0" type="matrix" in="shadowInnerInner1"></feColorMatrix>
        </filter>
    </defs>
    <g id="icon/delete" stroke="none" stroke-width="1" fill="none" fill-rule="evenodd">
        <g transform="translate(4.588235, 3.000000)">
            <g id="Combined-Shape" fill-rule="nonzero">
                <use fill="url(#icon-delete-vip-linearGradient-1)" xlink:href="#delete-vip-path-2"></use>
                <use fill="black" fill-opacity="1" filter="url(#icon-delete-vip-filter-3)" xlink:href="#delete-vip-path-2"></use>
            </g>
            <rect id="Rectangle" fill="#A5A5A5" x="1.58823529" y="4.76470588" width="11.6470588" height="1"></rect>
        </g>
    </g>
</svg>