<svg xmlns="http://www.w3.org/2000/svg" width="24" height="24" viewBox="0 0 24 24">
    <g fill="none" fill-rule="evenodd" opacity=".5">
        <g fill="#FFF">
            <g>
                <g>
                    <g>
                        <path d="M9.778 5c3.356.185 6.037 2.866 6.222 6.222v.39c.003 1.026-.237 2.038-.7 2.955-1.12 2.24-3.408 3.654-5.911 3.655-1.027.003-2.04-.237-2.956-.7l-3.545 1.182c-.245.082-.51-.05-.592-.296-.032-.096-.032-.2 0-.296l1.182-3.545c-.463-.917-.703-1.93-.7-2.956 0-2.503 1.416-4.792 3.655-5.911.917-.463 1.93-.703 2.956-.7h.389zm6.52 1c.822-.002 1.633.19 2.368.56 1.794.898 2.928 2.731 2.929 4.737.002.731-.15 1.454-.444 2.121l-.117.248.947 2.84c.025.078.025.16 0 .238-.058.172-.227.274-.4.253l-.074-.016-2.841-.947c-.735.37-1.546.563-2.369.56-.205 0-.41-.011-.61-.035.33-.42.62-.877.865-1.366.56-1.108.851-2.338.848-3.585v-.386c-.109-1.994-.917-3.78-2.179-5.122.166-.035.334-.061.506-.08l.259-.02h.311z" transform="translate(-30 -205) translate(0 72) translate(20 30) translate(0 92) translate(10 11)"/>
                    </g>
                </g>
            </g>
        </g>
    </g>
</svg>
