<svg width="28" height="28" xmlns="http://www.w3.org/2000/svg">
    <path d="m21 2.683.23.006a4.317 4.317 0 0 1 4.082 4.102l.005.209v14l-.006.23a4.317 4.317 0 0 1-4.102 4.082l-.209.005h-7l-.11-.008a.817.817 0 0 1 .008-1.62l.102-.006h7l.184-.006a2.684 2.684 0 0 0 2.494-2.508l.005-.169V7l-.006-.184a2.684 2.684 0 0 0-2.508-2.494L21 4.317H7l-.184.006A2.684 2.684 0 0 0 4.322 6.83L4.317 7v2.333l-.008.111a.817.817 0 0 1-1.62-.008l-.006-.103V7l.006-.23a4.317 4.317 0 0 1 4.102-4.082L7 2.683h14zm-12.833 10.5c1.095 0 1.983.888 1.983 1.984v8.166a1.983 1.983 0 0 1-1.983 1.984h-3.5a1.983 1.983 0 0 1-1.984-1.984v-8.166c0-1.096.888-1.984 1.984-1.984h3.5zM20.41 7.59a.817.817 0 0 1 .073 1.072l-.073.083-4.44 4.44h2.696l.11.007a.817.817 0 0 1-.008 1.62l-.102.006H14l-.04-.001a.821.821 0 0 1-.044-.004l-.027-.003a.815.815 0 0 1-.036-.006l-.044-.009a.788.788 0 0 1-.284-.13l-.023-.017-.03-.023-.047-.044-.002-.003-.071-.08a.765.765 0 0 1-.106-.182.817.817 0 0 1-.063-.315V9.333l.008-.11a.817.817 0 0 1 .698-.699L14 8.517l.11.007c.363.05.65.336.7.699l.007.11v2.695l4.439-4.439.101-.086c.32-.23.767-.2 1.054.086z" fill="#FFF" fill-rule="nonzero"/>
</svg>