<svg xmlns="http://www.w3.org/2000/svg" xmlns:xlink="http://www.w3.org/1999/xlink" width="30" height="30" viewBox="0 0 30 30">
    <defs>
        <filter id="2sxswy3a1b" width="104%" height="106.7%" x="-2%" y="-3.3%" filterUnits="objectBoundingBox">
            <feOffset dy="1" in="SourceAlpha" result="shadowOffsetInner1"/>
            <feComposite in="shadowOffsetInner1" in2="SourceAlpha" k2="-1" k3="1" operator="arithmetic" result="shadowInnerInner1"/>
            <feColorMatrix in="shadowInnerInner1" values="0 0 0 0 0.847058824 0 0 0 0 0.847058824 0 0 0 0 0.847058824 0 0 0 1 0"/>
        </filter>
        <path id="9uadj3q5ua" d="M13.295 22.227v-2.143c0-.15-.122-.272-.273-.272H6.297c.225-.565.698-.972 1.26-1.333l2.813-1.717c1.8-1.107 2.835-2.643 2.835-4.54 0-2.553-2.002-4.722-5.265-4.722-3.398 0-5.333 2.327-5.333 4.902 0 .198.025.462.076.792.02.13.13.228.261.232l2.22.068c.226.007.415-.17.422-.397 0-.023 0-.045-.004-.068-.018-.133-.027-.244-.027-.333 0-1.378.765-2.44 2.317-2.44 1.463 0 2.205.949 2.205 2.01 0 1.017-.495 1.785-1.732 2.53l-2.408 1.446c-2.51 1.52-3.355 3.522-3.436 5.962v.015c-.005.15.113.276.264.28l.008.001h10.25c.15 0 .272-.122.272-.273zm4.497.145l3.138-5.011 3.116 5.01c.05.08.138.129.232.129h3.085c.076 0 .137-.061.137-.136 0-.027-.008-.053-.023-.075l-4.73-7.215 4.71-7.236c.042-.063.024-.147-.04-.188-.021-.015-.047-.023-.074-.023h-2.962c-.093 0-.18.049-.23.128l-3.159 5.012-3.096-5.01c-.05-.08-.137-.13-.232-.13H14.6c-.076 0-.137.062-.137.137 0 .026.008.052.023.074l4.71 7.215-4.731 7.236c-.041.063-.024.148.04.189.022.014.048.022.074.022h2.982c.094 0 .181-.048.231-.128z"/>
    </defs>
    <g fill="none" fill-rule="evenodd">
        <g fill-rule="nonzero">
            <g>
                <g transform="translate(-236 -627) translate(0 612) translate(236 15)">
                    <use fill="#FFF" xlink:href="#9uadj3q5ua"/>
                    <use fill="#000" filter="url(#2sxswy3a1b)" xlink:href="#9uadj3q5ua"/>
                </g>
            </g>
        </g>
    </g>
</svg>
