<svg width="24" height="24" xmlns="http://www.w3.org/2000/svg">
    <path d="m10.243 13.057.095.007a.698.698 0 0 1 .115.026l.012.003a.69.69 0 0 1 .273.17l-.068-.06c.019.015.038.03.055.047l.013.012a.713.713 0 0 1 .196.388v.003l.009.104v4l-.007.095a.7.7 0 0 1-.693.605l-.095-.006a.7.7 0 0 1-.605-.694l-.002-2.31-3.046 3.048-.087.074a.7.7 0 0 1-.903-1.064l3.047-3.048h-2.31l-.094-.006a.7.7 0 0 1 .095-1.394h4zm7.349-7.626a.7.7 0 0 1 .903 1.064l-3.048 3.047h2.31l.095.007a.7.7 0 0 1-.095 1.394h-4l-.095-.007a.698.698 0 0 1-.115-.026l-.012-.003a.69.69 0 0 1-.273-.17l.068.06a.704.704 0 0 1-.055-.047l-.013-.012a.713.713 0 0 1-.19-.352.708.708 0 0 1-.015-.143v-4l.007-.095a.7.7 0 0 1 .693-.605l.095.006a.7.7 0 0 1 .605.694v2.309l3.048-3.047z" fill="#FFF" fill-rule="nonzero"/>
</svg>
