<svg xmlns="http://www.w3.org/2000/svg" width="24" height="24" viewBox="0 0 24 24">
    <g fill="none" fill-rule="evenodd" opacity=".5">
        <g fill="#FFF" fill-rule="nonzero">
            <g>
                <g>
                    <path d="M12 3.5c4.694 0 8.5 3.806 8.5 8.5s-3.806 8.5-8.5 8.5-8.5-3.806-8.5-8.5S7.306 3.5 12 3.5zm.9 8h-1.8v5h1.8v-5zm-.915-4c-.7 0-1.285.584-1.285 1.3 0 .716.584 1.3 1.285 1.3.73 0 1.315-.584 1.315-1.3 0-.716-.584-1.3-1.315-1.3z" transform="translate(-25 -113) translate(15 103) translate(10 10)"/>
                </g>
            </g>
        </g>
    </g>
</svg>
