<svg width="24" height="24" xmlns="http://www.w3.org/2000/svg">
    <path d="M18.858 5.342c3.787 3.788 3.787 9.928 0 13.716a.7.7 0 0 1-.99-.99 8.3 8.3 0 0 0 0-11.736.7.7 0 0 1 .99-.99zM10.6 6.44a.5.5 0 0 1 .5.5v10.52a.5.5 0 0 1-.812.39l-3.414-2.73a1 1 0 0 0-.625-.22H4a1 1 0 0 1-1-1v-3.4a1 1 0 0 1 1-1h2.25a1 1 0 0 0 .624-.22l3.414-2.73a.5.5 0 0 1 .312-.11zm5.081 2.08a5.2 5.2 0 0 1 0 7.352.7.7 0 0 1-.99-.99 3.8 3.8 0 0 0 0-5.373.7.7 0 0 1 .99-.99z" fill="#FFF" opacity="0.5" fill-rule="evenodd" opacity=".7"/>
</svg>
