<svg xmlns="http://www.w3.org/2000/svg" width="30" height="30" viewBox="0 0 30 30">
    <g fill="none" fill-rule="evenodd">
        <g>
            <g>
                <g>
                    <g>
                        <path fill="#FFF" fill-rule="nonzero" d="M6.383 3.32h4.043C15.638 3.32 20 7.71 20 12.959c0 1.713-.532 3.427-1.383 4.819-.106-5.14-4.255-9.425-9.468-9.425H6.383v3.427L0 5.89 6.383 0v3.32z" transform="translate(-109 -627) translate(0 612) translate(112.75 19.861) translate(0 2.5)"/>
                        <path fill="#D8D8D8" d="M6.388 5c.08 2.07 1.035 3.186 2.862 3.35H6.388V5z" transform="translate(-109 -627) translate(0 612) translate(112.75 19.861) translate(0 2.5)"/>
                    </g>
                    <path fill="#FFF" fill-rule="nonzero" d="M16.635 4.089V2.915H13.75v1.174h2.885zM20 6.457V0h-1.184c-.13.677-.786 1.204-1.73 1.214v.925h1.551v4.318H20z" transform="translate(-109 -627) translate(0 612) translate(112.75 19.861)"/>
                </g>
            </g>
        </g>
    </g>
</svg>
