<svg xmlns="http://www.w3.org/2000/svg" width="24" height="24" viewBox="0 0 24 24">
    <g fill="none" fill-rule="evenodd">
        <g fill="#FFF" fill-rule="nonzero">
            <path d="M5.458 8c0-.804.616-1.464 1.402-1.535L7 6.458h8c.804 0 1.464.616 1.535 1.402l.007.14v.457l.375.001c.85 0 1.548.653 1.619 1.485l.006.14v5.834c0 .897-.728 1.625-1.625 1.625H7.083c-.897 0-1.625-.728-1.625-1.625V8zm11.459 1.542H7.083c-.299 0-.541.242-.541.541v5.834c0 .299.242.541.541.541h9.834c.299 0 .541-.242.541-.541v-5.834c0-.299-.242-.541-.541-.541zm-1.917-2H7c-.225 0-.412.162-.45.376L6.541 8v.55c.17-.06.352-.092.541-.092h8.374L15.458 8c0-.225-.162-.412-.376-.45L15 7.541z" transform="translate(0 -40) translate(0 40)"/>
        </g>
    </g>
</svg>
