<svg xmlns="http://www.w3.org/2000/svg" width="24" height="24" viewBox="0 0 24 24">
    <g fill="none" fill-rule="evenodd">
        <g fill="#DF2A3A">
            <g>
                <g>
                    <g>
                        <path d="M8 0c4.418 0 8 3.582 8 8s-3.582 8-8 8-8-3.582-8-8 3.582-8 8-8zM5.784 4.381c-.392-.305-.959-.277-1.32.083-.39.391-.39 1.024 0 1.415l2.122 2.12-2.122 2.122-.077.088c-.311.392-.285.964.077 1.327.391.39 1.024.39 1.415 0L8 9.414l2.12 2.122.095.083c.392.305.959.277 1.32-.083.39-.391.39-1.024 0-1.415L9.415 8l2.12-2.12.078-.088c.311-.392.285-.964-.077-1.327-.391-.39-1.024-.39-1.415 0l-2.12 2.121-2.122-2.12z" transform="translate(-25 -327) translate(15 317) translate(10 10) translate(4 4)"/>
                    </g>
                </g>
            </g>
        </g>
    </g>
</svg>
