<svg width="9" height="10" version="1.1" id="Layer_1" xmlns="http://www.w3.org/2000/svg" xmlns:xlink="http://www.w3.org/1999/xlink" x="0px" y="0px"
     viewBox="0 0 9 10" style="enable-background:new 0 0 9 10;" xml:space="preserve">
    <path fill="#FFF" d="M6.74,6.64c1.23,0,2.24,0.98,2.24,2.19v0.09c0,0.55-0.45,1-1,1H1.03c-0.55,0-1-0.45-1-1V8.83
	c0-1.21,1-2.19,2.23-2.19L6.74,6.64L6.74,6.64z M4.5,0.08c1.23,0,2.24,1,2.24,2.23s-1,2.24-2.23,2.24c0,0,0,0,0,0
	c-1.23,0-2.24-1-2.24-2.24S3.26,0.08,4.5,0.08z"/>
</svg>
