<svg xmlns="http://www.w3.org/2000/svg" width="24" height="24" viewBox="0 0 24 24">
    <g fill="none" fill-rule="evenodd">
        <g fill="#FFF" fill-rule="nonzero">
            <g>
                <path d="M13 8.5c2.73 0 5 1.008 5 2.5 0 .047-.002.094-.007.14l.007.074v2.735c0 .056-.003.112-.01.166l.002.009.008.09v2.735c0 1.516-2.27 2.551-5 2.551-2.647 0-4.862-.973-4.994-2.415L8 16.95V14l.002-.017L8 13.949V11l.007-.138C8.142 9.446 10.354 8.5 13 8.5zm0 8c-1.622 0-3.082-.366-4-.98v1.429c0 .75 1.759 1.551 4 1.551 2.161 0 3.874-.746 3.993-1.47l.007-.081.002-1.43c-.918.615-2.379.981-4.002.981zm4-3.959c-.917.603-2.377.959-4 .959-1.623 0-3.082-.356-4-.958v1.407c0 .75 1.759 1.551 4 1.551 2.161 0 3.874-.746 3.993-1.47l.007-.081zM13 9.5c-2.24 0-4 .782-4 1.5s1.76 1.5 4 1.5 4-.782 4-1.5-1.76-1.5-4-1.5zm-7-6c.245 0 .45.177.492.41L6.5 4v1.5H8c.276 0 .5.224.5.5 0 .245-.177.45-.41.492L8 6.5H6.5V8c0 .276-.224.5-.5.5-.245 0-.45-.177-.492-.41L5.5 8V6.5H4c-.276 0-.5-.224-.5-.5 0-.245.177-.45.41-.492L4 5.5h1.5V4c0-.276.224-.5.5-.5z" transform="translate(-351 -40) translate(0 40) translate(351)"/>
            </g>
        </g>
    </g>
</svg>
