<svg xmlns="http://www.w3.org/2000/svg" width="24" height="24" viewBox="0 0 24 24">
    <g fill="none" fill-rule="evenodd" opacity=".5">
        <g fill="#FFF" fill-rule="nonzero">
            <g>
                <g>
                    <g>
                        <path d="M12.5 3.3c5.081 0 9.2 4.119 9.2 9.2 0 5.081-4.119 9.2-9.2 9.2-2.698 0-5.208-1.169-6.944-3.165-.254-.292-.223-.734.068-.988.292-.254.734-.223.988.069 1.473 1.694 3.6 2.684 5.888 2.684 4.308 0 7.8-3.492 7.8-7.8s-3.492-7.8-7.8-7.8c-4.14 0-7.527 3.226-7.784 7.3h1.831c.104 0 .188.084.188.188 0 .05-.02.097-.055.132l-2.415 2.415c-.146.146-.384.146-.53 0L1.32 12.32c-.073-.073-.073-.192 0-.265.035-.035.083-.055.133-.055h1.86c.26-4.848 4.273-8.7 9.187-8.7zm0 3.5c.354 0 .647.263.694.605l.006.095-.001 4.647 2.415 1.79c.283.21.362.591.201.892l-.055.088c-.21.282-.591.362-.892.2l-.088-.055-2.697-2c-.148-.11-.246-.273-.274-.453L11.8 12.5v-5c0-.387.313-.7.7-.7z" transform="translate(-30 -297) translate(0 72) translate(20 30) translate(0 184) translate(10 11)"/>
                    </g>
                </g>
            </g>
        </g>
    </g>
</svg>
