<svg xmlns="http://www.w3.org/2000/svg" width="28" height="28" viewBox="0 0 28 28">
    <g fill="none" fill-rule="evenodd">
        <g fill="#FFF" fill-rule="nonzero">
            <g>
                <g>
                    <path d="M14.467 4.667c.386 0 .7.313.7.7v10.266c0 .387-.314.7-.7.7h-2.1c-.387 0-.7-.313-.7-.7V5.367c0-.387.313-.7.7-.7h2.1zM8.633 0c.387 0 .7.313.7.7v14.933c0 .387-.313.7-.7.7h-2.1c-.386 0-.7-.313-.7-.7V.7c0-.387.314-.7.7-.7h2.1zM2.8 9.333c.387 0 .7.314.7.7v5.6c0 .387-.313.7-.7.7H.7c-.387 0-.7-.313-.7-.7v-5.6c0-.386.313-.7.7-.7h2.1z" transform="translate(-330 -414) translate(320 410) translate(6) translate(10.417 9.833)"/>
                </g>
            </g>
        </g>
    </g>
</svg>