<svg xmlns="http://www.w3.org/2000/svg" width="28" height="28" viewBox="0 0 28 28">
    <g fill="none" fill-rule="evenodd">
        <g fill="#FFF">
            <g>
                <g>
                    <g>
                        <path d="M10.431 3.201l1.447 1.532.447.483c1.02 1.112 1.865 2.129 2.397 3.133.098.133.32.673.353.792.167.47.258.943.258 1.426l-.004.319.004.21c0 4.182-3.432 7.57-7.666 7.57-4.235 0-7.667-3.388-7.667-7.57 0-.178.006-.354.019-.53H0l.022-.051c.145-1.883.988-3.574 2.274-4.82.499 2.276 1.216 3.508 2.15 3.697l.095.016-.022-.076-.044-.177-.058-.27-.027-.143-.042-.262c-.021-.143-.041-.301-.058-.471l-.023-.277-.014-.26-.005-.14-.002-.173.001-.263.004-.137.006-.133.012-.193c.014-.189.034-.382.062-.58l.051-.318.054-.265.054-.232.068-.254.03-.102.047-.147c.5-1.532 1.577-3.116 3.75-4.239L8.618.18 9.07 0c0 1.17.454 2.238 1.361 3.201z" opacity=".5" transform="translate(-330 -516) translate(320 410) translate(6 102) translate(9.833 9.833)"/>
                        <path d="M8.399 8.667c0 .627.237 1.199.71 1.715l.755.82.233.259c.532.596.973 1.14 1.25 1.678.052.072.095.15.13.236.02.062.038.125.055.189.087.252.135.505.135.763l-.002.171.002.113c0 2.24-1.791 4.056-4 4.056-2.21 0-4-1.816-4-4.056 0-.095.003-.19.01-.284h-.01l.011-.027c.076-1.01.516-1.915 1.187-2.583.26 1.22.634 1.88 1.121 1.981l.05.008-.011-.04L6 13.571l-.03-.145-.014-.076-.022-.14c-.011-.077-.021-.162-.03-.253l-.012-.148-.007-.14-.003-.074-.001-.093v-.141l.003-.074.003-.07.006-.104c.007-.101.018-.205.032-.31l.027-.171.028-.142.028-.125.036-.135.016-.055.024-.079c.26-.82.822-1.67 1.956-2.27l.122-.063.236-.096zM4.333 1.333c.163 0 .296-.132.296-.295L4.626 1C4.537.333 4.44 0 4.333 0c-.106 0-.203.333-.292 1-.022.16.092.31.253.33.013.002.026.003.04.003zM13 3.333c.184 0 .333-.333.333-.666 0-.334-.149-.667-.333-.667-.184 0-.333.333-.333.667 0 .333.149.666.333.666zM1.333 4c.282 0 .51-.228.51-.51 0-.056-.009-.112-.027-.165-.15-.439-.31-.658-.483-.658-.172 0-.333.22-.483.658-.09.267.052.557.319.648.053.018.108.027.164.027z" transform="translate(-330 -516) translate(320 410) translate(6 102) translate(9.833 9.833)"/>
                    </g>
                </g>
            </g>
        </g>
    </g>
</svg>
