<svg xmlns="http://www.w3.org/2000/svg" width="24" height="24" viewBox="0 0 24 24">
    <g fill="none" fill-rule="evenodd">
        <g fill="#FFF">
            <g>
                <g>
                    <g>
                        <path d="M18.858 5.342c3.787 3.788 3.787 9.928 0 13.716-.273.273-.716.273-.99 0-.273-.273-.273-.716 0-.99 3.24-3.241 3.24-8.495 0-11.736-.273-.274-.273-.717 0-.99.274-.273.717-.273.99 0zM10.6 6.44c.276 0 .5.224.5.5v10.52c0 .113-.039.223-.11.312-.172.216-.487.25-.702.078l-3.414-2.73c-.177-.143-.398-.22-.625-.22H4c-.552 0-1-.448-1-1v-3.4c0-.552.448-1 1-1h2.25c.226 0 .447-.077.624-.22l3.414-2.73c.088-.071.198-.11.312-.11zm5.081 2.08c2.03 2.03 2.03 5.321 0 7.352-.273.273-.716.273-.99 0-.273-.273-.273-.716 0-.99 1.483-1.484 1.483-3.89 0-5.373-.273-.274-.273-.717 0-.99.274-.273.717-.273.99 0z" transform="translate(-326 -378) translate(15 137) translate(0 230) translate(179 11) translate(132)"/>
                    </g>
                </g>
            </g>
        </g>
    </g>
</svg>
