<svg xmlns="http://www.w3.org/2000/svg" width="24" height="24" viewBox="0 0 24 24">
    <g fill="none" fill-rule="evenodd" opacity=".5">
        <g fill="#FFF">
            <g>
                <g>
                    <g>
                        <path d="M12 3c4.97 0 9 4.03 9 9s-4.03 9-9 9-9-4.03-9-9 4.03-9 9-9zm-.214 12.425c-.7 0-1.255.572-1.255 1.27 0 .7.556 1.256 1.255 1.256.698 0 1.27-.556 1.27-1.255 0-.699-.572-1.27-1.27-1.27zm.158-9.1c-2.35 0-3.637 1.651-3.637 3.367 0 .238.016.492.08.714l2 .08c-.047-.143-.063-.318-.063-.508 0-.89.493-1.795 1.62-1.795 1.065 0 1.589.699 1.589 1.43 0 .476-.207.905-.683 1.254l-.763.572c-.905.683-1.254 1.461-1.254 2.303 0 .238.031.444.063.65h1.715v-.094c0-.652.302-1.144.858-1.54l.651-.462c.937-.667 1.573-1.556 1.573-2.81 0-1.605-1.287-3.161-3.749-3.161z" transform="translate(-30 -389) translate(0 72) translate(20 30) translate(0 276) translate(10 11)"/>
                    </g>
                </g>
            </g>
        </g>
    </g>
</svg>
