<svg xmlns="http://www.w3.org/2000/svg" width="36" height="14" viewBox="0 0 36 14">
    <defs>
        <linearGradient id="s99tmjbyda" x1="50%" x2="50%" y1="100%" y2="0%">
            <stop offset="1.473%" stop-color="#BE361A"/>
            <stop offset="100%" stop-color="#D44030"/>
        </linearGradient>
    </defs>
    <g fill="none" fill-rule="evenodd">
        <g fill="url(#s99tmjbyda)" stroke="#FFF" transform="translate(-141 -435)">
            <g>
                <g>
                    <g>
                        <g>
                            <path d="M137.883 10.095c1.212-.404 2.522-.404 3.734 0h0l14.368 4.79c.308.102.545.32.68.59.135.268.166.589.064.897-.117.35-.393.626-.744.743h0l-14.368 4.79c-1.212.404-2.522.404-3.734 0h0l-14.368-4.79c-.308-.102-.545-.32-.68-.59-.135-.268-.166-.589-.064-.897.117-.35.393-.626.744-.743h0z" transform="translate(0 40) translate(7 149) translate(12 96) translate(0 141)"/>
                        </g>
                    </g>
                </g>
            </g>
        </g>
    </g>
</svg>
