<svg xmlns="http://www.w3.org/2000/svg" width="24" height="24" viewBox="0 0 24 24">
    <g fill="none" fill-rule="evenodd">
        <g fill="#FFF">
            <g>
                <g>
                    <path d="M10.65 6.486c.249 0 .45.202.45.45v10.728c0 .102-.035.201-.099.28-.155.195-.438.226-.632.071L6.874 15.22c-.177-.142-.398-.219-.625-.219H4c-.552 0-1-.448-1-1v-3.4c0-.552.448-1 1-1h2.25c.226 0 .447-.077.624-.22l3.495-2.795c.08-.064.179-.099.281-.099zm10.431 2.619c.246.246.27.63.074.903l-.074.087-2.206 2.204 2.206 2.206c.273.273.273.717 0 .99-.246.246-.63.27-.903.074l-.087-.074-2.205-2.206-2.205 2.206c-.273.273-.717.273-.99 0-.246-.246-.27-.63-.074-.903l.074-.087 2.205-2.206-2.205-2.204c-.273-.273-.273-.717 0-.99.246-.246.63-.27.903-.074l.087.074 2.205 2.205 2.205-2.205c.273-.273.717-.273.99 0z" transform="translate(-194 -378) translate(15 137) translate(0 230) translate(179 11)"/>
                </g>
            </g>
        </g>
    </g>
</svg>
