<svg xmlns="http://www.w3.org/2000/svg" xmlns:xlink="http://www.w3.org/1999/xlink" width="64" height="64" viewBox="0 0 64 64">
    <defs>
        <linearGradient id="mgyac2syqc" x1="50%" x2="50%" y1="100%" y2="9.084%">
            <stop offset="0%" stop-color="#FFF" stop-opacity="0"/>
            <stop offset="100%" stop-color="#FFF" stop-opacity=".64"/>
        </linearGradient>
        <filter id="fuqiy4imoa" width="202.7%" height="170.3%" x="-51.4%" y="-39.8%" filterUnits="objectBoundingBox">
            <feMorphology in="SourceAlpha" operator="dilate" radius="1.5" result="shadowSpreadOuter1"/>
            <feOffset dy="-3" in="shadowSpreadOuter1" result="shadowOffsetOuter1"/>
            <feGaussianBlur in="shadowOffsetOuter1" result="shadowBlurOuter1" stdDeviation="5.5"/>
            <feColorMatrix in="shadowBlurOuter1" values="0 0 0 0 0 0 0 0 0 0 0 0 0 0 0 0 0 0 0.5 0"/>
        </filter>
        <path id="q5wuc04k2b" d="M33.333 64v-.047c-.218-.062-.423-.184-.589-.367-.033-.04-1.637-1.802-3.553-3.729l-.415-.415c-1.674-1.664-3.511-3.367-4.716-4.126-2.887-1.817-5.562-6.816-7.994-12l-.393-.843c-.455-.983-.901-1.967-1.338-2.931-1.193-2.61-2.31-5.082-3.188-6.538-.1-.163-.188-.326-.25-.502-.666-1.707.162-3.64 1.869-4.304 2.61-1.017 5.007-.465 6.751 1.53 1.43 1.645 2.824 3.703 3.928 5.497V5.12c0-2.824 2.297-5.12 5.12-5.12 1.368 0 2.648.527 3.614 1.506.98.966 1.506 2.246 1.506 3.614v14.105c.766-.452 1.657-.703 2.61-.703 2.824 0 5.12 2.297 5.12 5.12v.276c.766-.451 1.657-.715 2.61-.715 2.824.013 5.12 2.297 5.12 5.12v.113c.427-.176.904-.263 1.406-.263 2.158 0 3.915 1.756 3.915 3.915v12.01c-.012 1.154-.464 3.162-1.342 5.96-.666 2.108-1.406 4.141-1.72 4.92 0 0-.213.815 1.218 3.915.632 1.365 1.313 2.594 1.566 3.037l.084.144c.011.02.018.03.019.031.351.602.15 1.368-.452 1.72-.16.099-.334.15-.506.168V64h-20z"/>
    </defs>
    <g fill="none" fill-rule="evenodd">
        <g fill-rule="nonzero">
            <g>
                <g transform="translate(-96.000000, -300.000000) translate(96.000000, 300.000000)">
                    <use fill="#000" filter="url(#fuqiy4imoa)" xlink:href="#q5wuc04k2b"/>
                    <use fill="url(#mgyac2syqc)" xlink:href="#q5wuc04k2b"/>
                </g>
                <path fill="#FFF" d="M54.29 62.105c-.012-.012-.878-1.506-1.668-3.212-1.431-3.1-1.218-3.916-1.218-3.916.314-.778 1.054-2.81 1.72-4.919.878-2.798 1.33-4.806 1.342-5.96v-.026-11.984c0-2.159-1.757-3.915-3.915-3.915-.502 0-.979.087-1.405.263v-.113c0-2.823-2.297-5.107-5.12-5.12-.954 0-1.845.264-2.61.715v-.276c0-2.823-2.297-5.12-5.12-5.12-.954 0-1.845.251-2.61.703V5.12c0-1.368-.528-2.648-1.507-3.614C31.213.527 29.933 0 28.565 0c-2.823 0-5.12 2.296-5.12 5.12v30.105c-1.104-1.794-2.497-3.852-3.928-5.496-1.744-1.996-4.14-2.548-6.751-1.531-1.707.665-2.535 2.597-1.87 4.304.063.176.15.339.251.502.879 1.456 1.995 3.928 3.188 6.538 2.873 6.337 6.136 13.515 9.725 15.774 2.71 1.707 8.621 8.195 8.684 8.27.251.276.59.414.929.414.3 0 .602-.113.84-.326.515-.465.553-1.255.088-1.77-.25-.276-6.212-6.814-9.21-8.696-2.962-1.857-6.325-9.274-8.773-14.695-1.267-2.798-2.371-5.22-3.325-6.802-.025-.037-.05-.075-.063-.125-.163-.414.038-.891.44-1.054 1.618-.628 2.898-.352 3.94.84 3 3.452 5.923 9.111 5.96 9.161.264.515.854.778 1.406.64.565-.138.954-.64.954-1.217V5.12c0-1.443 1.167-2.61 2.61-2.61.703 0 1.355.276 1.845.765.49.49.765 1.142.765 1.845v21.684c0 .69.565 1.256 1.255 1.256s1.255-.565 1.255-1.255v-3.238-.012c.05-1.406 1.192-2.51 2.61-2.51 1.443 0 2.61 1.167 2.61 2.61V28.36c.013.677.578 1.23 1.255 1.23.69 0 1.255-.565 1.255-1.255 0-1.443 1.167-2.61 2.61-2.61 1.431 0 2.61 1.167 2.61 2.61V32.1c0 .69.565 1.255 1.256 1.255.69 0 1.254-.564 1.254-1.255 0-.778.628-1.405 1.406-1.405.778 0 1.405.627 1.405 1.405v12.01c-.025 1.983-2.07 7.918-2.873 9.951-.465 1.167-.088 2.962 1.23 5.81.853 1.858 1.781 3.451 1.832 3.514.238.402.652.615 1.079.615.213 0 .44-.05.64-.176.602-.351.803-1.117.452-1.719z" transform="translate(-96.000000, -300.000000) translate(96.000000, 300.000000)"/>
            </g>
        </g>
    </g>
</svg>
