<svg xmlns="http://www.w3.org/2000/svg" xmlns:xlink="http://www.w3.org/1999/xlink" width="30" height="30" viewBox="0 0 30 30">
    <defs>
        <path id="6wvy19et6a" d="M14.91 3.32L14.91 8.353 14.91 11.78 8.527 5.89 14.91 0z"/>
    </defs>
    <g fill="none" fill-rule="evenodd">
        <g>
            <g>
                <g>
                    <g transform="translate(-236 -627) translate(0 612) translate(236 15) translate(7.545 5.547)">
                        <g>
                            <path fill="#FFF" fill-rule="nonzero" d="M11.484 1.027c.598.345.803 1.11.458 1.707-.345.598-1.11.803-1.708.458-2.465-1.424-5.618-.579-7.042 1.887-1.424 2.466-.579 5.619 1.887 7.042 1.612.931 3.57.914 5.156.001.778-.448 1.427-1.091 1.886-1.888.346-.597 1.11-.802 1.708-.457.598.345.803 1.11.458 1.707-.682 1.18-1.648 2.139-2.805 2.805-2.35 1.353-5.26 1.38-7.653-.002C.167 12.173-1.087 7.49 1.027 3.829 3.14.167 7.823-1.087 11.484 1.027z" transform="translate(0 3.593)"/>
                            <path fill="#D8D8D8" d="M8.528.049v2.525c-.96-.164-1.94-.05-2.826.312.815-.755 1.635-1.76 2.18-2.883.216.006.43.022.646.046z" transform="translate(0 3.593)"/>
                        </g>
                        <use fill="#FFF" fill-rule="nonzero" transform="matrix(-1 0 0 1 23.437 0)" xlink:href="#6wvy19et6a"/>
                    </g>
                </g>
            </g>
        </g>
    </g>
</svg>