<svg xmlns="http://www.w3.org/2000/svg" width="24" height="24" viewBox="0 0 24 24">
    <g fill="none" fill-rule="evenodd">
        <g fill="#FFF" fill-rule="nonzero">
            <g>
                <g>
                    <g>
                        <g>
                            <g>
                                <path d="M15.406 2.918l.038.107.549 2.053 2.058-.548c.374-.1.757.122.857.495.09.336-.08.68-.388.819l-.107.038-2.451.655-2.75 4.763h5.495l1.798-1.795c.274-.273.717-.273.99 0 .246.247.27.63.074.904l-.074.086-1.504 1.502 1.504 1.508c.273.274.273.717 0 .99-.247.246-.63.27-.904.074l-.086-.074-1.793-1.795h-5.5l2.75 4.763 2.45.655.108.038c.307.138.478.483.388.819-.1.373-.483.595-.857.495l-2.058-.548-.549 2.053-.038.107c-.138.308-.483.478-.819.388-.373-.1-.595-.483-.495-.857l.655-2.454-2.748-4.758-2.75 4.762.66 2.45.02.112c.034.335-.18.655-.515.745-.374.1-.758-.12-.858-.494l-.554-2.057-2.052.551-.113.02c-.335.035-.655-.178-.745-.514-.1-.374.121-.758.494-.858l2.453-.66 2.748-4.758h-5.5l-1.792 1.795-.086.074c-.274.197-.657.172-.904-.074-.273-.273-.273-.716 0-.99l1.504-1.508-1.504-1.502-.074-.086c-.197-.274-.172-.657.074-.904.273-.273.716-.273.99 0L5.292 11.3h5.495L8.039 6.54l-2.453-.658c-.373-.1-.594-.484-.494-.858.09-.336.41-.549.745-.515l.113.02 2.052.552.554-2.057c.1-.373.484-.595.858-.494.336.09.549.41.515.745l-.02.112-.66 2.45 2.75 4.763 2.748-4.76-.655-2.453c-.1-.374.122-.758.495-.857.336-.09.68.08.819.388z" transform="translate(-326 -312) translate(0 40) translate(7 149) translate(12 60) translate(0 39) translate(301 18) translate(6 6)"/>
                            </g>
                        </g>
                    </g>
                </g>
            </g>
        </g>
    </g>
</svg>
