<svg width="24" height="24" xmlns="http://www.w3.org/2000/svg">
    <path d="M11.433 8.527a.587.587 0 0 1 .757-.062l.073.062 1.766 1.766 4.544 1.515a.587.587 0 0 1 .289.903l-.06.069-2.526 2.527 3.368 3.397.346 1.038a.196.196 0 0 1-.191.258l-.057-.01-1.114-.394-3.321-3.32-2.527 2.527a.587.587 0 0 1-.937-.146l-.035-.084-1.515-4.544-1.766-1.766a.587.587 0 0 1-.062-.758l.062-.073 2.906-2.905zM9.202 4.115a.391.391 0 0 1 .624.097l.024.056.861 2.583c.06.181.029.378-.08.53l-.062.07-3.117 3.118a.587.587 0 0 1-.51.165l-.09-.023-2.584-.861a.391.391 0 0 1-.193-.602l.04-.046 5.087-5.087z" fill="#FFF" fill-rule="nonzero" opacity=".7"/>
</svg>
