<svg xmlns="http://www.w3.org/2000/svg" width="24" height="24" viewBox="0 0 24 24">
    <g fill="none" fill-rule="evenodd" opacity=".5">
        <g fill="#FFF">
            <g>
                <g>
                    <path d="M9.132 15.324l-4.784-1.655c-.093-.032-.142-.133-.11-.226.013-.038.039-.07.073-.092l14.416-9.177c.083-.053.192-.028.245.054.018.029.028.062.028.096v14.171c0 .098-.08.178-.178.178-.02 0-.04-.003-.058-.01l-4.777-1.654c-.04-.013-.084.003-.105.039l-1.65 2.738c-.025.042-.08.055-.122.03-.023-.014-.038-.037-.042-.064l-.463-3.271c-.029-.204.014-.412.122-.588l4.99-8.16c.087-.142.042-.326-.1-.413-.127-.078-.293-.05-.388.066l-6.314 7.716c-.189.23-.501.32-.783.222z" transform="translate(-324 -626) translate(7 410) translate(0 206) translate(317 10)"/>
                </g>
            </g>
        </g>
    </g>
</svg>
