<svg xmlns="http://www.w3.org/2000/svg" width="24" height="24" viewBox="0 0 24 24">
    <g fill="none" fill-rule="evenodd">
        <g fill="#27BF31">
            <g>
                <g>
                    <g>
                        <path d="M8 0c4.418 0 8 3.582 8 8s-3.582 8-8 8-8-3.582-8-8 3.582-8 8-8zm3.704 5.093c-.418-.276-.986-.2-1.315.193l-3.214 3.83L5.643 7.83l-.094-.07c-.418-.275-.985-.2-1.315.193-.355.424-.3 1.054.123 1.41l2.298 1.928.094.07c.418.275.986.2 1.315-.194l3.857-4.596.07-.094c.275-.418.2-.985-.193-1.315z" transform="translate(-25 -434) translate(15 424) translate(10 10) translate(4 4)"/>
                    </g>
                </g>
            </g>
        </g>
    </g>
</svg>
