<svg width="24" height="24" xmlns="http://www.w3.org/2000/svg">
    <path d="M10.65 6.486a.45.45 0 0 1 .45.45v10.728a.45.45 0 0 1-.731.351L6.874 15.22A1 1 0 0 0 6.249 15H4a1 1 0 0 1-1-1v-3.4a1 1 0 0 1 1-1h2.25a1 1 0 0 0 .624-.22l3.495-2.795a.45.45 0 0 1 .281-.099zm10.431 2.619a.7.7 0 0 1 .074.903l-.074.087-2.206 2.204 2.206 2.206a.7.7 0 0 1-.903 1.064l-.087-.074-2.205-2.206-2.205 2.206a.7.7 0 0 1-1.064-.903l.074-.087 2.205-2.206-2.205-2.204a.7.7 0 0 1 .903-1.064l.087.074 2.205 2.205 2.205-2.205a.7.7 0 0 1 .99 0z" fill="#FFF" opacity="0.5" fill-rule="evenodd"/>
</svg>
