<svg width="24" height="24" viewBox="0 0 24 24" xmlns="http://www.w3.org/2000/svg" xmlns:xlink="http://www.w3.org/1999/xlink">
    <defs>
        <filter x="-3.3%" y="-2.7%" width="106.5%" height="105.4%" filterUnits="objectBoundingBox" id="iwj3r6ybic">
            <feOffset dy="1" in="SourceAlpha" result="shadowOffsetInner1"/>
            <feComposite in="shadowOffsetInner1" in2="SourceAlpha" operator="arithmetic" k2="-1" k3="1" result="shadowInnerInner1"/>
            <feColorMatrix values="0 0 0 0 0.882352941 0 0 0 0 0.870588235 0 0 0 0 0.82745098 0 0 0 0.08 0" in="shadowInnerInner1"/>
        </filter>
        <filter x="-6.2%" y="-5%" width="112.5%" height="110%" filterUnits="objectBoundingBox" id="b8mjrqwnzf">
            <feOffset dy="1" in="SourceAlpha" result="shadowOffsetInner1"/>
            <feComposite in="shadowOffsetInner1" in2="SourceAlpha" operator="arithmetic" k2="-1" k3="1" result="shadowInnerInner1"/>
            <feColorMatrix values="0 0 0 0 0.882352941 0 0 0 0 0.870588235 0 0 0 0 0.82745098 0 0 0 0.08 0" in="shadowInnerInner1"/>
        </filter>
        <filter x="-75%" y="-37.5%" width="250%" height="175%" filterUnits="objectBoundingBox" id="50skwcrz1i">
            <feOffset dy="1" in="SourceAlpha" result="shadowOffsetInner1"/>
            <feComposite in="shadowOffsetInner1" in2="SourceAlpha" operator="arithmetic" k2="-1" k3="1" result="shadowInnerInner1"/>
            <feColorMatrix values="0 0 0 0 0.882352941 0 0 0 0 0.870588235 0 0 0 0 0.82745098 0 0 0 0.08 0" in="shadowInnerInner1"/>
        </filter>
        <filter x="-75%" y="-37.5%" width="250%" height="175%" filterUnits="objectBoundingBox" id="kcqnv4rwck">
            <feOffset dy="1" in="SourceAlpha" result="shadowOffsetInner1"/>
            <feComposite in="shadowOffsetInner1" in2="SourceAlpha" operator="arithmetic" k2="-1" k3="1" result="shadowInnerInner1"/>
            <feColorMatrix values="0 0 0 0 0.882352941 0 0 0 0 0.870588235 0 0 0 0 0.82745098 0 0 0 0.08 0" in="shadowInnerInner1"/>
        </filter>
        <filter x="-37.5%" y="-37.5%" width="175%" height="175%" filterUnits="objectBoundingBox" id="o9zycl65mn">
            <feOffset dy="1" in="SourceAlpha" result="shadowOffsetInner1"/>
            <feComposite in="shadowOffsetInner1" in2="SourceAlpha" operator="arithmetic" k2="-1" k3="1" result="shadowInnerInner1"/>
            <feColorMatrix values="0 0 0 0 0.882352941 0 0 0 0 0.870588235 0 0 0 0 0.82745098 0 0 0 0.08 0" in="shadowInnerInner1"/>
        </filter>
        <path d="m10.431 3.201 1.447 1.532.447.483c1.02 1.112 1.865 2.129 2.397 3.133.098.133.32.673.353.792.167.47.258.943.258 1.426l-.004.319.004.21c0 4.182-3.432 7.57-7.666 7.57-4.235 0-7.667-3.388-7.667-7.57 0-.178.006-.354.019-.53H0l.022-.051a7.507 7.507 0 0 1 2.274-4.82c.499 2.276 1.216 3.508 2.15 3.697l.095.016-.022-.076-.044-.177-.058-.27-.027-.143-.042-.262a9.498 9.498 0 0 1-.058-.471l-.023-.277-.014-.26-.005-.14-.002-.173.001-.263.004-.137.006-.133.012-.193c.014-.189.034-.382.062-.58l.051-.318.054-.265.054-.232.068-.254.03-.102.047-.147c.5-1.532 1.577-3.116 3.75-4.239L8.618.18 9.07 0c0 1.17.454 2.238 1.361 3.201z" id="4re464fdgb"/>
        <path d="M8.399 8.667c0 .627.237 1.199.71 1.715l.755.82.233.259c.532.596.973 1.14 1.25 1.678.052.072.095.15.13.236.02.062.038.125.055.189.087.252.135.505.135.763l-.002.171.002.113c0 2.24-1.791 4.056-4 4.056-2.21 0-4-1.816-4-4.056 0-.095.003-.19.01-.284h-.01l.011-.027a4.066 4.066 0 0 1 1.187-2.583c.26 1.22.634 1.88 1.121 1.981l.05.008-.011-.04L6 13.571l-.03-.145-.014-.076-.022-.14a5.218 5.218 0 0 1-.03-.253l-.012-.148-.007-.14-.003-.074-.001-.093v-.141l.003-.074.003-.07.006-.104c.007-.101.018-.205.032-.31l.027-.171.028-.142.028-.125.036-.135.016-.055.024-.079c.26-.82.822-1.67 1.956-2.27l.122-.063.236-.096z" id="27a8yq83me"/>
        <path d="M4.333 1.333A.295.295 0 0 0 4.626 1C4.537.333 4.44 0 4.333 0c-.106 0-.203.333-.292 1a.295.295 0 0 0 .292.333z" id="i2fblupadh"/>
        <path d="M13 3.333c.184 0 .333-.333.333-.666 0-.334-.149-.667-.333-.667-.184 0-.333.333-.333.667 0 .333.149.666.333.666z" id="b4lyrns60j"/>
        <path d="M1.333 4a.51.51 0 0 0 .483-.675c-.15-.439-.31-.658-.483-.658-.172 0-.333.22-.483.658A.51.51 0 0 0 1.333 4z" id="r5z2kwb85m"/>
        <linearGradient x1="50%" y1="132.336%" x2="50%" y2="0%" id="msve0eb66a">
            <stop stop-color="#635C4D" offset="0%"/>
            <stop stop-color="#FFF" offset="100%"/>
        </linearGradient>
        <linearGradient x1="50%" y1="132.336%" x2="50%" y2="0%" id="u2rztdpxgd">
            <stop stop-color="#635C4D" offset="0%"/>
            <stop stop-color="#FFF" offset="100%"/>
        </linearGradient>
        <linearGradient x1="50%" y1="132.336%" x2="50%" y2="0%" id="i58ytnlj2g">
            <stop stop-color="#635C4D" offset="0%"/>
            <stop stop-color="#FFF" offset="100%"/>
        </linearGradient>
        <linearGradient x1="50%" y1="132.336%" x2="50%" y2="0%" id="f9xrllk7xl">
            <stop stop-color="#635C4D" offset="0%"/>
            <stop stop-color="#FFF" offset="100%"/>
        </linearGradient>
    </defs>
    <g fill-rule="nonzero" fill="none">
        <g opacity=".5" transform="translate(4.333 2.667)">
            <use fill="url(#msve0eb66a)" xlink:href="#4re464fdgb"/>
            <use fill="#000" filter="url(#iwj3r6ybic)" xlink:href="#4re464fdgb"/>
        </g>
        <g transform="translate(4.333 2.667)">
            <use fill="url(#u2rztdpxgd)" xlink:href="#27a8yq83me"/>
            <use fill="#000" filter="url(#b8mjrqwnzf)" xlink:href="#27a8yq83me"/>
        </g>
        <g transform="translate(4.333 2.667)">
            <use fill="url(#i58ytnlj2g)" xlink:href="#i2fblupadh"/>
            <use fill="#000" filter="url(#50skwcrz1i)" xlink:href="#i2fblupadh"/>
        </g>
        <g transform="translate(4.333 2.667)">
            <use fill="url(#i58ytnlj2g)" xlink:href="#b4lyrns60j"/>
            <use fill="#000" filter="url(#kcqnv4rwck)" xlink:href="#b4lyrns60j"/>
        </g>
        <g transform="translate(4.333 2.667)">
            <use fill="url(#f9xrllk7xl)" xlink:href="#r5z2kwb85m"/>
            <use fill="#000" filter="url(#o9zycl65mn)" xlink:href="#r5z2kwb85m"/>
        </g>
    </g>
</svg>
