<svg width="24px" height="24px" viewBox="0 0 24 24" version="1.1" xmlns="http://www.w3.org/2000/svg" xmlns:xlink="http://www.w3.org/1999/xlink">
    <g id="icon/award" stroke="none" stroke-width="1" fill="none" fill-rule="evenodd">
        <path d="M19.089733,5.98 C18.9924566,5.71630659 18.7424098,5.54010785 18.4613609,5.5372093 L16.4850818,5.5372093 C16.4850818,5.21162791 16.4622911,5 16.4622911,5 L7.1929888,5 C7.1929888,5 7.1929888,5.19860465 7.17345392,5.5372093 L5.18740741,5.5372093 C4.90635846,5.54010785 4.65631172,5.71630659 4.55903531,5.98 C4.28880276,6.67348837 4.96601206,9.41162791 6.18694229,10.5218605 C6.63471289,10.92689 7.19399701,11.1878136 7.79205857,11.2706977 C7.9613609,11.3293023 8.09159345,11.4562791 8.0785702,11.5572093 C8.0557795,11.7265116 7.7529888,11.755814 7.87345392,12.0846512 C7.99391904,12.4134884 8.83066322,12.2669767 8.95438415,11.6809302 C9.39544864,12.1781552 9.94606452,12.5660384 10.5627562,12.8139535 C11.4092679,13.1395349 10.8134539,16.7209302 10.8134539,17.1018605 C10.8134539,17.1018605 9.46229113,17.1018605 9.22461671,17.4567442 C9.13812652,17.5970897 9.09823996,17.7611944 9.11066322,17.9255814 C9.11066322,17.9255814 8.23810508,18.2023256 8.23810508,18.5572093 L8.23810508,19 L15.4008958,19 L15.4008958,18.5604651 C15.4106632,18.2055814 14.5315935,17.9255814 14.5315935,17.9255814 C14.5437194,17.7582896 14.5014654,17.5915577 14.4111283,17.4502326 C14.1734539,17.0953488 12.8222911,17.0953488 12.8222911,17.0953488 C12.8222911,16.7274419 12.229733,13.1460465 13.0729888,12.8074419 C13.6897378,12.5596321 14.2403763,12.1717329 14.6813609,11.6744186 C14.8050818,12.2572093 15.6157795,12.4427907 15.7622911,12.0781395 C15.9088028,11.7134884 15.5799655,11.72 15.5571748,11.5506977 C15.5571748,11.4497674 15.6743842,11.3227907 15.8436865,11.264186 C16.4456057,11.1856625 17.0096908,10.926887 17.461826,10.5218605 C18.6827562,9.41162791 19.3599655,6.67348837 19.089733,5.98 Z M5.18740741,6.15581395 L7.17996555,6.15581395 C7.2157795,7.32790698 7.42415159,9.18372093 8.25763997,10.6911628 C7.64971742,10.6957213 7.06207198,10.4727412 6.61019811,10.0660465 C5.44787252,9.0144186 4.90089578,6.15255814 5.18740741,6.15255814 L5.18740741,6.15581395 Z M17.0385702,10.0627907 C16.5866963,10.4694854 15.9990509,10.6924655 15.3911283,10.687907 C16.2246167,9.18046512 16.4329888,7.32790698 16.4688028,6.15255814 L18.4613609,6.15255814 C18.7446167,6.15255814 18.19764,9.0144186 17.0385702,10.0627907 L17.0385702,10.0627907 Z" fill="#FFFFFF"></path>
    </g>
</svg>