<svg xmlns="http://www.w3.org/2000/svg" width="24" height="24" viewBox="0 0 24 24">
    <title/>

    <g>
        <title>Layer 1</title>
        <g stroke="null" id="_1">
            <path stroke="null" id="svg_1" d="m16.49891,21.75076l-8.99831,0a1.99228,1.99228 0 0 1 -1.98742,-1.98742l0,-14.01594a0.72888,0.72888 0 0 1 0.72888,-0.72888l11.51636,0a0.72888,0.72888 0 0 1 0.72888,0.72888l0,14.01594a1.99228,1.99228 0 0 1 -1.98839,1.98742zm-9.52796,-15.27448l0,13.28706a0.53014,0.53014 0 0 0 0.52966,0.52966l8.99831,0a0.53014,0.53014 0 0 0 0.53014,-0.52966l0,-13.28706l-10.05811,0z"/>
            <path stroke="null" id="svg_2" d="m15.06107,6.47628l-6.12262,0a0.72888,0.72888 0 0 1 -0.72888,-0.72888l0,-1.32462a2.17645,2.17645 0 0 1 2.17402,-2.17353l3.23236,0a2.17645,2.17645 0 0 1 2.17402,2.17353l0,1.32462a0.72888,0.72888 0 0 1 -0.72888,0.72888zm-5.39374,-1.45777l4.66485,0l0,-0.59574a0.71674,0.71674 0 0 0 -0.71625,-0.71576l-3.23236,0a0.71674,0.71674 0 0 0 -0.71576,0.71576l-0.00049,0.59574z"/>
            <path stroke="null" id="svg_3" d="m11.99976,18.96059a0.72888,0.72888 0 0 1 -0.72888,-0.72888l0,-9.69366a0.72888,0.72888 0 1 1 1.45777,0l0,9.69366a0.72888,0.72888 0 0 1 -0.72888,0.72888z"/>
            <path stroke="null" id="svg_4" d="m9.368,18.96059a0.72888,0.72888 0 0 1 -0.72888,-0.72888l0,-9.69366a0.72888,0.72888 0 0 1 1.45777,0l0,9.69366a0.72888,0.72888 0 0 1 -0.72888,0.72888z"/>
            <path stroke="null" id="svg_5" d="m14.632,18.96059a0.72888,0.72888 0 0 1 -0.72888,-0.72888l0,-9.69366a0.72888,0.72888 0 0 1 1.45777,0l0,9.69366a0.72888,0.72888 0 0 1 -0.72888,0.72888z"/>
            <path stroke="null" id="svg_6" d="m18.88771,6.47628l-13.77541,0a0.72888,0.72888 0 0 1 0,-1.45777l13.77541,0a0.72888,0.72888 0 0 1 0,1.45777z"/>
        </g>
    </g>
</svg>