<svg xmlns="http://www.w3.org/2000/svg" width="118" height="34" viewBox="0 0 118 34">
    <g fill="none" fill-rule="evenodd">
        <g fill="#FFF" fill-rule="nonzero">
            <g>
                <path d="M41.41 20.177h-5.833c-.4.058-.805-.077-1.091-.363-.286-.286-.42-.69-.363-1.09V9.25h2.18v8.735h5.1v2.192h.007zm1.465-10.933v10.933h2.18V9.25l-2.18-.006zm5.821 0H46.51l3.206 10.922h3.043l3.206-10.922h-2.169l-2.538 8.676-2.562-8.676zm12.375 6.584l.727-2.181h-2.931v-2.204h5.1V9.25h-5.81c-.4-.057-.804.077-1.09.363-.286.286-.42.69-.363 1.091v8.014c-.058.4.077.804.363 1.09.286.287.69.421 1.09.363h5.827v-2.186h-5.1v-2.157h2.187zM74.184 15.077c.056-.4-.08-.802-.365-1.088-.286-.285-.688-.42-1.088-.366h-2.902l-.727 2.205h2.902v2.18h-4.367v-6.577h6.56v-2.18H66.91c-.4-.058-.805.076-1.091.362-.286.286-.42.69-.363 1.091v8.014c-.058.4.077.804.363 1.09.286.287.69.421 1.09.363h5.828c.4.058.804-.076 1.09-.363.287-.286.421-.69.363-1.09v-3.635l-.006-.006zm1.454 5.1v-9.473c-.057-.4.077-.805.363-1.09.286-.287.69-.421 1.091-.364h5.827c.4-.057.805.077 1.09.363.287.286.421.69.364 1.091v9.473h-2.18v-2.93h-4.374v2.93h-2.18zm6.554-8.746H77.82v3.635h4.373V11.43zm10.933 0v8.746h-2.193v-8.734h-2.93v8.734H85.82v-9.461c-.058-.4.076-.805.363-1.091.286-.286.69-.42 1.09-.363h9.45c.4-.058.805.077 1.091.363.286.286.42.69.363 1.09v9.462h-2.18v-8.74l-2.873-.006zm10.903 4.397l.727-2.181h-2.93v-2.204h5.1V9.25h-5.804c-.403-.062-.81.071-1.1.358-.289.287-.424.693-.366 1.096v8.014c-.058.4.077.804.363 1.09.286.287.69.421 1.091.363h5.827v-2.186h-5.1v-2.157h2.192zm13.114-6.56h-7.287c-.402-.056-.807.08-1.093.369-.286.288-.42.695-.36 1.096v3.635c-.057.4.079.801.365 1.085.286.284.69.416 1.088.357h5.1v2.18h-6.56v2.181h7.287c.4.058.805-.076 1.091-.363.286-.286.42-.69.363-1.09v-3.635c.053-.399-.083-.8-.368-1.083-.286-.283-.688-.416-1.086-.359h-5.1v-2.198h5.827l.733-2.175zM34.809 21.766h2.538v.545h-1.934v.932h1.723v.545h-1.723v1.384h-.586v-3.4l-.018-.006zm6.765 3.44c-.2-.001-.397-.033-.586-.093-.175-.06-.333-.157-.464-.287-.13-.135-.23-.295-.298-.47-.07-.21-.104-.433-.1-.656v-1.934h.586V23.7c-.02.262.059.522.223.727.358.322.902.322 1.26 0 .163-.199.243-.453.223-.71v-1.951h.586v1.928c.003.227-.03.453-.1.669-.065.179-.167.342-.298.48-.13.13-.29.228-.464.288-.187.07-.386.104-.586.1l.018-.024zm5.305-2.93H45.8v-.551h2.767v.55h-1.084v2.85h-.586l-.018-2.85zm5.862 2.93c-.2 0-.397-.031-.586-.093-.174-.06-.333-.157-.463-.287-.13-.133-.228-.293-.288-.47-.07-.21-.103-.433-.1-.656v-1.94h.587v1.934c-.005.27.096.531.281.727.359.322.902.322 1.26 0 .164-.198.244-.453.224-.709V21.76h.586v1.923c.003.226-.03.452-.1.668-.063.18-.165.344-.299.48-.13.13-.289.229-.463.288-.198.074-.41.104-.621.088h-.018zm5.944-1.758c.183.012.364-.042.51-.152.124-.105.195-.26.194-.422.01-.162-.057-.319-.182-.422-.154-.102-.337-.151-.522-.141h-.844v1.172l.844-.035zm-1.477-1.688h1.518c.2-.001.397.03.586.094.155.053.296.141.41.258.09.094.16.206.206.328.049.131.073.27.07.41.002.13-.018.258-.058.381-.038.108-.094.21-.164.3-.074.085-.161.159-.258.216-.103.062-.213.109-.329.14l.92 1.29h-.697l-.838-1.172h-.733v1.173h-.586v-3.424l-.047.006zm5.698 0h2.532v.516H63.51v.88h1.711v.533H63.51v.932h1.958v.533h-2.55V21.76h-.012zm8.535 2.931c.16 0 .317-.031.463-.094.136-.06.257-.148.358-.258.211-.231.325-.536.316-.85-.001-.16-.03-.318-.082-.469-.052-.143-.132-.274-.234-.387-.103-.112-.23-.2-.37-.257-.296-.134-.635-.134-.932 0-.135.06-.257.148-.357.257-.212.232-.325.537-.317.85.002.16.03.319.082.47.053.142.132.274.235.386.102.112.229.2.37.258.148.062.307.093.468.094zm0 .551c-.971 0-1.759-.787-1.759-1.759-.001-.231.045-.46.135-.674.085-.217.21-.416.37-.586.337-.34.798-.53 1.277-.522.246-.004.49.044.716.141.217.09.416.219.586.381.153.162.277.348.37.551.09.213.138.442.14.674.001.232-.044.461-.135.674-.277.669-.935 1.1-1.659 1.085l-.041.035zm3.658-3.47h2.538v.545h-1.934v.932h1.723v.545h-1.723v1.384h-.586v-3.4l-.018-.006zm6.864 0h.587v3.435h-.587v-3.435zm5.276 3.464c-.248.001-.495-.045-.727-.135-.42-.165-.751-.499-.914-.92-.086-.222-.128-.46-.123-.698-.002-.231.044-.46.135-.674.164-.427.497-.768.92-.943.225-.094.466-.141.71-.141.137 0 .274.01.41.03.115.02.23.052.34.093.104.036.204.083.299.14.092.06.18.124.263.194l-.38.451-.206-.152c-.07-.041-.142-.078-.217-.111-.079-.033-.161-.057-.246-.07-.1-.011-.2-.011-.299 0-.152-.003-.303.031-.44.099-.13.062-.248.15-.345.258-.101.112-.18.24-.235.38-.058.148-.086.306-.082.464.002.167.03.333.082.492.052.143.132.275.235.387.102.112.228.2.369.258.149.062.308.093.469.094.158-.002.314-.03.463-.082.132-.04.257-.101.37-.182v-.674h-.874v-.522h1.454v1.437c-.094.07-.182.14-.276.205-.217.141-.46.239-.715.287-.145.025-.293.034-.44.03v.005zm6.449-1.413l-.587-1.36-.586 1.36h1.173zm-.862-2.08h.55l1.496 3.435h-.633l-.346-.821h-1.606l-.346.82h-.587l1.472-3.435zm4.813.029h.633l1.037 1.606 1.038-1.606h.633v3.4h-.586v-2.45l-1.079 1.606-1.067-1.6v2.438h-.586v-3.4l-.023.006zm6.448 0h.586v3.4h-.586v-3.4zm3.687 0h.551l1.823 2.345v-2.345h.586v3.4h-.504l-1.876-2.427v2.427h-.586v-3.4h.006zm7.62 3.464c-.248.001-.494-.045-.726-.135-.42-.165-.751-.499-.915-.92-.086-.222-.128-.46-.123-.698-.001-.231.045-.46.135-.674.165-.427.497-.768.92-.943.225-.094.466-.141.71-.141.137 0 .274.01.41.03.116.02.23.052.34.093.104.036.205.083.3.14.091.06.18.124.263.194l-.381.451-.205-.152c-.07-.041-.143-.078-.217-.111-.08-.033-.162-.057-.246-.07-.099-.021-.199-.031-.3-.03-.152-.002-.302.032-.439.1-.131.062-.249.15-.346.258-.1.111-.18.24-.234.38-.038.144-.048.293-.03.44.003.168.03.334.082.493.053.143.132.274.235.387.103.112.229.2.37.258.148.06.307.093.468.093.154.003.306-.021.452-.07.132-.04.257-.101.369-.182v-.633h-.874v-.522h1.442v1.437c-.093.07-.181.14-.275.205-.217.141-.46.239-.715.287-.14.012-.282.014-.422.006l-.047.03zM.569 15.095L.569 16.766.569 21.033.569 25.178 2.292 26.174 7.855 29.381 11.542 31.514 13.588 32.699 13.588 28.542 9.485 26.174 5.886 24.105 4.649 23.39 4.649 18.266 4.649 17.451 4.649 15.787 4.649 11.624.569 9.268.569 13.43zM19.233 21.074L19.233 19.491 29.709 13.448 29.709 9.297 19.233 15.347 15.159 17.703 15.159 21.848 15.159 23.431 15.159 27.575 15.159 29.422 15.159 33.578 18.735 31.514 19.233 31.227 22.422 29.381 22.434 29.381 24.398 28.243 27.997 26.162 29.709 25.178 29.709 21.033 29.709 19.187 29.709 16.766 29.709 15.036 25.617 17.381 22.434 19.228 22.434 23.39 25.617 21.543 25.617 23.39 24.398 24.081 22.434 25.23 20.804 26.162 19.233 27.065 19.233 25.23zM11.202 7.228c-.315-.11-.526-.408-.526-.742s.211-.631.526-.741c.81-.41 1.765-.41 2.574 0 .315.11.526.407.526.741s-.21.632-.526.742c-.809.41-1.765.41-2.574 0zm4.479 8.512l11.87-6.841 1.085-.628-6.448-3.728L15.136.475 8.1 4.53l-6.46 3.735 1.085.627 11.87 6.853.546.316.545-.316-.006-.006zM17.844 4.87c-.804.41-1.757.41-2.562 0-.315-.11-.526-.407-.526-.741s.211-.632.526-.742c.81-.41 1.765-.41 2.574 0 .715.41.71 1.079 0 1.483h-.012zm3.166 3.336c-.316-.11-.527-.408-.527-.742s.211-.631.527-.741c.808-.41 1.764-.41 2.573 0 .315.11.527.407.527.741s-.212.632-.527.742c-.809.41-1.765.41-2.573 0zM7.128 8.113c.809-.41 1.765-.41 2.574 0 .315.11.526.408.526.742s-.211.631-.526.741c-.805.41-1.757.41-2.562 0-.71-.41-.715-1.078 0-1.483h-.012zm5.74 3.312c.808-.41 1.764-.41 2.573 0 .315.11.526.408.526.742s-.211.631-.526.741c-.809.41-1.765.41-2.574 0-.315-.11-.526-.407-.526-.741s.211-.632.526-.742zM16.97 9.08c.808-.41 1.764-.41 2.573 0 .315.11.527.408.527.742s-.212.631-.527.741c-.809.41-1.765.41-2.573 0-.322-.104-.54-.403-.54-.741 0-.338.218-.637.54-.742z" transform="translate(-129 -33) translate(129 33)"/>
            </g>
        </g>
    </g>
</svg>
