<svg width="24px" height="24px" viewBox="0 0 24 24" version="1.1" xmlns="http://www.w3.org/2000/svg" xmlns:xlink="http://www.w3.org/1999/xlink">
    <defs>
        <linearGradient x1="50%" y1="132.336301%" x2="50%" y2="3.061617e-15%" id="linearGradient-1-2x">
            <stop stop-color="#635C4D" offset="0%"></stop>
            <stop stop-color="#FFFFFF" offset="100%"></stop>
        </linearGradient>
        <path d="M10.6361246,17.7818182 L10.6361246,16.0675794 C10.6361246,15.9470809 10.5384413,15.8493976 10.4179428,15.8493976 L5.03774348,15.8493976 L5.03774348,15.8493976 C5.21775573,15.3975904 5.59578147,15.0722892 6.0458121,14.7831325 L8.29596528,13.4096386 C9.73606332,12.5240964 10.5641197,11.2951807 10.5641197,9.77710843 C10.5641197,7.73493976 8.96201063,6 6.35183293,6 C3.63364789,6 2.0855425,7.86144578 2.0855425,9.92168675 C2.0855425,10.0805723 2.10592398,10.2926589 2.14668695,10.5579465 C2.16401177,10.6605836 2.25114247,10.7370129 2.35517414,10.7404462 L4.1330061,10.7949454 C4.31368988,10.7997535 4.46402935,10.6571449 4.46879765,10.4764601 C4.46925027,10.459309 4.46835349,10.4421489 4.46585435,10.4251727 C4.45108681,10.3178663 4.44370304,10.2283509 4.44370304,10.1566265 C4.44370304,9.05421687 5.0557447,8.20481928 6.29782926,8.20481928 C7.46790891,8.20481928 8.06194935,8.96385542 8.06194935,9.81325301 C8.06194935,10.626506 7.66592239,11.2409639 6.67585499,11.8373494 L4.74972387,12.9939759 C2.74204598,14.2102884 2.06561928,15.8108466 2.00047027,17.7635253 C2.00034154,17.7673837 2.00021042,17.7715732 2.00007692,17.7760938 C1.99689388,17.8965502 2.09198042,17.9967631 2.21243742,17.9999249 C2.21467289,17.9999836 2.21690912,18.0000079 2.21914535,18 L10.4179428,18 C10.5384413,18 10.6361246,17.9023167 10.6361246,17.7818182 Z M14.2336203,17.8976005 L16.7436832,13.8885542 L16.7436832,13.8885542 L19.2371102,17.8970589 C19.2769316,17.961077 19.3469819,18 19.4223745,18 L21.890653,18 C21.9509022,18 21.9997439,17.9511583 21.9997439,17.8909091 C21.9997439,17.8696578 21.9935369,17.8488692 21.9818852,17.8310969 L18.1979251,12.0593804 L18.1979251,12.0593804 L21.9661495,6.27058466 C21.9990184,6.22009103 21.9847307,6.15251234 21.9342371,6.11964344 C21.9165283,6.10811589 21.8958529,6.10197935 21.8747227,6.10197935 L19.505119,6.10197935 C19.4301796,6.10197935 19.360484,6.14043929 19.320531,6.20384019 L16.7938295,10.2134251 L16.7938295,10.2134251 L14.317036,6.20546498 C14.2772829,6.14113637 14.2070546,6.10197935 14.131434,6.10197935 L11.6798156,6.10197935 C11.6195664,6.10197935 11.5707247,6.15082101 11.5707247,6.21107026 C11.5707247,6.23224837 11.5768891,6.25296859 11.5884657,6.2707026 L15.3563031,12.042599 L15.3563031,12.042599 L11.5719539,17.8312149 C11.5389856,17.8816437 11.5531403,17.9492504 11.6035691,17.9822186 C11.6213163,17.993821 11.6420601,18 11.6632634,18 L14.0486939,18 C14.1238595,18 14.1937322,17.9613093 14.2336203,17.8976005 Z" id="path-2-2x"></path>
        <filter x="-2.5%" y="-4.2%" width="105.0%" height="108.3%" filterUnits="objectBoundingBox" id="filter-3-2x">
            <feOffset dx="0" dy="1" in="SourceAlpha" result="shadowOffsetInner1"></feOffset>
            <feComposite in="shadowOffsetInner1" in2="SourceAlpha" operator="arithmetic" k2="-1" k3="1" result="shadowInnerInner1"></feComposite>
            <feColorMatrix values="0 0 0 0 0.882352941   0 0 0 0 0.870588235   0 0 0 0 0.82745098  0 0 0 0.08 0" type="matrix" in="shadowInnerInner1"></feColorMatrix>
        </filter>
    </defs>
    <g id="icon/double" stroke="none" stroke-width="1" fill="none" fill-rule="evenodd">
        <g fill-rule="nonzero">
            <use fill="url(#linearGradient-1-2x)" xlink:href="#path-2-2x"></use>
            <use fill="black" fill-opacity="1" filter="url(#filter-3-2x)" xlink:href="#path-2-2x"></use>
        </g>
    </g>
</svg>
