<?xml version="1.0" encoding="UTF-8"?>
<svg width="24px" height="24px" viewBox="0 0 24 24" version="1.1" xmlns="http://www.w3.org/2000/svg" xmlns:xlink="http://www.w3.org/1999/xlink">
    <title>icon/livegames_icon</title>
    <g id="icon/livegames_icon" stroke="none" stroke-width="1" fill="none" fill-rule="evenodd">
        <path d="M22.2939623,6.29433962 L22.2939623,9.26037736 L14.8267925,13.5713208 L14.8267925,18.9781132 L15.945283,18.3350943 L17.1045283,17.6649057 L18.5128302,16.8498113 L19.3822642,16.3516981 L19.3822642,15.0339623 L17.1045283,16.3471698 L17.1045283,13.3856604 L19.3822642,12.0724528 L22.2939623,10.3879245 L22.2939623,17.6332075 L21.0803774,18.3350943 L18.5128302,19.8158491 L17.1045283,20.6309434 L17.0954717,20.6354717 L14.8267925,21.9441509 L14.4645283,22.1524528 L11.9150943,23.6286792 L11.9150943,12.2898113 L14.8267925,10.6098113 L22.2939623,6.29433962 Z M1.5,6.28075472 L4.41169811,7.96075472 L4.41169811,16.3516981 L5.29924528,16.8588679 L7.86679245,18.3441509 L10.7920755,20.0332075 L10.7920755,22.9992453 L9.32943396,22.1524528 L6.69849057,20.6354717 L2.73169811,18.3441509 L1.5,17.6332075 L1.5,6.28075472 Z M11.9150943,5.64881475e-13 L16.9188679,2.89811321 L21.5286792,5.55622642 L20.7498113,6.0090566 L12.2864151,10.8950943 L11.8969811,11.1169811 L11.5075472,10.8950943 L3.04415094,6.01358491 L2.26528302,5.56075472 L6.87509434,2.89811321 L11.9150943,5.64881475e-13 Z M12.0690566,7.79773585 C11.4989661,7.51252032 10.8278263,7.51252032 10.2577358,7.79773585 C10.0281046,7.87221357 9.87259169,8.08613996 9.87259169,8.32754717 C9.87259169,8.56895438 10.0281046,8.78288077 10.2577358,8.85735849 C10.8278263,9.14257402 11.4989661,9.14257402 12.0690566,8.85735849 C12.2986879,8.78288077 12.4542008,8.56895438 12.4542008,8.32754717 C12.4542008,8.08613996 12.2986879,7.87221357 12.0690566,7.79773585 Z M14.9762264,6.11773585 C14.4059681,5.8332319 13.735164,5.8332319 13.1649057,6.11773585 L13.1649057,6.11773585 L13.1830189,6.12679245 C12.9588162,6.20142275 12.8061064,6.40940049 12.8020329,6.6456629 C12.7979594,6.88192531 12.9434089,7.09504372 13.1649057,7.17735849 C13.735164,7.46186244 14.4059681,7.46186244 14.9762264,7.17735849 C15.2058577,7.10288077 15.3613706,6.88895438 15.3613706,6.64754717 C15.3613706,6.40613996 15.2058577,6.19221357 14.9762264,6.11773585 Z M7.99358491,5.43396226 C7.42332657,5.14945832 6.75252248,5.14945832 6.18226415,5.43396226 C5.9526329,5.50843999 5.79711999,5.72236637 5.79711999,5.96377358 C5.79711999,6.2051808 5.9526329,6.41910718 6.18226415,6.49358491 C6.75235462,6.77880043 7.42349443,6.77880043 7.99358491,6.49358491 C8.22321616,6.41910718 8.37872906,6.2051808 8.37872906,5.96377358 C8.37872906,5.72236637 8.22321616,5.50843999 7.99358491,5.43396226 Z M17.9060377,4.44679245 C17.3359473,4.16157693 16.6648075,4.16157693 16.094717,4.44679245 C15.8685763,4.52338071 15.716403,4.73558168 15.716403,4.97433962 C15.716403,5.21309757 15.8685763,5.42529854 16.094717,5.50188679 L16.094717,5.50188679 C16.6648075,5.79163062 17.3359473,5.79163062 17.9060377,5.50641509 C18.135669,5.43193737 18.2911819,5.21801099 18.2911819,4.97660377 C18.2911819,4.73519656 18.135669,4.52127017 17.9060377,4.44679245 Z M10.9007547,3.75849057 C10.3306642,3.47327504 9.65952443,3.47327504 9.08943396,3.75849057 C8.85980271,3.83296829 8.7042898,4.04689467 8.7042898,4.28830189 C8.7042898,4.5297091 8.85980271,4.74363549 9.08943396,4.81811321 C9.65952443,5.10332873 10.3306642,5.10332873 10.9007547,4.81811321 C11.130386,4.74363549 11.2858989,4.5297091 11.2858989,4.28830189 C11.2858989,4.04689467 11.130386,3.83296829 10.9007547,3.75849057 Z M13.830566,2.07849057 C13.2603077,1.79398662 12.5895036,1.79398662 12.0192453,2.07849057 C11.789614,2.15296829 11.6341011,2.36689467 11.6341011,2.60830189 C11.6341011,2.8497091 11.789614,3.06363549 12.0192453,3.13811321 C12.5893358,3.42332873 13.2604756,3.42332873 13.830566,3.13811321 C14.0601973,3.06363549 14.2157102,2.8497091 14.2157102,2.60830189 C14.2157102,2.36689467 14.0601973,2.15296829 13.830566,2.07849057 Z" fill="#8F93A3"></path>
    </g>
</svg>