<svg xmlns="http://www.w3.org/2000/svg" width="24" height="24" viewBox="0 0 24 24">
    <g fill="none" fill-rule="evenodd" opacity=".5">
        <g fill="#F9F9F9">
            <g>
                <g>
                    <g>
                        <path d="M19.3 12.5c.387 0 .7.313.7.7 0 .387-.313.7-.7.7H14V19c0 .552-.448 1-1 1H5c-.552 0-1-.448-1-1V5c0-.552.448-1 1-1h8c.552 0 1 .448 1 1v6.1H9.888l1.607-1.605.074-.087c.153-.213.172-.492.057-.721l-.057-.095-.074-.087-.087-.074c-.213-.153-.492-.172-.721-.057l-.095.057-.087.074-3 3-.074.087c-.153.213-.172.492-.057.721l.057.095.074.087 3 3 .087.074c.273.197.657.172.903-.074.219-.219.262-.546.131-.808l-.057-.095-.074-.087L9.49 12.5h9.81z" transform="translate(-114 -484) translate(0 72) translate(20 30) translate(0 371) translate(94 11)"/>
                    </g>
                </g>
            </g>
        </g>
    </g>
</svg>
