<svg xmlns="http://www.w3.org/2000/svg" xmlns:xlink="http://www.w3.org/1999/xlink" width="28" height="28" viewBox="0 0 28 28">
    <defs>
        <filter id="j8bfu20mib" width="108.6%" height="105.3%" x="-4.3%" y="-2.7%" filterUnits="objectBoundingBox">
            <feOffset dy="1" in="SourceAlpha" result="shadowOffsetInner1"/>
            <feComposite in="shadowOffsetInner1" in2="SourceAlpha" k2="-1" k3="1" operator="arithmetic" result="shadowInnerInner1"/>
            <feColorMatrix in="shadowInnerInner1" values="0 0 0 0 0.847058824 0 0 0 0 0.847058824 0 0 0 0 0.847058824 0 0 0 1 0"/>
        </filter>
        <path id="bgohasmeia" d="M8.853 19.818H10.604c.111 0 .216.053.282.142l.03.041c.473.614 1.124 1.082 1.876 1.328l.072.022c.096.029.163.117.163.218l.001 1.603c0 .097-.078.176-.175.176-.012 0-.024-.001-.035-.003l-.036-.008c-1.82-.386-3.325-1.62-4.084-3.27l-.004-.008c-.038-.087.003-.189.09-.227.022-.009.045-.014.069-.014zm10.473.197l-.005.012c-.748 1.658-2.249 2.904-4.067 3.302l-.052.011c-.103.022-.204-.045-.225-.149-.003-.012-.004-.025-.004-.038v-1.52c0-.137.09-.258.22-.3l.025-.008c.756-.249 1.409-.723 1.88-1.343l.017-.022c.066-.09.17-.142.281-.142h1.802c.077 0 .14.063.14.14 0 .02-.004.04-.012.057zm.507-4.709l-.003 2.218c0 .193-.157.35-.35.35h-1.24c-.194 0-.35-.157-.35-.35v-2.218c0-.193.156-.35.35-.35h1.243c.194 0 .35.157.35.35zm-11.316-.35H9.76c.193 0 .35.157.35.35v2.217c0 .194-.157.35-.35.35H8.52c-.194 0-.35-.156-.35-.35l-.004-2.217c0-.193.156-.35.35-.35zm10.966-1.945H18.24c-.193 0-.35-.156-.35-.35v-2.217c0-.193.157-.35.35-.35h1.24c.193 0 .35.156.35.35l.004 2.216c0 .194-.156.35-.349.351zM8.52 10.095h1.24c.194 0 .35.156.35.35v2.216c0 .194-.156.35-.35.35H8.518c-.194 0-.35-.156-.35-.35l.003-2.217c0-.193.157-.349.35-.349zm6.636-5.476l.027.005c1.81.373 3.315 1.585 4.089 3.213l.011.024c.047.101.003.222-.098.27-.027.012-.057.018-.086.018H17.395c-.111 0-.216-.052-.282-.142l-.047-.062c-.462-.59-1.09-1.044-1.814-1.29l-.035-.012c-.145-.046-.244-.18-.244-.333v-.007-1.534c0-.084.068-.153.153-.153.01 0 .02 0 .03.003zm-2.128.2l-.001 1.521v.017c0 .124-.081.234-.2.272-.768.243-1.434.718-1.914 1.343l-.027.036c-.066.089-.17.142-.281.142H8.783c-.07 0-.127-.058-.127-.128 0-.018.003-.036.01-.052.746-1.675 2.257-2.934 4.09-3.333l.043-.008c.105-.02.206.048.226.153.002.012.003.024.003.037z"/>
    </defs>
    <g fill="none" fill-rule="evenodd">
        <g fill-rule="nonzero">
            <g>
                <g>
                    <g transform="translate(-330 -465) translate(320 410) translate(6 51) translate(4 4)">
                        <use fill="#FFF" xlink:href="#bgohasmeia"/>
                        <use fill="#000" filter="url(#j8bfu20mib)" xlink:href="#bgohasmeia"/>
                    </g>
                </g>
            </g>
        </g>
    </g>
</svg>
