<svg width="25" height="24" viewBox="0 0 25 24" xmlns="http://www.w3.org/2000/svg" xmlns:xlink="http://www.w3.org/1999/xlink">
    <defs>
        <linearGradient x1="50%" y1="132.336%" x2="50%" y2="0%" id="volume-vip-zrwo8cjgra">
            <stop stop-color="#8C794E" offset="0%"/>
            <stop stop-color="#FFF" offset="100%"/>
        </linearGradient>
        <linearGradient x1="50%" y1="0%" x2="50%" y2="99.502%" id="volume-vip-ut71cwk1kd">
            <stop stop-color="#FFF" offset="0%"/>
            <stop stop-color="#8C794E" offset="100%"/>
        </linearGradient>
        <filter x="-5.6%" y="-3.6%" width="111.1%" height="107.1%" filterUnits="objectBoundingBox" id="volume-vip-5ke25ktavc">
            <feOffset dy="1" in="SourceAlpha" result="shadowOffsetInner1"/>
            <feComposite in="shadowOffsetInner1" in2="SourceAlpha" operator="arithmetic" k2="-1" k3="1" result="shadowInnerInner1"/>
            <feColorMatrix values="0 0 0 0 0.882352941 0 0 0 0 0.870588235 0 0 0 0 0.82745098 0 0 0 0.08 0" in="shadowInnerInner1"/>
        </filter>
        <path d="M4 4.766H.5a.5.5 0 0 0-.5.5v5a.5.5 0 0 0 .5.5H4l4.513 3.61A.3.3 0 0 0 9 14.142V1.391a.3.3 0 0 0-.487-.235L4 4.766z" id="volume-vip-wqmq5lok6b"/>
    </defs>
    <g fill-rule="nonzero" fill="none">
        <g transform="translate(2.001 4)">
            <use fill="url(#volume-vip-zrwo8cjgra)" xlink:href="#volume-vip-wqmq5lok6b"/>
            <use fill="#000" filter="url(#volume-vip-5ke25ktavc)" xlink:href="#volume-vip-wqmq5lok6b"/>
        </g>
        <path d="M18.5 0c4.34 4.342 4.416 11.335.224 15.768L18.5 16l-1.153-1.152c3.711-3.712 3.78-9.686.206-13.482l-.206-.213L18.5 0zm-3.707 3.707a6.065 6.065 0 0 1 .178 8.39l-.178.185-1.152-1.152a4.435 4.435 0 0 0 .162-6.1l-.162-.171 1.152-1.152z" fill="url(#volume-vip-ut71cwk1kd)" transform="translate(2.001 4)"/>
    </g>
</svg>
