<svg width="28" height="28" xmlns="http://www.w3.org/2000/svg">
    <path d="m21 2.683.23.006A4.317 4.317 0 0 1 25.316 7v14l-.006.23A4.317 4.317 0 0 1 21 25.316h-7l-.11-.008a.817.817 0 0 1 .11-1.626h7l.184-.006a2.684 2.684 0 0 0 2.5-2.677V7l-.007-.184A2.684 2.684 0 0 0 21 4.316H7l-.184.007A2.684 2.684 0 0 0 4.316 7v2.333l-.007.111a.817.817 0 0 1-1.626-.11V7l.006-.23A4.317 4.317 0 0 1 7 2.684h14zm-12.833 10.5c1.095 0 1.983.888 1.983 1.984v8.166a1.983 1.983 0 0 1-1.983 1.984h-3.5a1.983 1.983 0 0 1-1.984-1.984v-8.166c0-1.096.888-1.984 1.984-1.984h3.5zM19.833 7.35h.04l.045.004.026.003a.815.815 0 0 1 .467.232l-.09-.077a.821.821 0 0 1 .322.551l.007.104v4.666l-.007.111a.817.817 0 0 1-.81.706l-.11-.007a.817.817 0 0 1-.706-.81v-2.696l-4.44 4.44-.1.087a.817.817 0 0 1-1.054-1.241l4.437-4.44h-2.693l-.111-.007a.817.817 0 0 1 .11-1.626h4.667z" fill="#FFF" fill-rule="nonzero"/>
</svg>