<svg xmlns="http://www.w3.org/2000/svg" width="24" height="24" viewBox="0 0 24 24">
    <g fill="none" fill-rule="evenodd" opacity=".5">
        <g fill="#FFF">
            <g>
                <g>
                    <g>
                        <path d="M12 4c.803 0 1.455.651 1.455 1.455v.065c.001.478.287.91.727 1.098.449.198.973.103 1.323-.24l.044-.043c.273-.274.643-.427 1.03-.427.385 0 .755.153 1.028.427.273.272.427.643.427 1.029 0 .386-.154.756-.427 1.029l-.043.043c-.343.351-.438.875-.24 1.324v.058c.188.44.62.726 1.098.727h.123c.804 0 1.455.652 1.455 1.455s-.651 1.455-1.455 1.455h-.065c-.478.001-.91.287-1.098.727-.198.449-.103.973.24 1.323l.043.044c.274.273.427.643.427 1.03 0 .385-.153.755-.427 1.028-.272.273-.643.427-1.029.427-.386 0-.756-.154-1.029-.427l-.043-.043c-.351-.343-.875-.438-1.324-.24-.44.188-.725.62-.727 1.098v.123c0 .804-.651 1.455-1.455 1.455-.803 0-1.454-.651-1.454-1.455v-.065c-.012-.493-.323-.928-.786-1.098-.449-.198-.973-.103-1.323.24l-.044.043c-.273.274-.643.427-1.03.427-.385 0-.755-.153-1.028-.427-.273-.272-.427-.643-.427-1.029 0-.386.154-.756.427-1.029l.043-.043c.343-.351.438-.875.24-1.324-.188-.44-.62-.725-1.098-.727h-.123C4.65 13.513 4 12.862 4 12.058c0-.803.651-1.454 1.455-1.454h.065c.493-.012.928-.323 1.098-.786.198-.449.103-.973-.24-1.323l-.043-.044c-.274-.273-.427-.643-.427-1.03 0-.385.153-.755.427-1.028.272-.273.643-.427 1.029-.427.386 0 .756.154 1.029.427l.043.043c.351.343.875.438 1.324.24h.058c.44-.188.726-.62.727-1.098v-.123C10.545 4.65 11.197 4 12 4zm0 5.818c-1.205 0-2.182.977-2.182 2.182s.977 2.182 2.182 2.182 2.182-.977 2.182-2.182S13.205 9.818 12 9.818z" transform="translate(-30 -343) translate(0 72) translate(20 30) translate(0 230) translate(10 11)"/>
                    </g>
                </g>
            </g>
        </g>
    </g>
</svg>
