<svg xmlns="http://www.w3.org/2000/svg" width="24" height="24" viewBox="0 0 24 24">
    <g fill="none" fill-rule="evenodd">
        <g fill="#FFF">
            <g>
                <g>
                    <g>
                        <g>
                            <g>
                                <path d="M13.465 2c0 1.255.473 2.398 1.42 3.43l1.51 1.641.466.518c1.064 1.19 1.946 2.28 2.501 3.357.102.142.335.72.368.848.175.504.27 1.01.27 1.527l-.004.343.004.225C20 18.37 16.418 22 12 22s-8-3.631-8-8.11c0-.192.007-.381.02-.569H4l.023-.055c.152-2.018 1.031-3.83 2.373-5.165.52 2.44 1.268 3.76 2.244 3.962l.098.017-.022-.081-.046-.19-.06-.29-.029-.153-.044-.28c-.022-.154-.043-.323-.06-.505l-.024-.297-.015-.278-.005-.15-.003-.186.002-.282.004-.146.006-.143.013-.207c.014-.202.035-.41.064-.62l.054-.342.055-.284.057-.248.071-.272.032-.11.048-.157c.522-1.642 1.646-3.339 3.913-4.541l.244-.125.472-.193zm-.824 11l-.206.087-.107.056c-.992.541-1.484 1.305-1.712 2.043l-.021.071-.014.05-.031.122-.025.112-.024.128-.024.153c-.013.095-.022.189-.028.28l-.006.092-.002.065-.002.066V16.536l.003.067.006.125.01.133c.008.082.017.158.027.228l.02.126.012.069.026.13.02.085.01.037-.043-.008c-.427-.09-.754-.685-.982-1.783-.587.601-.972 1.417-1.038 2.325l-.01.025c.003.084 0 .17 0 .255C8.5 20.366 10.067 22 12 22s3.5-1.634 3.5-3.65l-.002-.101.002-.154c0-.233-.042-.46-.118-.688-.015-.057-.03-.114-.048-.17-.03-.078-.068-.147-.113-.211-.243-.485-.629-.975-1.094-1.511l-.205-.233-.66-.738c-.414-.465-.621-.98-.621-1.544z" transform="translate(-25 -312) translate(0 40) translate(7 149) translate(12 60) translate(0 39) translate(0 18) translate(6 6)"/>
                            </g>
                        </g>
                    </g>
                </g>
            </g>
        </g>
    </g>
</svg>
