<svg width="24" height="24" xmlns="http://www.w3.org/2000/svg">
    <path d="M5.333 18.212a.7.7 0 0 1-.025-.105v-.003L5.3 18v-4l.006-.095A.7.7 0 0 1 6 13.3l.095.006A.7.7 0 0 1 6.7 14v2.31l3.048-3.048.086-.073a.7.7 0 0 1 .904 1.063L7.688 17.3H10l.095.006A.7.7 0 0 1 10 18.7H6.012c-.021 0-.042 0-.063-.002l-.044-.004a.7.7 0 0 1-.4-.199l.069.06a.704.704 0 0 1-.058-.049l-.011-.011a.713.713 0 0 1-.137-.194l-.002-.004zM18 5.3l.095.006a.7.7 0 0 1 .4.199l-.069-.06c.02.015.04.032.058.049l.011.011a.713.713 0 0 1 .172.283A.713.713 0 0 1 18.7 6l-.003-.06a.704.704 0 0 1 .003.072V10l-.006.095A.7.7 0 0 1 18 10.7l-.095-.006A.7.7 0 0 1 17.3 10V7.688l-3.048 3.05-.086.073a.7.7 0 0 1-.904-1.063L16.31 6.7H14l-.095-.006A.7.7 0 0 1 14 5.3h4z" fill="#FFF" fill-rule="nonzero"/>
</svg>
