<svg xmlns="http://www.w3.org/2000/svg" width="24" height="24" viewBox="0 0 24 24">
    <g fill="none" fill-rule="evenodd" opacity=".5">
        <g fill="#FFF" fill-rule="nonzero">
            <g>
                <g>
                    <path d="M17.836 5.379c3.509 1.446 4.402 5.927 1.13 9.054-1.64 1.594-3.86 3.45-6.659 5.567-.095.067-.197.1-.307.1-.11 0-.212-.033-.307-.1-2.659-2.011-4.795-3.787-6.41-5.326l-.25-.241c-3.271-3.127-2.378-7.608 1.131-9.054 2.26-.833 4.238-.285 5.836 1.57 1.598-1.855 3.576-2.403 5.836-1.57z" transform="translate(-22 -153) translate(0 40) translate(7 103) translate(15 10)"/>
                </g>
            </g>
        </g>
    </g>
</svg>
