<?xml version="1.0" encoding="UTF-8"?>
<svg width="30px" height="20px" viewBox="0 0 30 20" version="1.1" xmlns="http://www.w3.org/2000/svg" xmlns:xlink="http://www.w3.org/1999/xlink">
    <title>icon/RU@3x</title>
    <g id="Menu" stroke="none" stroke-width="1" fill="none" fill-rule="evenodd">
        <g id="Auto-Mobile---Menu---Dil-Secimi" transform="translate(-65.000000, -241.000000)">
            <g id="languages" transform="translate(15.000000, 137.000000)">
                <g id="Group-7" transform="translate(0.000000, 92.000000)">
                    <g id="icon/RU" transform="translate(50.000000, 12.000000)">
                        <rect id="Rectangle-2" fill="#0C47B7" x="0" y="6.66666667" width="30" height="6.66666667"></rect>
                        <path d="M0,17.9997802 C0,19.1044711 0.89784041,20 1.99161703,20 L28.008383,20 C29.1083227,20 30,19.1009037 30,17.9997802 L30,13.3333333 L0,13.3333333 L0,17.9997802 Z" id="Rectangle-2" fill="#E53B35"></path>
                        <path d="M0,4.66644684 C0,5.77113775 0.89784041,6.66666667 1.99161703,6.66666667 L28.008383,6.66666667 C29.1083227,6.66666667 30,5.76757034 30,4.66644684 L30,0 L0,0 L0,4.66644684 Z" id="Rectangle-2" fill="#FFFFFF" transform="translate(15.000000, 3.333333) scale(1, -1) translate(-15.000000, -3.333333) "></path>
                    </g>
                </g>
            </g>
        </g>
    </g>
</svg>