<svg xmlns="http://www.w3.org/2000/svg" xmlns:xlink="http://www.w3.org/1999/xlink" width="44" height="77" viewBox="0 0 44 77">
    <defs>
        <rect id="54b0h2oeaa" width="28" height="4" x="0" y="0" rx="1"/>
    </defs>
    <g fill="none" fill-rule="evenodd" opacity=".5">
        <g>
            <g>
                <path fill="#000" fill-opacity=".32" stroke="#FFF" d="M7.692 0h26.616c2.675 0 3.645.278 4.623.801.977.523 1.745 1.29 2.268 2.268.523.978.801 1.948.801 4.623v59.616c0 2.675-.278 3.645-.801 4.623-.523.977-1.29 1.745-2.268 2.268-.978.523-1.948.801-4.623.801H7.692c-2.675 0-3.645-.278-4.623-.801-.977-.523-1.745-1.29-2.268-2.268C.278 70.953 0 69.983 0 67.308V7.692c0-2.675.278-3.645.801-4.623.523-.977 1.29-1.745 2.268-2.268C4.047.278 5.017 0 7.692 0z" transform="translate(-101.000000, -531.000000) translate(102.000000, 532.000000)"/>
                <g transform="translate(-101.000000, -531.000000) translate(102.000000, 532.000000) translate(6.000000, 39.000000)">
                    <rect width="29.25" height="3.25" x=".375" y="25.375" stroke="#FFF" stroke-width=".75" rx="1.625"/>
                    <rect width="12" height="3" y="20" fill="#FFF" rx="1.5"/>
                    <rect width="22" height="6" y="12" fill="#FFF" rx="1"/>
                    <rect width="22" height="4" y="6" fill="#FFF" rx="1"/>
                    <use fill="#FFF" style="mix-blend-mode:multiply" xlink:href="#54b0h2oeaa"/>
                </g>
            </g>
        </g>
    </g>
</svg>
