<svg xmlns="http://www.w3.org/2000/svg" width="44" height="77" viewBox="0 0 44 77">
    <g fill="none" fill-rule="evenodd">
        <g>
            <g>
                <g>
                    <path fill="#000" fill-opacity=".32" stroke="#FFF" stroke-width="2" d="M7.692 0h26.616c2.675 0 3.645.278 4.623.801.977.523 1.745 1.29 2.268 2.268.523.978.801 1.948.801 4.623v59.616c0 2.675-.278 3.645-.801 4.623-.523.977-1.29 1.745-2.268 2.268-.978.523-1.948.801-4.623.801H7.692c-2.675 0-3.645-.278-4.623-.801-.977-.523-1.745-1.29-2.268-2.268C.278 70.953 0 69.983 0 67.308V7.692c0-2.675.278-3.645.801-4.623.523-.977 1.29-1.745 2.268-2.268C4.047.278 5.017 0 7.692 0z" opacity=".5" transform="translate(-231.000000, -531.000000) translate(102.000000, 532.000000) translate(130.000000, 0.000000)"/>
                    <path fill="#FFF" fill-rule="nonzero" d="M12.207 59.47h3.118c.113 0 .218.054.284.146.05.07.091.125.124.167.807 1.048 1.92 1.848 3.204 2.268l.149.045c.149.044.251.18.251.336v.029l.003 2.738c0 .166-.134.3-.3.301-.02 0-.04-.002-.06-.006l-.06-.012c-3.109-.66-5.68-2.77-6.978-5.586l-.006-.014c-.064-.15.004-.323.154-.388.037-.016.076-.024.117-.024zm17.891.337l-.009.02c-1.278 2.833-3.841 4.96-6.947 5.641l-.089.019c-.176.036-.349-.078-.385-.255-.004-.021-.006-.043-.006-.065V62.57v-.137c0-.155.103-.292.252-.336l.167-.051c1.29-.426 2.406-1.236 3.211-2.295.027-.034.06-.079.099-.134.066-.092.172-.146.284-.146h3.204c.133 0 .24.107.24.24 0 .033-.007.066-.02.097zm.867-8.293l-.007 4.285c0 .193-.157.349-.35.349h-2.614c-.193 0-.35-.157-.35-.35v-4.284c0-.194.157-.35.35-.35h2.621c.194 0 .35.156.35.35zm-19.58-.35h2.621c.193 0 .35.156.35.35v4.284c0 .193-.157.35-.35.35l-2.614-.001c-.193 0-.35-.157-.35-.35l-.007-4.283c0-.193.156-.35.349-.35zm19.23-3.322h-2.62c-.194 0-.35-.157-.35-.35v-4.283c0-.194.156-.35.35-.35h2.611c.193 0 .35.156.35.349l.01 4.283c0 .193-.157.35-.35.35zM11.392 42.86l2.614-.001c.193 0 .35.156.35.35v4.283c0 .193-.157.35-.35.35h-2.621c-.194 0-.35-.157-.35-.35v-.001l.007-4.281c0-.193.157-.35.35-.35zm11.583-9.355l.045.01c3.094.636 5.665 2.707 6.986 5.487l.02.041c.08.174.005.38-.17.461-.045.021-.095.032-.146.032h-3.037c-.112 0-.218-.054-.284-.145-.062-.086-.112-.154-.152-.204-.788-1.009-1.861-1.784-3.098-2.204-.058-.02-.133-.043-.225-.07-.149-.044-.251-.18-.251-.336v-.195l-.001-2.62c0-.145.117-.262.262-.262.017 0 .034.002.05.005zm-3.635.341l-.003 2.6v.13c0 .155-.102.292-.251.336l-.089.027c-1.313.414-2.45 1.226-3.27 2.294-.03.04-.07.092-.117.158-.065.091-.171.145-.284.145H12.088c-.12 0-.218-.097-.218-.218 0-.03.007-.06.02-.088 1.272-2.862 3.853-5.013 6.984-5.693l.074-.015c.179-.034.352.083.386.262.004.02.006.041.006.062z" transform="translate(-231.000000, -531.000000) translate(102.000000, 532.000000) translate(130.000000, 0.000000)"/>
                </g>
            </g>
        </g>
    </g>
</svg>
