<svg xmlns="http://www.w3.org/2000/svg" width="44" height="77" viewBox="0 0 44 77">
    <g fill="none" fill-rule="evenodd">
        <g>
            <g>
                <g>
                    <path fill="#000" fill-opacity=".32" stroke="#FFF" stroke-width="2" d="M7.666 0h26.668C37 0 37.966.278 38.94.799c.974.52 1.74 1.286 2.26 2.26C41.722 4.034 42 5 42 7.666v59.668c0 2.666-.278 3.632-.799 4.607-.52.974-1.286 1.74-2.26 2.26-.975.521-1.941.799-4.607.799H7.666C5 75 4.034 74.722 3.06 74.201c-.974-.52-1.74-1.286-2.26-2.26C.278 70.966 0 70 0 67.334V7.666C0 5 .278 4.034.799 3.06c.52-.974 1.286-1.74 2.26-2.26C4.034.278 5 0 7.666 0z" opacity=".5" transform="translate(-166.000000, -531.000000) translate(102.000000, 532.000000) translate(65.000000, 0.000000)"/>
                    <g fill="#FFF" transform="translate(-166.000000, -531.000000) translate(102.000000, 532.000000) translate(65.000000, 0.000000) translate(7.000000, 31.000000)">
                        <rect width="18" height="30" x="10" y="7" rx="2"/>
                        <rect width="3" height="30" y="7" rx="1.495"/>
                        <rect width="3" height="9" x="5" y="7" rx="1.495"/>
                        <rect width="3" height="9" x="5" y="17" rx="1.495"/>
                        <rect width="3" height="9" x="5" y="28" rx="1.495"/>
                        <path d="M10.573 2.029L18.475.126c.345-.083.705-.083 1.05 0l7.902 1.903c.336.08.573.381.573.727v1.496c0 .413-.335.748-.748.748H10.748C10.335 5 10 4.665 10 4.252V2.756c0-.346.237-.646.573-.727z"/>
                    </g>
                </g>
            </g>
        </g>
    </g>
</svg>
