<?xml version="1.0" encoding="UTF-8"?>
<svg width="30px" height="20px" viewBox="0 0 30 20" version="1.1" xmlns="http://www.w3.org/2000/svg" xmlns:xlink="http://www.w3.org/1999/xlink">
    <title>icon/SA</title>
    <g id="Menu" stroke="none" stroke-width="1" fill="none" fill-rule="evenodd">
        <g id="Auto-Mobile---Menu---Dil-Secimi" transform="translate(-65.000000, -379.000000)">
            <g id="languages" transform="translate(15.000000, 137.000000)">
                <g id="Group-7" transform="translate(0.000000, 230.000000)">
                    <g id="icon/SA" transform="translate(50.000000, 12.000000)">
                        <rect id="Mask-Copy" fill="#128C4B" x="0" y="0" width="30" height="20" rx="2"></rect>
                        <path d="M7.66666667,12 L18.3333333,12 L18.3333333,10.665971 C18.3333333,10.2981654 18.6031532,10.1349099 18.9375814,10.302124 L19.6666667,10.6666667 L19.6666667,12 L21.6604207,12 C22.0320601,12 22.3333333,12.3059006 22.3333333,12.6729126 L22.3333333,13.3333333 C22.3333333,14.069713 21.7431196,14.6666667 21.0013913,14.6666667 L18.993852,14.6666667 C18.6290576,14.6666667 18.3333333,14.3707568 18.3333333,14 L18.3333333,13.3333333 L9.67123032,13.3333333 C9.30052005,13.3333333 8.79166667,13.125 8.5336647,12.866998 L7.66666667,12 Z" id="Rectangle-455" fill="#FFFFFF"></path>
                        <path d="M7.66666667,8.3364563 C7.66666667,8.15063662 7.77083333,7.89583333 7.90734863,7.75931803 L8.09265137,7.5740153 C8.22557635,7.44109032 8.22916667,7.22916667 8.09265137,7.09265137 L7.90734863,6.90734863 C7.77442365,6.77442365 7.66666667,6.52397664 7.66666667,6.33021037 L7.66666667,5.66978963 C7.66666667,5.48396995 7.80935669,5.33333333 8.00312297,5.33333333 L8.6635437,5.33333333 C8.84936338,5.33333333 9,5.47602336 9,5.66978963 L9,6.33021037 C9,6.51603005 9.06635984,6.53394699 9.14795494,6.37075679 L9.51871173,5.62924321 C9.60042498,5.4658167 9.82360331,5.33333333 9.99692599,5.33333333 L11.3364073,5.33333333 C11.5188045,5.33333333 11.6666667,5.48795573 11.6666667,5.66666667 L11.6666667,5.66666667 C11.6666667,5.85076158 11.5239766,6 11.3302104,6 L10.6697896,6 C10.4839699,6 10.3333333,6.1546224 10.3333333,6.33333333 L10.3333333,6.33333333 C10.3333333,6.51742825 10.4760234,6.66666667 10.6697896,6.66666667 L11.3302104,6.66666667 C11.5160301,6.66666667 11.6666667,6.81003825 11.6666667,6.99365234 L11.6666667,9.00634766 C11.6666667,9.18693686 11.5239766,9.33333333 11.3302104,9.33333333 L10.6697896,9.33333333 C10.4839699,9.33333333 10.3333333,9.19064331 10.3333333,8.99687703 L10.3333333,8.3364563 C10.3333333,8.15063662 10.4879557,8 10.6666667,8 L10.6666667,8 C10.8507616,8 11,7.8453776 11,7.66666667 L11,7.66666667 C11,7.48257175 10.85731,7.33333333 10.6635437,7.33333333 L10.003123,7.33333333 C9.81730328,7.33333333 9.66666667,7.49026998 9.66666667,7.66359266 L9.66666667,9.00307401 C9.66666667,9.1854712 9.51204427,9.33333333 9.33333333,9.33333333 L9.33333333,9.33333333 C9.14923842,9.33333333 9,9.19064331 9,8.99687703 L9,8.3364563 C9,8.15063662 8.8453776,8 8.66666667,8 L8.66666667,8 C8.48257175,8 8.33333333,8.14269002 8.33333333,8.3364563 L8.33333333,8.99687703 C8.33333333,9.18269672 8.17871094,9.33333333 8,9.33333333 L8,9.33333333 C7.81590508,9.33333333 7.66666667,9.19064331 7.66666667,8.99687703 L7.66666667,8.3364563 Z" id="Rectangle-456" fill="#FFFFFF"></path>
                        <path d="M18.3333333,8.3364563 C18.3333333,8.15063662 18.4375,7.89583333 18.5740153,7.75931803 L18.759318,7.5740153 C18.892243,7.44109032 18.8958333,7.22916667 18.759318,7.09265137 L18.5740153,6.90734863 C18.4410903,6.77442365 18.3333333,6.52397664 18.3333333,6.33021037 L18.3333333,5.66978963 C18.3333333,5.48396995 18.4760234,5.33333333 18.6697896,5.33333333 L19.3302104,5.33333333 C19.5160301,5.33333333 19.6666667,5.47602336 19.6666667,5.66978963 L19.6666667,6.33021037 C19.6666667,6.51603005 19.7330265,6.53394699 19.8146216,6.37075679 L20.1853784,5.62924321 C20.2670916,5.4658167 20.49027,5.33333333 20.6635927,5.33333333 L22.003074,5.33333333 C22.1854712,5.33333333 22.3333333,5.48795573 22.3333333,5.66666667 L22.3333333,5.66666667 C22.3333333,5.85076158 22.1906433,6 21.996877,6 L21.3364563,6 C21.1506366,6 21,6.1546224 21,6.33333333 L21,6.33333333 C21,6.51742825 21.14269,6.66666667 21.3364563,6.66666667 L21.996877,6.66666667 C22.1826967,6.66666667 22.3333333,6.81003825 22.3333333,6.99365234 L22.3333333,9.00634766 C22.3333333,9.18693686 22.1906433,9.33333333 21.996877,9.33333333 L21.3364563,9.33333333 C21.1506366,9.33333333 21,9.19064331 21,8.99687703 L21,8.3364563 C21,8.15063662 21.1546224,8 21.3333333,8 L21.3333333,8 C21.5174282,8 21.6666667,7.8453776 21.6666667,7.66666667 L21.6666667,7.66666667 C21.6666667,7.48257175 21.5239766,7.33333333 21.3302104,7.33333333 L20.6697896,7.33333333 C20.4839699,7.33333333 20.3333333,7.49026998 20.3333333,7.66359266 L20.3333333,9.00307401 C20.3333333,9.1854712 20.1787109,9.33333333 20,9.33333333 L20,9.33333333 C19.8159051,9.33333333 19.6666667,9.19064331 19.6666667,8.99687703 L19.6666667,8.3364563 C19.6666667,8.15063662 19.5120443,8 19.3333333,8 L19.3333333,8 C19.1492384,8 19,8.14269002 19,8.3364563 L19,8.99687703 C19,9.18269672 18.8453776,9.33333333 18.6666667,9.33333333 L18.6666667,9.33333333 C18.4825718,9.33333333 18.3333333,9.19064331 18.3333333,8.99687703 L18.3333333,8.3364563 Z" id="Rectangle-456" fill="#FFFFFF"></path>
                        <path d="M17,6.33021037 C17,6.51603005 16.8958333,6.77083333 16.759318,6.90734863 L16.5740153,7.09265137 C16.4410903,7.22557635 16.4375,7.4375 16.5740153,7.5740153 L16.759318,7.75931803 C16.892243,7.89224301 17,8.14269002 17,8.3364563 L17,8.99687703 C17,9.18269672 16.85731,9.33333333 16.6635437,9.33333333 L16.003123,9.33333333 C15.8173033,9.33333333 15.6666667,9.19064331 15.6666667,8.99687703 L15.6666667,8.3364563 C15.6666667,8.15063662 15.6051432,8.12304687 15.5120443,8.30924479 L15.1546224,9.02408854 C15.0692268,9.19487972 14.8430634,9.33333333 14.6697407,9.33333333 L13.3302593,9.33333333 C13.1478621,9.33333333 13,9.17871094 13,9 L13,9 C13,8.81590508 13.14269,8.66666667 13.3364563,8.66666667 L13.996877,8.66666667 C14.1826967,8.66666667 14.3333333,8.51204427 14.3333333,8.33333333 L14.3333333,8.33333333 C14.3333333,8.14923842 14.1906433,8 13.996877,8 L13.3364563,8 C13.1506366,8 13,7.85662842 13,7.67301432 L13,5.66031901 C13,5.47972981 13.14269,5.33333333 13.3364563,5.33333333 L13.996877,5.33333333 C14.1826967,5.33333333 14.3333333,5.47602336 14.3333333,5.66978963 L14.3333333,6.33021037 C14.3333333,6.51603005 14.1787109,6.66666667 14,6.66666667 L14,6.66666667 C13.8159051,6.66666667 13.6666667,6.82128906 13.6666667,7 L13.6666667,7 C13.6666667,7.18409492 13.8093567,7.33333333 14.003123,7.33333333 L14.6635437,7.33333333 C14.8493634,7.33333333 15,7.17639669 15,7.00307401 L15,5.66359266 C15,5.48119547 15.1546224,5.33333333 15.3333333,5.33333333 L15.3333333,5.33333333 C15.5174282,5.33333333 15.6666667,5.47602336 15.6666667,5.66978963 L15.6666667,6.33021037 C15.6666667,6.51603005 15.8212891,6.66666667 16,6.66666667 L16,6.66666667 C16.1840949,6.66666667 16.3333333,6.52397664 16.3333333,6.33021037 L16.3333333,5.66978963 C16.3333333,5.48396995 16.4879557,5.33333333 16.6666667,5.33333333 L16.6666667,5.33333333 C16.8507616,5.33333333 17,5.47602336 17,5.66978963 L17,6.33021037 L17,6.33021037 Z" id="Rectangle-456" fill="#FFFFFF"></path>
                    </g>
                </g>
            </g>
        </g>
    </g>
</svg>