<?xml version="1.0" encoding="UTF-8"?>
<svg width="30px" height="20px" viewBox="0 0 30 20" version="1.1" xmlns="http://www.w3.org/2000/svg" xmlns:xlink="http://www.w3.org/1999/xlink">
    <title>icon/TR@3x</title>
    <g id="Menu" stroke="none" stroke-width="1" fill="none" fill-rule="evenodd">
        <g id="Auto-Mobile---Menu---Dil-Secimi" transform="translate(-65.000000, -194.000000)">
            <g id="languages" transform="translate(15.000000, 137.000000)">
                <g id="Group-7" transform="translate(0.000000, 46.000000)">
                    <g id="icon/TR" transform="translate(50.000000, 11.000000)">
                        <rect id="Rectangle" fill="#E92434" x="0" y="0" width="30" height="20" rx="2"></rect>
                        <g id="Group-17" transform="translate(7.500000, 4.000000)" fill="#FFFFFF">
                            <polygon id="Star-8" points="12.0191136 6.81247039 10.4516863 7.929849 11.0300148 6.09384804 9.48296291 4.94842503 11.4078169 4.93109264 12.0191136 3.10580368 12.6304103 4.93109264 14.5552643 4.94842503 13.0082124 6.09384804 13.586541 7.929849 12.0191136 6.81247039 12.0191136 6.81247039"></polygon>
                            <path d="M6,-1.52470629e-13 C7.92498154,-1.52470629e-13 9.63823385,0.90652059 10.7361425,2.31594735 C9.88895741,1.70014277 8.82370825,1.33333333 7.66666667,1.33333333 C4.90524292,1.33333333 2.66666667,3.42267117 2.66666667,6 C2.66666667,8.57732883 4.90524292,10.6666667 7.66666667,10.6666667 C8.82370825,10.6666667 9.88895741,10.2998572 10.7362034,9.68403507 C9.63823385,11.0934794 7.92498154,12 6,12 C2.6862915,12 -5.78056121e-13,9.3137085 -5.78056121e-13,6 C-5.78056121e-13,2.6862915 2.6862915,-1.52470629e-13 6,-1.52470629e-13 Z" id="Oval-41"></path>
                        </g>
                    </g>
                </g>
            </g>
        </g>
    </g>
</svg>